<svg xmlns="http://www.w3.org/2000/svg" width="246" height="139" viewBox="0 0 246 139">
    <g fill="#FFF" fill-rule="nonzero">
        <path d="M1.05 97.44c.147.311.206.657.17 1a.71.71 0 0 0 .5.79c.27.208.555.399.85.57.308.161.665.2 1 .11a6.2 6.2 0 0 0 2.71 1 6.58 6.58 0 0 0 3.61-.67.75.75 0 0 1 0-1 2.19 2.19 0 0 0 .45-.85 3.46 3.46 0 0 0 0-1.69 5.83 5.83 0 0 1 0-1.8 4.89 4.89 0 0 1 .75-1.9 13.48 13.48 0 0 0 1-1.69 5.93 5.93 0 0 0 .79-2 5.93 5.93 0 0 1 .79-2c.453-.913.903-1.853 1.35-2.82.46-1 .91-1.92 1.36-2.82.52-1.06 1.09-2.09 1.69-3.11a25.84 25.84 0 0 0 1.58-3.1 17.82 17.82 0 0 0 .56-1.75c.23-.79.53-1.26.91-1.41.293.048.577.142.84.28.325.152.66.286 1 .4a9.22 9.22 0 0 0 3.39.28 30.67 30.67 0 0 0 3.83-.62 27.51 27.51 0 0 0 4.79-1.92 236.388 236.388 0 0 1 4.8-2.37l2-1.07a9.75 9.75 0 0 0 1.75-1.18 18.21 18.21 0 0 0 2.93-1.58l2.71-1.81A59.88 59.88 0 0 0 56 58.29a9.71 9.71 0 0 0 3.84-2.82L61.28 54a8.71 8.71 0 0 0 1.25-1.58 9.54 9.54 0 0 0 3.32-4.74 88.175 88.175 0 0 0 1.86-6.2c.23-.83.47-1.66.74-2.48a12.34 12.34 0 0 0 .51-2.6 5.77 5.77 0 0 0-.06-.85 1.49 1.49 0 0 1 .06-.73c.07-.3.15-.62.22-1s.15-.69.23-1.07c.22-1.28.47-2.57.73-3.89a12.47 12.47 0 0 0 .17-3.86 6.55 6.55 0 0 0-.9-2.54 42.9 42.9 0 0 1-1.36-2.31 4.24 4.24 0 0 1-.67-.57 1.79 1.79 0 0 0-.79-.45 11.91 11.91 0 0 0-1.81-2.25 3.09 3.09 0 0 0-1.3-.79 10.79 10.79 0 0 1-1.63-.68 8.79 8.79 0 0 1-1.07-.51l-1-.51a20.11 20.11 0 0 0-6.21-.56 7.34 7.34 0 0 0-1.52.34 7.29 7.29 0 0 1-1.41.34 4.52 4.52 0 0 1-1.3.28 4.38 4.38 0 0 0-1.29.28 2.24 2.24 0 0 0-1.19.11 7.28 7.28 0 0 1-1.75.34 6.36 6.36 0 0 0-.84.28 1 1 0 0 1-.74.06.89.89 0 0 1-.73-.56 3.48 3.48 0 0 0-.51-.91 7.09 7.09 0 0 0-.39-.84 1.43 1.43 0 0 0-.62-.51c-.38 0-.53 0-.45-.11.08-.11-.27.11-1 .56a15.85 15.85 0 0 0-2.37 3 40.68 40.68 0 0 0-1.91 3.61c-.617.3-1.26.545-1.92.73l-2.26.62c-2.33 1.05-4.57 2.13-6.71 3.21a31.74 31.74 0 0 0-5.92 3.9 3 3 0 0 0-.68 1.69c-.08.68-.15 1.32-.23 1.92a1.59 1.59 0 0 0 1.53.11c.49-.23 1.37-.56 2.65-1a1.88 1.88 0 0 1 .84-.22 5.33 5.33 0 0 0 1-.11 1.72 1.72 0 0 0 .85-.23 2.85 2.85 0 0 1 1.64 0 7.51 7.51 0 0 0 3.6-.39C31 30 32 29.61 33 29.3a3 3 0 0 1-.39 1 16.55 16.55 0 0 0-1 2.14A21.27 21.27 0 0 1 30 35.11a26.19 26.19 0 0 0-1.69 2.77c-.16.37-.31.71-.46 1a5.13 5.13 0 0 1-.56.9c-.23.46-.45.91-.68 1.36a11 11 0 0 0-.56 1.35 1.73 1.73 0 0 0-.62.85 1.66 1.66 0 0 1-.62.84 7.59 7.59 0 0 1-1 2.6 16.6 16.6 0 0 0-1.24 2.26 7.54 7.54 0 0 1-.67 1.74 25.25 25.25 0 0 0-1.13 2.54 2.25 2.25 0 0 1-.4.51 3.64 3.64 0 0 0-.62 1.07c-.37.83-.75 1.69-1.13 2.6-.38.91-.82 2.1-1.35 3.61a1.08 1.08 0 0 0-.45.67 2.58 2.58 0 0 1-.34.79c-.15.3-.3.59-.45.85a1.89 1.89 0 0 0-.23 1 19.47 19.47 0 0 1-1.24 2.31c-.45.71-1.09 1.75-1.91 3.1a11.45 11.45 0 0 0-1 1.41c-.3.492-.635.964-1 1.41a1.78 1.78 0 0 1-.23 1.07 1.57 1.57 0 0 0-.23 1 1.13 1.13 0 0 0-.45.57l-.22.67c-.23.38-.45.76-.68 1.13a7.41 7.41 0 0 0-.56 1.13 8.44 8.44 0 0 0-.62 1.24A11 11 0 0 1 7 80.63l-.46.85a7.79 7.79 0 0 0-.45 1 7.9 7.9 0 0 1-.5.68 1.91 1.91 0 0 0-.4.79 17.63 17.63 0 0 0-1.41 2.37c-.41.83-.85 1.81-1.3 2.93a9.14 9.14 0 0 1-1.38 2.04A4.68 4.68 0 0 0 0 93.72c-.07.48 0 .969.2 1.41.19.41.47 1.18.85 2.31zm25.66-35.08a7.42 7.42 0 0 1 .73-1.7 8.17 8.17 0 0 0 .34-1 2.85 2.85 0 0 1 .34-.73c.15-.37.3-.71.45-1 .15-.29.3-.64.45-1a13.5 13.5 0 0 0 .74-2.14 13 13 0 0 1 .84-2.37 8.15 8.15 0 0 1 1.13-3.38 28.12 28.12 0 0 0 1.58-2.94c.83-1.58 1.58-3.17 2.26-4.79a45.85 45.85 0 0 1 2.25-4.68 22.4 22.4 0 0 1 1.47-3.73 32.19 32.19 0 0 0 1.58-3.72 4.71 4.71 0 0 1 .22-1.47 5 5 0 0 0 .23-1.57 25.51 25.51 0 0 0 2.76-1 11 11 0 0 1 2.77-.79 4 4 0 0 1 .9-.11 4.84 4.84 0 0 0 1-.12 2.36 2.36 0 0 0 .79-.11 5.35 5.35 0 0 0 .79-.34c.403.153.85.135 1.24-.05a3.5 3.5 0 0 1 1.36-.29 9.78 9.78 0 0 1 2.31.06 3.33 3.33 0 0 0 1.86-.17 1.91 1.91 0 0 0 1 .17 3.79 3.79 0 0 1 1.52.4 1 1 0 0 0 .57.28 1 1 0 0 1 .56.28c.401.433.642.99.68 1.58.123.913.314 1.815.57 2.7a8.17 8.17 0 0 0 .23 1.69 3.28 3.28 0 0 1-.12 1.92 3.77 3.77 0 0 1-.28.5 3.17 3.17 0 0 0-.28.62 1.85 1.85 0 0 0-.28.68 1 1 0 0 1-.28.57 6.94 6.94 0 0 1-.51.84 4.79 4.79 0 0 0-.51 1 7.94 7.94 0 0 1-.45.79A7.94 7.94 0 0 0 59 38a3.77 3.77 0 0 0-.79 1.58 9 9 0 0 0-.9 1.8 1.23 1.23 0 0 0-.23.68.78.78 0 0 1-.22.57c-.38.6-.76 1.14-1.13 1.63-.37.49-.79 1-1.24 1.64a13.34 13.34 0 0 1-1.36 2.31c-.52.71-1 1.41-1.58 2.09-.58.68-1 1.59-1.52 2.31a7.47 7.47 0 0 1-1.86 1.86.18.18 0 0 1-.11.17 4.92 4.92 0 0 0-.68 1 3 3 0 0 0-1.35.79c-.38.37-.76.75-1.13 1.13-.53.37-1 .69-1.47 1a6.75 6.75 0 0 0-1.24 1c-.868.324-1.7.74-2.48 1.24a11.06 11.06 0 0 1-2.6 1.24 3 3 0 0 1-.79.23 4.34 4.34 0 0 1-.9.11 1.15 1.15 0 0 1-.39-.05 3.87 3.87 0 0 0-1.19.17 8.13 8.13 0 0 1-2.37.11 3.16 3.16 0 0 0-2.25.56 3 3 0 0 0-1.64.23 6.06 6.06 0 0 1-1.29.45c.17-.59.31-1.04.42-1.49zM130.89 41.26a.66.66 0 0 1-.34-.56 1.23 1.23 0 0 0-.23-.68l-1.13-.34a2.24 2.24 0 0 0-.67.11 7.72 7.72 0 0 1-.79.23 1.94 1.94 0 0 1-.85.23 1.35 1.35 0 0 0-.62.11 5 5 0 0 0-1.18.56 8.58 8.58 0 0 1-1 .57 9.54 9.54 0 0 0-1.81 1.13 2.89 2.89 0 0 0-.5.84c-.19.41-.36.81-.51 1.19a4.87 4.87 0 0 0 .11 5.07 3.31 3.31 0 0 1 1.63 1.47 5.1 5.1 0 0 0 4.06.11.92.92 0 0 1 .4-.62 1.63 1.63 0 0 0 .5-.51 1 1 0 0 0 1-.45 1.7 1.7 0 0 1 .85-.67.69.69 0 0 1 .28-.57 5.19 5.19 0 0 0 .85-1.58 1.09 1.09 0 0 0-.29-.68 1.21 1.21 0 0 1-.28-.79c.004-.697.06-1.392.17-2.08.06-.72.19-1.41.35-2.09z"/>
        <path d="M152.94 100.26a2.62 2.62 0 0 0 1.52 0 3.54 3.54 0 0 0 1.81-1.81 13.24 13.24 0 0 1 1-2 5.76 5.76 0 0 0 .68-1 8.83 8.83 0 0 0 .45-1.13c.27-.906.65-1.776 1.13-2.59.6-2.26 1.24-4.573 1.92-6.94.67-2.327.897-4.76.67-7.17-.15-.37-.28-.75-.39-1.12a4 4 0 0 1-.17-1.13 63.1 63.1 0 0 1-2.31-6.49 31.18 31.18 0 0 1-1.3-7.16c-.15-.45-.28-.94-.4-1.47a3.31 3.31 0 0 1-.05-1.35 2.59 2.59 0 0 1-.74-2.14c.12-.76.25-1.54.4-2.37.15-.83.3-1.3.45-1.86.15-.56.3-1.19.45-1.87.08-.37.15-.75.23-1.12a2 2 0 0 0 0-.91 1.47 1.47 0 0 0-.62-.5 5.45 5.45 0 0 0-1.13-.46 3.76 3.76 0 0 0-1.3-.11 1.77 1.77 0 0 0-1.13.51 3.53 3.53 0 0 1-1.07.79 5.09 5.09 0 0 0-1.07.68 6.73 6.73 0 0 1-2 1.86 5.52 5.52 0 0 0-2 2.42c-.1.429.028.88.34 1.19.323.348.413.852.23 1.29a2.65 2.65 0 0 1-.34.51 5.83 5.83 0 0 1-.45.51c-.3.53-.59 1-.85 1.47s-.58 1-1 1.57c-.42.57-1.11 1.58-2 2.71-.89 1.13-1.75 2.31-2.65 3.56-.9 1.25-1.73 2.44-2.49 3.61a13 13 0 0 0-1.33 2.76L136 74.76c-.64.83-1.3 1.72-2 2.65-.7.93-1.35 1.83-2 2.66-.65.83-1.16 1.39-1.46 1.69-.3.3-.69 1-1.29 1.86l-.07.06a9.62 9.62 0 0 1-2.59 1.12 5 5 0 0 1-.73.57 3.75 3.75 0 0 1-.85.45 10.45 10.45 0 0 0-2.71 1 23 23 0 0 1-3 1.36.78.78 0 0 0-.79.22 7.93 7.93 0 0 1-.79.68 3.79 3.79 0 0 1-2.37.45 5.16 5.16 0 0 0-2.48.34l-.57-.22a.7.7 0 0 1-.34-1.13 6.52 6.52 0 0 0 .68-2c.08-.15.15-.32.23-.51.08-.19.3-.73.67-1.64a8.21 8.21 0 0 1 .57-1.46c.22-.46.45-.91.67-1.36.22-.45.47-.77.74-1.18a5.48 5.48 0 0 0 .62-1.41 8.79 8.79 0 0 1 .51-1.07c.187-.35.353-.711.5-1.08a10.64 10.64 0 0 1 1.08-2.19 18.62 18.62 0 0 0 1.18-2.2l1-2c.37-.75.75-1.42 1.12-2 .68-1.27 1.3-2.5 1.86-3.66a22.11 22.11 0 0 0 1.53-5 10.9 10.9 0 0 1-1.36-1.36 2.49 2.49 0 0 0-1.8-.78.89.89 0 0 1-.79.33 6.12 6.12 0 0 0-2 .68 1.69 1.69 0 0 1-1.13.06 1.88 1.88 0 0 0-1-.06c-.51 0-.998.202-1.36.56-.297.433-.56.888-.79 1.36-.38.6-.73 1.2-1.07 1.8a14 14 0 0 0-.85 1.81c-.22.53-.41 1-.56 1.52a9.63 9.63 0 0 1-.61 1.32l-.85 1.24a5 5 0 0 0-.62 1.24 6.7 6.7 0 0 1-.9 1.92 17.55 17.55 0 0 0-1 1.58l-.67 1.69a4.9 4.9 0 0 1-.51.79 7.53 7.53 0 0 0-.51.68 6.69 6.69 0 0 1-1.34 1.31 11.43 11.43 0 0 1-2.94 2.6 4.23 4.23 0 0 0-.73.45c-.489.33-.996.63-1.52.9l-.45.45-.46.45c-.448.273-.88.573-1.29.9a5.92 5.92 0 0 1-1.41.79 9.88 9.88 0 0 1-2.6 2.09 10.9 10.9 0 0 1-3.61 1.07 2.19 2.19 0 0 1-.79-1.46 4.49 4.49 0 0 0-.56-1.7c.147-.82.297-1.76.45-2.82.142-.933.22-1.876.23-2.82.07-.82.15-1.63.22-2.42s.19-1.6.34-2.43a9.28 9.28 0 0 0 .06-1.69 3.94 3.94 0 0 1 .17-1.58 3.69 3.69 0 0 1 .28-.9l.39-.79a3 3 0 0 1 .68-1.47 2.62 2.62 0 0 0 .22-1.35l.12-.9c0-.75-.57-1.32-1.69-1.69-.2.01-.394.065-.57.16a1.39 1.39 0 0 1-.67.17 8.06 8.06 0 0 1-2.15.17 10.28 10.28 0 0 0-1.8.06 12.23 12.23 0 0 0-1.86-2.26c-.72-.67-1.45-1.35-2.2-2-.91-.22-1.88-.49-2.94-.79a3.18 3.18 0 0 0-3 .79l-1.13.9a5.87 5.87 0 0 1-1.35.8 28.25 28.25 0 0 1-5.08 3.6 16.34 16.34 0 0 0-4.74 4l-1.24 1.07a5 5 0 0 0-1 1.3 1.72 1.72 0 0 0-.85.68 5 5 0 0 1-.62.79c-.45.45-.92.88-1.41 1.3a7.59 7.59 0 0 0-1.3 1.41 6.91 6.91 0 0 1-.79.67c-.26.19-.49.42-.68.68a1.49 1.49 0 0 0-.33.56c-.085.24-.2.468-.34.68a4.83 4.83 0 0 0-.9 1.13 15.88 15.88 0 0 0-1.08 3.27 12.16 12.16 0 0 0-.28 3.38 2.91 2.91 0 0 1-.11.85.85.85 0 0 0 .11.73 1.63 1.63 0 0 0 0 1.19 6.74 6.74 0 0 1 .34 1.52c.15.68.28 1.28.4 1.81a12.5 12.5 0 0 0 .5 1.69 13.39 13.39 0 0 0 2.2 3.16 5.77 5.77 0 0 0 3.22 1.69 8.77 8.77 0 0 0 1.8.67 10.47 10.47 0 0 1 2 .79 5.71 5.71 0 0 0 2.09.06A2.39 2.39 0 0 0 66 98.9a.56.56 0 0 0 .57-.11 4.74 4.74 0 0 0 .67-.56 187.955 187.955 0 0 1 5.14-4.12A62 62 0 0 0 77.19 90a5.82 5.82 0 0 0 2-1.46 7.92 7.92 0 0 1 1.69-1.47c.3 1.28.6 2.48.91 3.61a7.55 7.55 0 0 0 1.46 2.93 4.05 4.05 0 0 1 1.13 1.13c.73.168 1.446.396 2.14.68a4.49 4.49 0 0 0 2.49.22 2.17 2.17 0 0 0 1.07-.28c.34-.19.65-.36 1-.51a9.63 9.63 0 0 0 1.69-1.07 9.07 9.07 0 0 1 1.46-1l1.41-1.58a9.09 9.09 0 0 1 1.64-1.35 3 3 0 0 1 .79-.9l.9-.68a20.2 20.2 0 0 1 2.54-2.54 24.93 24.93 0 0 0 2.65-2.54 1.46 1.46 0 0 0 .35-.24 7.47 7.47 0 0 0-.46 2.11c-.08.94-.19 1.82-.34 2.65a5.53 5.53 0 0 0 0 1.52c.08.49.15.92.23 1.3.22 1 .43 2 .62 3a2.62 2.62 0 0 0 1.52 2.08 3.67 3.67 0 0 0 1.35 1.47l2.26 1.24a6.38 6.38 0 0 0 3.83.79 6.8 6.8 0 0 0 1.24-.68c.61-.22 1.3-.49 2.09-.79a6.79 6.79 0 0 0 1.75-.9 5 5 0 0 0 .79-.73 2.61 2.61 0 0 1 .79-.62c.76-.54 1.57-1.08 2.43-1.62a1.56 1.56 0 0 0-.06.15 2.24 2.24 0 0 0-1 1.24 6.48 6.48 0 0 1-.51 1.36c.113.236.206.48.28.73.119.346.196.705.23 1.07.034.36.09.717.17 1.07.026.22.101.432.22.62a4 4 0 0 0 2.54-.84 7.3 7.3 0 0 0 1.75-2 18.52 18.52 0 0 1 1.19-1.8c.64-.9 1.35-1.88 2.14-2.94s1.5-2 2.14-2.93c.64-.93 1-1.46 1.19-1.69.19-.23.66-.88 1.29-1.75s1.34-1.78 2.09-2.76c.54-.7 1.06-1.36 1.58-2 .36-.28.8-.58 1.35-.93a11.94 11.94 0 0 1 1.8-1.77 5.62 5.62 0 0 0 1.53-2 2.25 2.25 0 0 0-.16-.48l.15-.2a17.93 17.93 0 0 0 1.41-1.69l2.07-2.74c.75-1 1.47-1.88 2.15-2.7.68-.82 1.16-1.4 1.46-1.7a2.93 2.93 0 0 1 .51 1.92 6.87 6.87 0 0 0 .17 2c.133.273.283.537.45.79.166.277.282.582.34.9a5.07 5.07 0 0 1 0 2 3.35 3.35 0 0 0 .29 2 14.9 14.9 0 0 0 1.24 3 7.66 7.66 0 0 1 .9 3 5.54 5.54 0 0 1-.11 1c-.08.38-.15.72-.23 1a10.52 10.52 0 0 1-1.58 3.16 2.52 2.52 0 0 1-.9.22 1.84 1.84 0 0 0-.9.34 10.36 10.36 0 0 0-1.19-1 6.49 6.49 0 0 1-1.18-1.12 5.33 5.33 0 0 1-.79-1.53 2.48 2.48 0 0 0-1-1.29 1 1 0 0 0 .12-.74 4.24 4.24 0 0 1-.23-.73c.15-.38.36-.83.62-1.35a1.43 1.43 0 0 0 .17-1.24l-.68-.57a1.82 1.82 0 0 0-.73-.11 1 1 0 0 0-.73.22 3.13 3.13 0 0 0-1 1.3 2.74 2.74 0 0 1-.85 1.19 3 3 0 0 0-1.32 3.07c.11 1.17.17 2.24.17 3.22 0 .225-.02.449-.06.67.03.443.167.872.4 1.25a5.87 5.87 0 0 1 .56 2.42 9.49 9.49 0 0 0 .34 2.43 6.72 6.72 0 0 0 .68 1.69c.408.822.71 1.692.9 2.59a2.3 2.3 0 0 0 .57.4.54.54 0 0 1 .33.5 7.54 7.54 0 0 1 2.32.74 3.82 3.82 0 0 0 2.42.28 2.61 2.61 0 0 0 .9-.17 6.24 6.24 0 0 1 1-.28 2.26 2.26 0 0 1 1.41 0zM73.23 85.09a94.43 94.43 0 0 1-7.45 6.37c-.37.08-.81.19-1.29.34a1.59 1.59 0 0 1-1.41-.23 2.3 2.3 0 0 1-.85-1.75 17.83 17.83 0 0 1-.17-2.2 9.26 9.26 0 0 0-.34-2.48 6.1 6.1 0 0 1-.11-1.14v-1.11a11.57 11.57 0 0 0-.06-1.24 2.33 2.33 0 0 1 .17-1.13c.15-.23.3-.43.45-.62a4.36 4.36 0 0 0 .45-.74c.23-.45.47-.94.74-1.46a7.55 7.55 0 0 1 .84-1.36 7.44 7.44 0 0 1 1.13-1.11c.3-.234.587-.484.86-.75a54.83 54.83 0 0 1 5-4.51 29.16 29.16 0 0 1 5.53-3.44 3 3 0 0 0 1.07.06 1.94 1.94 0 0 1 1.07.17 15.27 15.27 0 0 1 .51 5.13 40.16 40.16 0 0 0 .05 5.69 41.11 41.11 0 0 1-6.19 7.51zM204.21 94.84a7.39 7.39 0 0 0 .91-.52 2 2 0 0 0-.52.86 7 7 0 0 1-.5 1.36c.108.237.202.481.28.73.115.347.19.706.22 1.07 0 .38.1.73.17 1.07.028.222.107.434.23.62a4 4 0 0 0 2.54-.84 7.65 7.65 0 0 0 1.75-2 17.74 17.74 0 0 1 1.18-1.8c.64-.9 1.35-1.88 2.14-2.94s1.51-2 2.15-2.93c.64-.93 1-1.46 1.18-1.69l1.3-1.75c.64-.86 1.33-1.78 2.09-2.76.76-.98 1.48-1.9 2.2-2.77l.26-.32.13-.07a.77.77 0 0 1 .56-.23c.23 0 .53-.33.91-1 .24-.32.523-.605.84-.85a4.52 4.52 0 0 0 .85-.84.35.35 0 0 0 .11-.23 4.19 4.19 0 0 1 .57-.9 5.14 5.14 0 0 0 .59-1.17l.59-.75 2.06-2.7c.75-1 1.46-1.88 2.14-2.7.68-.82 1.16-1.4 1.47-1.7a3 3 0 0 1 .5 1.92 6.87 6.87 0 0 0 .17 2c.133.273.283.537.45.79.17.275.286.58.34.9a5.24 5.24 0 0 1 .06 2 3.35 3.35 0 0 0 .28 2 14.9 14.9 0 0 0 1.24 3 7.35 7.35 0 0 1 .9 3 4.78 4.78 0 0 1-.11 1c-.07.38-.15.72-.22 1a10.76 10.76 0 0 1-1.58 3.16 2.61 2.61 0 0 1-.91.22 1.91 1.91 0 0 0-.9.34 11.19 11.19 0 0 0-1.18-1 6.53 6.53 0 0 1-1.19-1.12 5.59 5.59 0 0 1-.76-1.3 2.51 2.51 0 0 0-1-1.29 1 1 0 0 0 .11-.74 5.53 5.53 0 0 1-.22-.73c.183-.46.39-.91.62-1.35a1.42 1.42 0 0 0 .16-1.24l-.67-.57a1.88 1.88 0 0 0-.74-.11 1 1 0 0 0-.73.22 3.22 3.22 0 0 0-1 1.3 2.8 2.8 0 0 1-.84 1.19 3 3 0 0 0-1.39 2.84c.11 1.17.17 2.24.17 3.22 0 .225-.02.449-.06.67.02.443.154.874.39 1.25a5.74 5.74 0 0 1 .57 2.42 9.07 9.07 0 0 0 .34 2.43 6.7 6.7 0 0 0 .67 1.69c.407.823.713 1.693.91 2.59.165.162.354.296.56.4a.53.53 0 0 1 .34.5 7.56 7.56 0 0 1 2.31.74 3.87 3.87 0 0 0 2.43.28 2.61 2.61 0 0 0 .9-.17 6.4 6.4 0 0 1 1-.28 2.26 2.26 0 0 1 1.41 0 2.66 2.66 0 0 0 1.53 0 3.52 3.52 0 0 0 1.8-1.81 12.41 12.41 0 0 1 1-2 5.65 5.65 0 0 0 .67-1c.175-.367.329-.745.46-1.13a11.17 11.17 0 0 1 1.12-2.59c.6-2.26 1.24-4.573 1.92-6.94a19.39 19.39 0 0 0 .68-7.17c-.15-.37-.28-.75-.4-1.12a4 4 0 0 1-.17-1.13 68.22 68.22 0 0 1-2.31-6.49 31.73 31.73 0 0 1-1.3-7.16 13 13 0 0 1-.39-1.47 3.52 3.52 0 0 1-.06-1.35 2.58 2.58 0 0 1-.73-2.14c.11-.76.24-1.54.39-2.37.15-.83.3-1.3.46-1.86.16-.56.3-1.19.45-1.87.07-.37.15-.75.22-1.12a1.73 1.73 0 0 0 0-.91 1.41 1.41 0 0 0-.62-.5 5.24 5.24 0 0 0-1.13-.46 3.68 3.68 0 0 0-1.29-.11 1.77 1.77 0 0 0-1.13.51 3.65 3.65 0 0 1-1.07.79 4.85 4.85 0 0 0-1.07.68 6.76 6.76 0 0 1-2 1.86 5.58 5.58 0 0 0-2 2.42c-.086.443.08.896.43 1.18.32.35.406.854.22 1.29a2.26 2.26 0 0 1-.34.51 5.83 5.83 0 0 1-.45.51l-.83 1.44-1 1.57c-.45.68-1.11 1.58-2 2.71-.89 1.13-1.75 2.31-2.65 3.56-.9 1.25-1.73 2.44-2.48 3.61a13.66 13.66 0 0 0-1.42 2.8L219 74.76c-.64.83-1.29 1.72-2 2.65-.71.93-1.35 1.83-2 2.66-.12.15-.23.28-.35.41h-.05a13 13 0 0 1-1.52.9l-.45.45-.45.45a13 13 0 0 0-1.3.9 5.53 5.53 0 0 1-1.41.79 10 10 0 0 1-2.59 2.09 11.06 11.06 0 0 1-3.61 1.07 2.15 2.15 0 0 1-.79-1.46A4.69 4.69 0 0 0 202 84c.153-.82.303-1.76.45-2.82.142-.933.22-1.876.23-2.82.07-.82.15-1.63.23-2.42.08-.79.18-1.6.33-2.43a7.78 7.78 0 0 0 .06-1.69 4.13 4.13 0 0 1 .17-1.58 3.69 3.69 0 0 1 .28-.9c.11-.23.25-.49.4-.79a2.93 2.93 0 0 1 .67-1.47 2.67 2.67 0 0 0 .23-1.35l.11-.9c0-.75-.56-1.32-1.69-1.69a1.3 1.3 0 0 0-.56.16 1.46 1.46 0 0 1-.68.17 8 8 0 0 1-2.14.17 10.4 10.4 0 0 0-1.81.06 12.23 12.23 0 0 0-1.86-2.26c-.72-.67-1.45-1.35-2.2-2-.9-.22-1.88-.49-2.93-.79a3.2 3.2 0 0 0-3.05.79c-.38.3-.75.61-1.13.9a5.67 5.67 0 0 1-1.35.8 28.25 28.25 0 0 1-5.08 3.6 16.16 16.16 0 0 0-4.73 4c-.46.38-.87.74-1.25 1.07a5.47 5.47 0 0 0-1 1.3 1.72 1.72 0 0 0-.85.68 4.51 4.51 0 0 1-.62.79c-.45.45-.92.88-1.41 1.3a7.21 7.21 0 0 0-1.29 1.41 7.9 7.9 0 0 1-.79.67 2.91 2.91 0 0 0-.68.68 1.5 1.5 0 0 0-.34.56 2.7 2.7 0 0 1-.34.68 4.83 4.83 0 0 0-.9 1.13 15.88 15.88 0 0 0-1.07 3.27 11.79 11.79 0 0 0-.28 3.38 2.91 2.91 0 0 1-.12.85.86.86 0 0 0 .12.73 1.63 1.63 0 0 0 0 1.19 6.78 6.78 0 0 1 .33 1.52c.16.68.29 1.28.4 1.81.126.576.296 1.14.51 1.69a12.83 12.83 0 0 0 2.2 3.16 5.71 5.71 0 0 0 3.21 1.69 8.64 8.64 0 0 0 1.81.67c.691.196 1.361.46 2 .79a5.66 5.66 0 0 0 2.08.06 2.44 2.44 0 0 0 1.53-.85.54.54 0 0 0 .56-.11 4.79 4.79 0 0 0 .68-.56 198.51 198.51 0 0 1 5.13-4.12 62 62 0 0 0 4.76-4.18 5.86 5.86 0 0 0 2-1.46 7.47 7.47 0 0 1 1.69-1.47c.3 1.28.6 2.48.9 3.61a7.57 7.57 0 0 0 1.47 2.93 4 4 0 0 1 1.12 1.13c.733.17 1.452.397 2.15.68a4.47 4.47 0 0 0 2.48.22 2.17 2.17 0 0 0 1.07-.28l1-.52zm-17.11-9.75a94.26 94.26 0 0 1-7.44 6.37c-.38.08-.81.19-1.3.34a1.59 1.59 0 0 1-1.41-.23 2.37 2.37 0 0 1-.85-1.75 17.83 17.83 0 0 1-.17-2.2 9.26 9.26 0 0 0-.34-2.48 6.1 6.1 0 0 1-.11-1.13v-1.12-1.24a2.33 2.33 0 0 1 .16-1.13 6.24 6.24 0 0 1 .46-.62 4.36 4.36 0 0 0 .45-.74c.22-.45.47-.94.73-1.46a7 7 0 0 1 .85-1.36 7.36 7.36 0 0 1 1.12-1.11c.3-.234.587-.484.86-.75a54.83 54.83 0 0 1 5-4.51 29.48 29.48 0 0 1 5.53-3.44 3 3 0 0 0 1.07.06 1.94 1.94 0 0 1 1.07.17 15.27 15.27 0 0 1 .51 5.13 41.71 41.71 0 0 0 .05 5.69 41.11 41.11 0 0 1-6.24 7.51zM176.41 123.23c.21.1.37.09.47 0a1 1 0 0 0 .08-.75v-.13c0-.01-.16-.13-.29-.34a4.71 4.71 0 0 0-1-.35l-1.12-.23c.45-.92.91-1.82 1.39-2.7.48-.88 1-1.76 1.51-2.62.16-.42.32-.82.49-1.2a2.93 2.93 0 0 1 .68-1c.32-.52.653-1 1-1.44a7 7 0 0 0 .84-1.53 1.35 1.35 0 0 1 .28-.53 1.9 1.9 0 0 0 .26-.41 2 2 0 0 1-.06-.57v-.56a3.08 3.08 0 0 0-.15-.79 1.09 1.09 0 0 0-.47-.51.3.3 0 0 0 .15-.35 1.52 1.52 0 0 0-.12-.43.72.72 0 0 1-.23-.17.43.43 0 0 0-.27-.14 2.11 2.11 0 0 0-.3.16 1.1 1.1 0 0 0-.25.19c-.13-.08-.24-.07-.31 0l-.2.22-.2.25-.19.25a.39.39 0 0 0 0 .26.31.31 0 0 1 0 .25l-.12.22-.15.29a5.39 5.39 0 0 0-.43.9c-.11.19-.21.35-.32.51l-.31.47a4.52 4.52 0 0 1-.51.86 3.17 3.17 0 0 1-.16.37c-.05.12-.1.24-.15.38l-.39.76c-.14.25-.27.5-.4.76s-.26.58-.41.86c-.15.28-.26.56-.37.82a.53.53 0 0 0-.21.36 1.29 1.29 0 0 1-.1.35l-.14.29a1.3 1.3 0 0 1-.14.26l-1.13 1.91a2.83 2.83 0 0 1-.14.26c0 .06-.13.25-.29.57a.87.87 0 0 1-.2.31c-.1.13-.178.275-.23.43a1.48 1.48 0 0 1-.22.31 1.25 1.25 0 0 0-.21.35 2.58 2.58 0 0 1-.18.32.61.61 0 0 1-.25.23c-.63 0-1.23-.07-1.82-.06l-1.74.06a.55.55 0 0 1-.28 0 .48.48 0 0 0-.27.06 7 7 0 0 0-1.82.33 4.76 4.76 0 0 1-1.9.22L162 122a9.89 9.89 0 0 1-1.33.08 1.87 1.87 0 0 1 .2-.51c.08-.13.18-.32.31-.58a1.7 1.7 0 0 1 .2-.47 2.8 2.8 0 0 0 .19-.43l.67-1.2c.23-.43.45-.81.66-1.15a2.57 2.57 0 0 0 .26-.49 1.63 1.63 0 0 1 .25-.45 4.93 4.93 0 0 1 1.1-.94c.33-.49.68-1 1-1.43a2.4 2.4 0 0 1 1.31-.88.3.3 0 0 0 .1-.21c0-.09.07-.14.18-.14a3.1 3.1 0 0 1 .55-.51 1.43 1.43 0 0 1 .31-.43 1.06 1.06 0 0 0 .27-.55 1.42 1.42 0 0 0 .24-.41 1.53 1.53 0 0 1 .23-.41.65.65 0 0 1 .1-.33 1.66 1.66 0 0 0 .14-.37 1 1 0 0 0 0-.34 1.45 1.45 0 0 1 0-.37 8 8 0 0 1-.08-1.09 1.19 1.19 0 0 0-.31-.86c.2-.19.22-.37 0-.55a.86.86 0 0 0-.59-.28 1.19 1.19 0 0 0-.65.12 4.11 4.11 0 0 1-.6.28c-.13.07-.27.15-.41.21-.14.06-.34.14-.57.22a.21.21 0 0 0-.1.07s-.12.07-.33.12l-1.08.63-1 .62-.37.32a1.33 1.33 0 0 1-.37.23l-1 .49a9 9 0 0 1-1 .45 4.25 4.25 0 0 1-.82.53c-.28.14-.62.33-1 .57l-.88.8a1.39 1.39 0 0 0-.42 1.15c0 .13-.09.24-.27.32a1.14 1.14 0 0 0-.39.23l.06.12a2 2 0 0 0 .29.23 1.91 1.91 0 0 0 .47-.11 1.46 1.46 0 0 1 .39-.12 15.27 15.27 0 0 1 3-2 6.782 6.782 0 0 1 1.09-.66l.57-.3c.17-.09.29-.06.37.1a2.52 2.52 0 0 1-.2.55c-.07.16-.17.32-.27.51s-.17.31-.27.47a1.89 1.89 0 0 0-.24.43.67.67 0 0 0-.08.29.93.93 0 0 1-.07.33l-.45 1.29a4 4 0 0 1-.61 1.14 7.92 7.92 0 0 1-.69 1.19 7.19 7.19 0 0 0-.64 1.16 6.37 6.37 0 0 0-.55.9 5 5 0 0 1-.55.86.22.22 0 0 1 0 .23.86.86 0 0 0-.11.24 2.23 2.23 0 0 0-.47.82 4.63 4.63 0 0 1-.43.9c-.2.047-.405.08-.61.1l-.61.06a1.46 1.46 0 0 0-.31.09l-.27.14a2.75 2.75 0 0 0-.34.16 1 1 0 0 0-.21.15.89.89 0 0 1-.2.51c.367.313.582.768.59 1.25a.46.46 0 0 1 .2.42c0 .19.06.32.19.37-.26.49-.51 1-.74 1.46a12 12 0 0 0-.63 1.55c-.18.34-.36.67-.55 1a7.82 7.82 0 0 0-.54 1.35 1 1 0 0 1-.26.35 1.59 1.59 0 0 0-.29.35 4.18 4.18 0 0 0-.2.45c0 .15-.1.28-.15.41a3.07 3.07 0 0 0-.49.83 5.55 5.55 0 0 0-.3 1 .53.53 0 0 0-.19.36.39.39 0 0 1-.24.31 5.6 5.6 0 0 1-.33.59 1.8 1.8 0 0 0-.25.62l.25.26a.57.57 0 0 0 .37.09l.18-.21c.06-.09.13-.09.21 0a.72.72 0 0 0 .61.1 2.55 2.55 0 0 0 .72-.45 9.21 9.21 0 0 1 1.2-1.14 4.42 4.42 0 0 0 1.08-1.16l.32-.47c.1-.16.19-.31.27-.47a3 3 0 0 0 .23-.65 1.83 1.83 0 0 1 .28-.6c.156-.37.333-.73.53-1.08.19-.35.37-.71.53-1.07a4.65 4.65 0 0 0 .7-1.41 9.24 9.24 0 0 1 .59-1.49c.168.046.332.106.49.18l.41.17c.136.08.28.147.43.2.15.047.294.11.43.19a.87.87 0 0 1 .27.24l.39.47a.25.25 0 0 1 .08.17c.051.2.132.393.24.57a.87.87 0 0 1 .27.35c.102.214.234.412.39.59l.51.82c.174.277.33.564.47.86a.46.46 0 0 1 .08.24.36.36 0 0 0 .08.23c.05.13.11.26.17.39.068.126.128.256.18.39.05.19.1.36.15.53.063.187.117.377.16.57.21.42.4.86.59 1.33A18 18 0 0 1 165 137a.55.55 0 0 0 .42.18.4.4 0 0 1 .37.17c0 .209.06.413.17.59a.53.53 0 0 0 .61.19 2.08 2.08 0 0 1 .22-.41c.09-.14.21-.13.37 0a1 1 0 0 1 .33-.43 1 1 0 0 0 .33-.47 3.16 3.16 0 0 0 .12-.37 2 2 0 0 1 .12-.37 3.47 3.47 0 0 0 .23-.82 2.36 2.36 0 0 0 .24-.59l.15-.66a68.33 68.33 0 0 1 1.78-4.33c.633-1.4 1.347-2.79 2.14-4.17.15-.33.31-.66.47-1l.47-1 1.25-.16c.36 0 .75-.13 1.17-.23a.63.63 0 0 0 .45.11zm-7.51 3c-.31.65-.61 1.32-.9 2a.87.87 0 0 1-.14.58 1.3 1.3 0 0 0-.21.55 15.43 15.43 0 0 0-.73 1.92c-.19.65-.42 1.41-.68 2.27a.44.44 0 0 1-.16-.18.52.52 0 0 0-.16-.18 4.48 4.48 0 0 0-.64-1 9.09 9.09 0 0 1-.72-1 2 2 0 0 1-.32-.51.57.57 0 0 0-.51-.31 4 4 0 0 1-.33-.55 1.4 1.4 0 0 0-.37-.47 1 1 0 0 0-.43-.58c-.37-.37-.73-.73-1.08-1.1-.35-.37-.7-.76-1-1.17a7.64 7.64 0 0 1-1.26-1.14 2.8 2.8 0 0 0 .12-.33 3.11 3.11 0 0 1 .12-.3l.41-.13.45-.1a19.84 19.84 0 0 1 2.09-.29c.72-.07 1.43-.15 2.14-.26a5.32 5.32 0 0 0 1.42 0 8.86 8.86 0 0 1 1.63-.08c.173.079.36.12.55.12a.42.42 0 0 0 .25 0 .51.51 0 0 1 .25 0l.57.16a3 3 0 0 0 .57.11l-.93 1.98v-.01zM200.73 129.49a1.32 1.32 0 0 1-.06-.39c-.28-.68-.55-1.43-.8-2.25a10.78 10.78 0 0 1-.45-2.49c0-.16-.1-.32-.14-.51a1.28 1.28 0 0 1 0-.47.87.87 0 0 1-.25-.74c0-.26.08-.53.14-.82.06-.29.1-.45.15-.65.05-.2.11-.41.16-.64.05-.23 0-.26.08-.39a.85.85 0 0 0 0-.32.53.53 0 0 0-.22-.17 1.68 1.68 0 0 0-.39-.16 1.33 1.33 0 0 0-.45 0 .55.55 0 0 0-.39.18 1.19 1.19 0 0 1-.37.27 1.45 1.45 0 0 0-.37.24 2.29 2.29 0 0 1-.69.64c-.304.208-.54.5-.68.84a.43.43 0 0 0 .11.41.42.42 0 0 1 .08.45.56.56 0 0 1-.12.18l-.15.18-.29.5-.34.55c-.15.24-.38.55-.68.94-.15.2-.31.42-.47.62h-.06a4.8 4.8 0 0 0-1.31.35 1.9 1.9 0 0 1-1.23.12 1.4 1.4 0 0 0-.77 0 3.11 3.11 0 0 1-.64.15 1 1 0 0 1-.35-.06 1.9 1.9 0 0 0-.36-.09 1.34 1.34 0 0 0-.49 0 .81.81 0 0 1-.41 0l-.37-.1-.37-.14a.61.61 0 0 0-.16-.31 1.43 1.43 0 0 0-.23-.2.93.93 0 0 1-.26-.43 1.23 1.23 0 0 0-.21-.43.56.56 0 0 0-.2-.12.45.45 0 0 1-.19-.11 5 5 0 0 0-.86-.82 2.36 2.36 0 0 0-.43-.41 1 1 0 0 0-.63-.18 1.27 1.27 0 0 0-.59.08c-.26.08-.35.22-.27.43a1.09 1.09 0 0 1-.39.08h-.47l-.69.13a2.32 2.32 0 0 0-.6.22l-.77.35a6.61 6.61 0 0 0-.72.39l-.23.16a.73.73 0 0 0-.2.19 7.79 7.79 0 0 1-.7.63 6.28 6.28 0 0 0-.67.59 5.14 5.14 0 0 0-.43.51l-.63.66a6.29 6.29 0 0 0-.54.7 2.52 2.52 0 0 0-.28.44c-.08.15-.15.3-.23.43-.08.13-.11.34-.16.56a4.47 4.47 0 0 1-.31.84 1.65 1.65 0 0 0-.18.73v.72a3 3 0 0 1 0 .79 2 2 0 0 0 0 .74c.047.227.107.487.18.78.06.29.12.58.17.86.153.359.416.66.75.86.334.208.648.446.94.71.19.042.368.128.52.25a.77.77 0 0 0 .57.14 5.08 5.08 0 0 0 1.18.55 2.44 2.44 0 0 0 1.29 0 3 3 0 0 0 .9-.4c.28-.18.54-.34.78-.47a2 2 0 0 1 .31-.39 1 1 0 0 0 .47-.43 2.82 2.82 0 0 0 .88-.74l.77-1a3.71 3.71 0 0 1 .48-.55 1.34 1.34 0 0 0 .38-.62 1.45 1.45 0 0 0 .43-.69c.077-.265.21-.51.39-.72a.6.6 0 0 1 .1-.35c.06-.11.12-.2.17-.28a1.36 1.36 0 0 0 .1-.37 2.58 2.58 0 0 1 .06-.37l.23-.47a1.94 1.94 0 0 0 .12-.7 1.51 1.51 0 0 1 .16-.71 1.42 1.42 0 0 1 .45-.08 1.26 1.26 0 0 0 .45-.08c.28.08.57.12.86.12a2.3 2.3 0 0 1 .82.16l.29-.12a2.23 2.23 0 0 0 .53-.31c.51-.1 1-.17 1.47-.24a4.55 4.55 0 0 0-.45.87c-.11.13-.27.33-.49.62l-.69.92c-.23.33-.46.63-.7.92a7.21 7.21 0 0 1-.51.59c-.1.15-.29.43-.57.82-.28.39-.56.81-.88 1.25-.32.44-.6.87-.86 1.27a4.65 4.65 0 0 0-.47.88.81.81 0 0 0-.33.43 2.07 2.07 0 0 1-.18.47c.04.084.074.17.1.26.043.12.07.244.08.37.01.125.03.249.06.37a.56.56 0 0 0 .08.22c.32.006.631-.1.88-.3a2.28 2.28 0 0 0 .6-.68 5.85 5.85 0 0 1 .42-.63l.74-1 .74-1 .41-.59.45-.61.73-1c.26-.33.51-.65.76-1l.53-.65a2.9 2.9 0 0 1 .43-.49 2.9 2.9 0 0 0 .43-.49 7.5 7.5 0 0 0 .49-.58l.72-.94c.26-.34.51-.66.75-.94.24-.28.4-.49.5-.59a1 1 0 0 1 .18.66 2.61 2.61 0 0 0 .06.71c.045.095.099.185.16.27a.86.86 0 0 1 .11.32c.05.23.05.47 0 .7a1.2 1.2 0 0 0 .1.71c.108.347.253.682.43 1a2.54 2.54 0 0 1 .31 1.41c0 .13-.06.25-.08.35a3.78 3.78 0 0 1-.55 1.1 1 1 0 0 1-.31.08.76.76 0 0 0-.32.11 3.44 3.44 0 0 0-.41-.35 2.12 2.12 0 0 1-.41-.39 1.77 1.77 0 0 1-.27-.53.93.93 0 0 0-.35-.45.29.29 0 0 0 0-.25 2.3 2.3 0 0 1-.07-.26c0-.13.12-.28.21-.47a.5.5 0 0 0 .06-.43l-.23-.19a.59.59 0 0 0-.26 0 .3.3 0 0 0-.25.08 1.12 1.12 0 0 0-.34.45.93.93 0 0 1-.29.41 1 1 0 0 0-.49 1c.04.4.06.77.06 1.11.005.08.005.16 0 .24a.9.9 0 0 0 .14.43 2 2 0 0 1 .19.84c.002.284.042.567.12.84.05.207.131.406.24.59.137.288.24.59.31.9a.91.91 0 0 0 .19.13c.074.03.121.1.12.18.279.038.55.122.8.25.262.122.557.158.84.1a.91.91 0 0 0 .32-.06 2.47 2.47 0 0 1 .35-.1.82.82 0 0 1 .49 0 .8.8 0 0 0 .53 0c.28-.118.502-.34.62-.62a4.28 4.28 0 0 1 .36-.71 1.89 1.89 0 0 0 .23-.35c.05-.1.1-.23.16-.39a3.7 3.7 0 0 1 .39-.9c.21-.78.43-1.58.66-2.41a6.54 6.54 0 0 0 .24-2.48c-.05-.07-.1-.2-.14-.33zm-15.4-.82a1.83 1.83 0 0 1-.23.9.12.12 0 0 0 0 .11s-.07.15-.25.36a2.29 2.29 0 0 0-.16.35 1.33 1.33 0 0 1-.2.35c-.21.37-.43.72-.68 1.08l-.69 1a3.72 3.72 0 0 0-.78.55 1.65 1.65 0 0 1-.9.43h-.23c-.11 0-.3 0-.59-.19l-.71-.2a.87.87 0 0 1-.5-.35 1.6 1.6 0 0 1-.18-.35c-.07-.16-.12-.3-.18-.43a1 1 0 0 1-.15-.28c-.06-.13-.09-.23-.12-.31a3.23 3.23 0 0 1 .1-.75 6.32 6.32 0 0 0 .13-.82 4.12 4.12 0 0 0 .08-.45c.05-.223.13-.439.24-.64.04-.21.103-.415.19-.61.08-.17.17-.36.28-.57.05-.178.12-.35.21-.51l.26-.43a4.2 4.2 0 0 1 1.09-1l.8-.49a1.42 1.42 0 0 1 1-.14l.43.08a.66.66 0 0 1 .39.19.38.38 0 0 1 .14.14c.133.166.284.317.45.45.188.274.327.578.41.9a6.1 6.1 0 0 0 .33.94c-.017.23-.01.461.02.69zM244.54 127.1a.75.75 0 0 1-.26.27.39.39 0 0 0-.17.28.42.42 0 0 0-.28.17 1 1 0 0 1-.19.26c-.09.09-.19.166-.3.23a.72.72 0 0 0-.25.32l-1 .62-.92.63a1 1 0 0 1-.15.19 1.08 1.08 0 0 0-.16.2 1.25 1.25 0 0 0-.45.33 1.31 1.31 0 0 1-.41.34l-.71.43a2.75 2.75 0 0 1-.82.72 4.71 4.71 0 0 0-1 .88.94.94 0 0 1-.18.12.9.9 0 0 0-.22.11l-.21.18a1 1 0 0 1-.29.18l-.36.35a2.12 2.12 0 0 1-.39.31h-.12a.93.93 0 0 0-.31.14.39.39 0 0 1-.25-.12 1.53 1.53 0 0 1-.22-.23 1 1 0 0 1-.13-.45 1.87 1.87 0 0 0-.1-.45c.102-.208.14-.44.11-.67a2.06 2.06 0 0 1 0-.66l.16-.53c.05-.174.09-.351.12-.53.13-.63.25-1.25.37-1.86.12-.61.24-1.18.37-1.7a3.78 3.78 0 0 0 .9-1 4.69 4.69 0 0 1 .86-1 23.26 23.26 0 0 1 1.43-2c.51-.63 1-1.28 1.43-2 .43-.72.75-1.08 1.15-1.59.4-.51.81-1 1.2-1.58a3.83 3.83 0 0 1 .29-.7 2.81 2.81 0 0 0 .25-.79.3.3 0 0 0 .14-.25.34.34 0 0 1 .14-.26 2.8 2.8 0 0 1 .31-.86 1.94 1.94 0 0 0 .24-1c.05-.21.11-.44.19-.69.08-.25.14-.45.2-.61a1.56 1.56 0 0 0 0-.37.94.94 0 0 1 0-.37c.13-.73.24-1.47.35-2.23.102-.779.13-1.566.08-2.35a4.6 4.6 0 0 0-.18-.49c-.06-.14-.14-.28-.21-.41a2.24 2.24 0 0 0-.79-.08.86.86 0 0 0-.45.28c-.14.15-.27.3-.37.43-.313.313-.613.647-.9 1a7.74 7.74 0 0 0-.78 1l-1.06 1.49c-.34.47-.65.94-.94 1.41a.83.83 0 0 0-.23.27c0 .11-.11.21-.16.32l-.47.58a2.53 2.53 0 0 0-.29.63 3 3 0 0 1-.29.63.76.76 0 0 1-.22.25.33.33 0 0 0-.14.29c-.08.13-.15.26-.23.37a1.63 1.63 0 0 0-.2.42 1.37 1.37 0 0 0-.23.43c-.06.15-.11.31-.16.47-.21.49-.4 1-.59 1.48-.19.48-.37 1-.58 1.57a3.39 3.39 0 0 0-.26.7c-.06.26-.13.52-.21.78a3.21 3.21 0 0 1-.26.73c-.11.25-.21.48-.29.68-.08.2-.14.47-.2.71a1.65 1.65 0 0 1-.27.62 7.24 7.24 0 0 1-.25.71 2.93 2.93 0 0 0-.22.74c-.31.71-.62 1.45-.92 2.23a13.86 13.86 0 0 0-.59 2.08 4.51 4.51 0 0 1-.88.74 1 1 0 0 0-.25.16l-.53.31-.16.16-.15.15a3.43 3.43 0 0 0-.45.32 2.45 2.45 0 0 1-.49.27 3.19 3.19 0 0 1-2.15 1.09.75.75 0 0 1-.28-.5 1.52 1.52 0 0 0-.19-.59c0-.29.1-.61.15-1a6 6 0 0 0 .08-1c0-.28.05-.56.08-.84.03-.28.07-.55.12-.84a3.75 3.75 0 0 0 0-.59 1.17 1.17 0 0 1 .06-.54 1 1 0 0 1 .09-.32l.14-.27a1 1 0 0 1 .24-.51.93.93 0 0 0 .07-.47v-.31c0-.26-.19-.46-.58-.59a.45.45 0 0 0-.2.06.53.53 0 0 1-.23.06 3.29 3.29 0 0 1-.75.06 2.49 2.49 0 0 0-.62 0 4.48 4.48 0 0 0-.65-.79l-.76-.7-1-.27a1.08 1.08 0 0 0-1.06.27l-.39.31a2 2 0 0 1-.47.28 9.93 9.93 0 0 1-1.76 1.25 5.48 5.48 0 0 0-1.64 1.37l-.43.37a1.8 1.8 0 0 0-.35.45.59.59 0 0 0-.3.23 1.21 1.21 0 0 1-.21.28c-.16.16-.32.3-.49.45a2.34 2.34 0 0 0-.45.49 2.3 2.3 0 0 1-.28.23 1 1 0 0 0-.23.24.52.52 0 0 0-.12.19.68.68 0 0 1-.12.24 1.53 1.53 0 0 0-.31.39 4.84 4.84 0 0 0-.23.61h-.08a3.09 3.09 0 0 1-.67.43l-.33.28-.45.23a5.85 5.85 0 0 0-.53.37c-.14.12-.31.25-.49.38a1 1 0 0 0-.27.29c0 .06-.25.15-.67.25a.92.92 0 0 0-.43.28 2.39 2.39 0 0 1-.39.39.84.84 0 0 1-.45.12 2 2 0 0 0-.53.07 1.19 1.19 0 0 0-.47.3.59.59 0 0 1-.5.21.81.81 0 0 1-.38-.08l-.37-.15a1.23 1.23 0 0 0-.12-.37c0-.12-.1-.26-.15-.41a3 3 0 0 0-.2-.4 1.11 1.11 0 0 1 0-.74c0-.08.05-.15.08-.21s0-.14.08-.22a1.89 1.89 0 0 0 .1-.41c.01-.14.04-.279.09-.41.06-.13.12-.27.2-.41a3.75 3.75 0 0 0 .23-.49.43.43 0 0 0 0-.22.29.29 0 0 1 .08-.21 8 8 0 0 1 .41-.72 3.85 3.85 0 0 0 .37-.73c.08-.21.15-.41.22-.61s.12-.39.18-.6c.2-.52.37-1 .5-1.49.132-.464.345-.9.63-1.29a2.17 2.17 0 0 1 .29-.88 2 2 0 0 0 .3-.76 9.6 9.6 0 0 0 1-1.43c.303-.51.637-1 1-1.47a1.55 1.55 0 0 1 .28-.61 4.93 4.93 0 0 0 .51-1c.202-.16.346-.38.41-.63a1.22 1.22 0 0 1 .61-.38h1.46l1.2-.06c.39 0 .8 0 1.23-.08l1.55-.14 1-.08h.9c.23.111.5.111.73 0a3.91 3.91 0 0 1 .57-.3 1.88 1.88 0 0 1 1.15-.17c.41.02.821-.037 1.21-.17a.56.56 0 0 1 .34-.26l.52-.13c0-.06 0-.08.1-.08s.11-.17.14-.51a.36.36 0 0 1 .08-.12 1 1 0 0 0-.08-.43.77.77 0 0 0-.63-.25h-.7a.33.33 0 0 0-.24 0l-.27.07-.92.08h-1a2.85 2.85 0 0 1-.49 0 2 2 0 0 0-.49 0c-.54 0-1.05.11-1.5.18l-1.55.21a5.54 5.54 0 0 1-.78.1 3.11 3.11 0 0 1-.61 0l-.64-.06c-.24 0-.53-.06-.86-.11a5.57 5.57 0 0 0 .25-.53c.09-.22.18-.41.25-.57a.34.34 0 0 0 0-.18c0-.06.09-.2.28-.41.19-.21.1-.35.15-.51.05-.16.13-.43.24-.82.05-.13.1-.25.14-.37a1 1 0 0 0-.08-.8 1.92 1.92 0 0 1-.22-.39.57.57 0 0 1 0-.34.54.54 0 0 0 0-.37.88.88 0 0 1-.05-.76c.089-.23.106-.48.05-.72a1.55 1.55 0 0 0-.19-.36 4.12 4.12 0 0 0-.31-.35.26.26 0 0 0 0-.29.3.3 0 0 1-.1-.22c-.24-.15-.41-.17-.53 0a.48.48 0 0 1-.45.16 9.6 9.6 0 0 1-1 1.33c-.15.42-.28.8-.37 1.15a5.3 5.3 0 0 1-.41 1.08 3.36 3.36 0 0 0-.33.47l-.37.63a5 5 0 0 1-.55 1.09 9 9 0 0 1-.41 1.12c-.173.38-.323.75-.45 1.11a2.46 2.46 0 0 1-1.28.06 5.14 5.14 0 0 0-1.23-.1 1.69 1.69 0 0 1-.55 0 2.09 2.09 0 0 0-.5 0l-.34.08a.61.61 0 0 1-.33 0 .59.59 0 0 1-.23 0 1 1 0 0 0-.24 0 3.38 3.38 0 0 0-1.11.12 2.78 2.78 0 0 1-1.16.08 1.06 1.06 0 0 1-.62.14 2.29 2.29 0 0 0-.71 0 1 1 0 0 1-.19.16.23.23 0 0 0-.12.2c.057.196.156.377.29.53a3 3 0 0 0 .39.31l.45.29c.16.11.41.3.75.59a.4.4 0 0 1 .37 0 1 1 0 0 0 .53.06c.165.001.33.022.49.06a4 4 0 0 0 .52.09c.496.03.994.03 1.49 0l.92-.17a2.06 2.06 0 0 1 1 0 3 3 0 0 1-.39.84 1.75 1.75 0 0 0-.32.84 1.36 1.36 0 0 0-.31.78c-.29.55-.55 1.11-.8 1.68-.25.57-.52 1.14-.8 1.69s-.47.9-.71 1.39c-.23.478-.4.981-.51 1.5a.31.31 0 0 0-.21.26 1.36 1.36 0 0 1-.1.37c-.1.29-.2.55-.27.78-.07.23-.16.5-.24.79a5.2 5.2 0 0 1-.33 1 8.23 8.23 0 0 0-.37 1c0 .21-.11.41-.16.59a1.92 1.92 0 0 0-.08.51 1.5 1.5 0 0 0 0 .58c0 .16.11.34.16.55.05.21 0 .26.06.37a.75.75 0 0 0 .1.33 5.11 5.11 0 0 0 .76 1.49c.32.45.62.89.88 1.33a2 2 0 0 0 .41.32c.202.112.393.242.57.39.12.218.287.406.49.55l.6.39.22-.08a1 1 0 0 1 .21-.08 6.5 6.5 0 0 0 1-.51c.4-.23.72-.43 1-.59.293-.17.55-.394.76-.66a2.15 2.15 0 0 1 .84-.63c.13-.15.282-.282.45-.39.17-.1.35-.22.53-.35a2.06 2.06 0 0 0 .33-.33c.1-.12.19-.23.3-.34l.25-.22a.69.69 0 0 0 0 .13c.056.17.096.343.12.52 0 .24.1.45.14.63.037.202.094.4.17.59.202.4.461.766.77 1.09a2 2 0 0 0 1.11.59c.203.097.414.178.63.24.242.065.477.155.7.27a2 2 0 0 0 .72 0 .87.87 0 0 0 .53-.29.23.23 0 0 0 .2 0 2.05 2.05 0 0 0 .23-.2c.6-.5 1.2-1 1.78-1.43a20.94 20.94 0 0 0 1.67-1.43 2 2 0 0 0 .7-.51 2.75 2.75 0 0 1 .59-.5c.1.44.21.86.31 1.25.103.364.276.703.51 1 .158.098.292.232.39.39.252.057.5.133.74.23.277.108.578.136.87.08a.71.71 0 0 0 .37-.1l.33-.17a3.7 3.7 0 0 0 .59-.38 3.11 3.11 0 0 1 .51-.33l.48-.55a4.2 4.2 0 0 1 .57-.47 1.05 1.05 0 0 1 .28-.31c.1-.082.203-.159.31-.23.265-.32.56-.615.88-.88.322-.277.63-.57.92-.88v.39c.022.153.06.304.11.45.06.14.11.28.16.41.048.112.081.23.1.35.01.105.03.209.06.31.018.165.044.328.08.49.02.14.057.278.11.41.13.45.25.87.36 1.28.1.397.27.772.5 1.11a.54.54 0 0 1 .2 0 1.1 1.1 0 0 1 .31.2c.189.081.387.138.59.17.221.041.45.02.66-.06a.75.75 0 0 0 .45-.33c.1-.148.23-.274.38-.37a3.82 3.82 0 0 0 .82-.47 3.76 3.76 0 0 1 .78-.47c.16-.21.31-.4.47-.59l.47-.55.35-.27a3 3 0 0 0 .35-.31c.13-.13.26-.24.38-.34l.37-.29a6.78 6.78 0 0 0 .74-.68c.24-.25.502-.482.78-.69a6.56 6.56 0 0 0 .36-.39 4.1 4.1 0 0 1 .35-.39 9.12 9.12 0 0 1 1.19-1.35 7.51 7.51 0 0 0 1.16-1.39.4.4 0 0 0 .25-.22 4.36 4.36 0 0 1 .37-.56.49.49 0 0 0-.13-.32 1.37 1.37 0 0 0-.58-.26zm-5.42-8.49a38.73 38.73 0 0 1 2.21-4.19.68.68 0 0 1 .06-.47c.06-.1.15-.26.25-.47a4 4 0 0 1 .26-.62.7.7 0 0 1 .49-.36 1.58 1.58 0 0 1-.16.85 1 1 0 0 0 0 .84 9.86 9.86 0 0 1-1 2.6 21.14 21.14 0 0 0-1.21 2.48 12.17 12.17 0 0 0-1.43 1.88 10.76 10.76 0 0 1-1.49 1.85l2.02-4.39zm-17.83 13.87a29.34 29.34 0 0 1-2.58 2.21l-.45.12a.54.54 0 0 1-.49-.08.83.83 0 0 1-.29-.6 6 6 0 0 1-.06-.77c0-.29-.041-.58-.12-.86a2.58 2.58 0 0 1 0-.39v-.39a2.89 2.89 0 0 0 0-.43.89.89 0 0 1 .06-.39l.16-.22a2.22 2.22 0 0 0 .16-.25c.07-.16.16-.33.25-.51a2.92 2.92 0 0 1 .29-.47 2.23 2.23 0 0 1 .38-.37c.14-.12.28-.24.41-.37a17.41 17.41 0 0 1 1.64-1.47 9.74 9.74 0 0 1 1.92-1.2.88.88 0 0 0 .37 0 .72.72 0 0 1 .37.06 5.16 5.16 0 0 1 .18 1.78 13.14 13.14 0 0 0 0 2 14.7 14.7 0 0 1-2.2 2.6zM140.2 120.55l-1.1-.32a3.84 3.84 0 0 1-.9-.35 2.32 2.32 0 0 0-.73-.29 6 6 0 0 0-1.09-.07 28 28 0 0 1-3.09-.35 34.53 34.53 0 0 0-4.55 0c-1.45.09-2.9.14-4.36.14-1.09 0-2.15 0-3.18-.07-1.03-.07-2.09-.07-3.18-.07h-6.18c-3.88 0-7.85.06-11.91 0h-11.9c-2.187 0-4.31.023-6.37.07-2.06.047-4.12.07-6.18.07a156.42 156.42 0 0 0-6.63 0c-2.48.047-4.753.047-6.82 0l-2.54-.11h-2l-4.18.14c-1.46 0-2.85.12-4.18.21-1.33.09-2.7.14-4.1.14-1.4 0-2.75 0-4.09.14-2.78.1-5.39.2-7.81.32s-4.85.23-7.27.32c-1.46 0-3 .08-4.55.11-1.55.03-3 0-4.36-.11l-3.95-.31a33.73 33.73 0 0 0-3.91-.07H6c-.88.01-1.76.08-2.63.21a3.47 3.47 0 0 0-1.37.71.94.94 0 0 0-.45.46c-.06.16-.57.46-1.55.88-.11.19 0 .42.37.68.37.26.67.48.91.67.6.38 1.21.73 1.82 1.06a13.18 13.18 0 0 0 4.72.78c2.06.053 4 .123 5.82.21 1.45-.09 2.93-.14 4.45-.14H23c2.18-.053 4.483-.087 6.91-.1 2.42 0 4.84-.06 7.27-.11a396.77 396.77 0 0 1 10.54 0c3.51 0 7.09 0 10.73-.07 3.64-.07 7.2-.11 10.72 0 3.52.11 7 .06 10.36 0a85.967 85.967 0 0 0 2.37-.18c.72-.07 2.05-.15 4-.25l3.28-.25 3.45-.24a104.72 104.72 0 0 1 12.54-.11c4.24.213 8.543.297 12.91.25a301.85 301.85 0 0 0 9.82-.32c3.273-.16 6.363-.29 9.27-.39.24-.187.36-.327.36-.42 0-.093.12-.213.36-.36a8 8 0 0 1 1.37-.53 4.74 4.74 0 0 0 1-.39 2.09 2.09 0 0 0 .36-1.13.44.44 0 0 0-.42-.46zM81.11 32.73c.16.62.3 1.17.41 1.65.11.48.27 1 .47 1.66.16.188.289.4.38.63.1.22.39.4.88.53.187.124.38.238.58.34l.63.34c.116.025.23.058.34.1l.34.09c.26.07.53.15.8.25.26.09.528.153.8.19.113.017.227.017.34 0a1 1 0 0 1 .29-.05 3.9 3.9 0 0 1 .59 0 2 2 0 0 0 .58-.1.69.69 0 0 0 .24-.07c.236-.097.48-.17.73-.22a7.17 7.17 0 0 0 1.94-1.27 2 2 0 0 1 .51-.38c.18-.098.35-.212.51-.34a11.92 11.92 0 0 0 1.07-.8c.32-.28.65-.55 1-.81.87-.74 1.76-1.45 2.65-2.13A25.55 25.55 0 0 0 99.71 30a26.63 26.63 0 0 0 1.79-2.08c.55-.71 1.09-1.47 1.6-2.28l.47-.64a4 4 0 0 0 .36-.58 5.72 5.72 0 0 1 .29-.53c.1-.26.2-.53.32-.8s.21-.53.31-.76a2.47 2.47 0 0 0 .15-.43 2.59 2.59 0 0 1 .48-.73.66.66 0 0 0 .12-.34.78.78 0 0 1 .13-.34c.25-.55.5-1.11.72-1.67a7.43 7.43 0 0 1 .83-1.53c.26-.42.5-.84.73-1.24a8.7 8.7 0 0 0 .63-1.63 2.76 2.76 0 0 1 .24-1.09c.166-.38.28-.78.34-1.19a2.92 2.92 0 0 0 0-.54 2.89 2.89 0 0 1 0-.53c.06-.48.14-.95.22-1.38.08-.43.15-.88.22-1.34a1.38 1.38 0 0 0 .17-.53 2.49 2.49 0 0 1 .12-.63c.06-.16.12-.33.17-.49a1.59 1.59 0 0 0 .07-.48 3.3 3.3 0 0 0-.19-1.1c-.13-.34-.26-.68-.39-1a.41.41 0 0 0-.17-.46 2 2 0 0 1-.46-.36l-.17-.3a3.81 3.81 0 0 0-.51-.37 2.46 2.46 0 0 1-.34-.29 2.82 2.82 0 0 0-.39-.29l-.82-.46a7.23 7.23 0 0 0-.88-.41l-.51-.2a3.16 3.16 0 0 0-.9-.09l-.29-.1a.69.69 0 0 0-.29-.05 4 4 0 0 0-1.53.19 6.51 6.51 0 0 1-1.48.34 6.83 6.83 0 0 1-1.12.3 9.47 9.47 0 0 0-1.11.24 5.45 5.45 0 0 0-1 .29c-.34.13-.68.27-1 .44l-2.11 1a10.91 10.91 0 0 0-2 1.21c-.383.256-.78.49-1.19.7L90 6.13a4.24 4.24 0 0 0-.93.63l-.87.78a16 16 0 0 1-.87.72c-.3.23-.62.46-1 .69l-1.15 1.33a5.92 5.92 0 0 0-.94 1.63 1.1 1.1 0 0 0 .53.48 3.34 3.34 0 0 0 2-.73 2.54 2.54 0 0 0 .58-.55 2.63 2.63 0 0 1 .59-.56 15.37 15.37 0 0 1 2.23-1.19c.78-.34 1.6-.66 2.47-.95-.247.487-.497.947-.75 1.38-.24.44-.49.94-.75 1.48-.13.26-.26.54-.39.83-.13.29-.24.58-.34.87a1.05 1.05 0 0 1-.14.34l-.2.3a11.76 11.76 0 0 0-.77 1.65c-.17.32-.32.66-.47 1a3.85 3.85 0 0 1-.51.92 6.56 6.56 0 0 1-.72 1.48 6.19 6.19 0 0 0-.73 1.48A5.93 5.93 0 0 0 86 21.3l-.9 1.53c-.32.52-.62 1-.9 1.58-.28.58-.54 1.07-.8 1.62-.06.17-.14.34-.22.54-.08.2-.17.39-.26.58a1 1 0 0 0-.17.24 1.21 1.21 0 0 1-.17.25A7 7 0 0 0 82 29a7 7 0 0 1-.61 1.38c-.09.2-.19.39-.29.59a1.9 1.9 0 0 0-.19.53 1.53 1.53 0 0 0 0 .61l.2.62zm3.4 2.6v-.44a1.84 1.84 0 0 1 0-.41.6.6 0 0 1 .24-.34 1.78 1.78 0 0 1 .12-.61c.08-.21.16-.41.22-.6s.13-.4.2-.61c.103-.31.23-.61.38-.9a5.54 5.54 0 0 0 .25-.68 5 5 0 0 1 .24-.68c.06-.19.15-.4.24-.63.09-.23.21-.45.34-.68a3 3 0 0 1 .27-.58 4.62 4.62 0 0 0 .31-.63c.1-.26.18-.49.25-.7a3.22 3.22 0 0 1 .24-.61 1.66 1.66 0 0 1 .22-.34l.22-.29c.16-.29.3-.59.43-.88a7.11 7.11 0 0 1 .44-.82 1.79 1.79 0 0 1 .27-.46 3.19 3.19 0 0 0 .36-.76 3.9 3.9 0 0 1 .46-.63 4.16 4.16 0 0 0 .51-.68 9.2 9.2 0 0 1 .32-1c.11-.29.22-.58.31-.87a1.78 1.78 0 0 0 .13-.54 1.52 1.52 0 0 1 .12-.53c.063-.229.15-.45.26-.66a6.54 6.54 0 0 0 .32-.65 1.94 1.94 0 0 1 .32-.7c.14-.209.26-.43.36-.66a8.36 8.36 0 0 1 .82-1.6 5.48 5.48 0 0 1 .47-.9 9.08 9.08 0 0 0 .51-.95l.65-1.23c.21-.41.45-.82.7-1.24a9.52 9.52 0 0 0 .61-1.24 3.72 3.72 0 0 1 .8-1.19 1.69 1.69 0 0 1 .12-.27 2.1 2.1 0 0 0 .13-.26 11.27 11.27 0 0 1 1.55-1.02l.78-.39a6.11 6.11 0 0 1 .82-.34c.42-.16.83-.32 1.24-.46a4.49 4.49 0 0 1 1.29-.27h.7c.234.003.468.02.7.05.16.149.285.33.37.53a3 3 0 0 0 .36.63c.082.128.14.27.17.42 0 .11.06.3.12.55.002.184.036.367.1.54a.71.71 0 0 1 .07.22c.07.18.161.35.27.51.056.23.056.47 0 .7 0 .28-.09.54-.12.8a1.74 1.74 0 0 0 0 .39c.03.145.03.295 0 .44-.06.48-.1.98-.12 1.5a2.56 2.56 0 0 1-.41 1.36.77.77 0 0 0-.61.66 1.69 1.69 0 0 1-.46.89A9.81 9.81 0 0 1 104 16a8.1 8.1 0 0 1-.85 1.33 13.49 13.49 0 0 1-1.28 2.58c-.51.77-1 1.58-1.44 2.42a6.41 6.41 0 0 0-.7 1 10.08 10.08 0 0 1-.7 1 5.47 5.47 0 0 1-.64.71 2.28 2.28 0 0 0-.53.8 2.88 2.88 0 0 0-.87.83 4.54 4.54 0 0 1-.83.87 7.88 7.88 0 0 1-.51.73c-.18.22-.36.45-.56.68a3 3 0 0 1-.68.43 5.62 5.62 0 0 1-1.36 1.39c-.51.37-1 .77-1.5 1.19a4.25 4.25 0 0 0-1.53.9 9.39 9.39 0 0 1-1.38 1 1.6 1.6 0 0 0-1 .41 3.13 3.13 0 0 1-.85.61 2.75 2.75 0 0 0-1.14.39 3.18 3.18 0 0 1-1.24.39.5.5 0 0 0 .1-.33zM109.22 23.85a5.42 5.42 0 0 0-.53.63c-.26.26-.52.53-.78.83a7.37 7.37 0 0 0-.68.87 3.2 3.2 0 0 0-.34.53c-.1.2-.19.38-.29.54a5.7 5.7 0 0 0-.19.7A6.48 6.48 0 0 1 106 29a1.89 1.89 0 0 0-.22.89v.9a3.5 3.5 0 0 1 0 1 2.63 2.63 0 0 0 0 .93c.07.29.14.61.22 1 .08.39.16.71.22 1.06.183.447.506.822.92 1.07.417.256.809.55 1.17.88.248.036.484.129.69.27a.92.92 0 0 0 .71.17 6 6 0 0 0 1.45.68 3 3 0 0 0 1.61.05 3.77 3.77 0 0 0 1.11-.49c.36-.22.68-.42 1-.58a2.27 2.27 0 0 1 .39-.48 1.3 1.3 0 0 0 .58-.54 3.6 3.6 0 0 0 1.1-.92c.27-.36.59-.78.94-1.26a5.14 5.14 0 0 1 .61-.68 1.73 1.73 0 0 0 .46-.78 1.65 1.65 0 0 0 .53-.85 2.32 2.32 0 0 1 .49-.9.8.8 0 0 1 .12-.43c.08-.13.15-.25.22-.34a2.24 2.24 0 0 0 .12-.46c0-.15 0-.3.07-.47l.3-.58a2.65 2.65 0 0 0 .14-.87 1.93 1.93 0 0 1 .2-.88 1.86 1.86 0 0 1 .55-.09c.191 0 .38-.034.56-.1a4 4 0 0 0 1.07.15 2.68 2.68 0 0 1 1 .19l.36-.15a2.79 2.79 0 0 0 .66-.38c.68-.13 1.33-.24 2-.32h.06a4.24 4.24 0 0 0-.23.59c-.07.21-.13.43-.2.66-.07.23-.31.71-.44 1.07-.13.36-.24.71-.34 1.06a2 2 0 0 1-.34.56 2.3 2.3 0 0 0-.33.56 2.13 2.13 0 0 1-.27.46 2.4 2.4 0 0 0-.27.46 2 2 0 0 0-.22.56 3.07 3.07 0 0 1-.36.8 3.45 3.45 0 0 0-.32 1 2.76 2.76 0 0 1-.31 1c-.07.1-.12.19-.17.27a3 3 0 0 0-.41 1.22c0 .32-.07.66-.1 1a.93.93 0 0 1 .34.29c.18.197.393.36.63.48a1.94 1.94 0 0 0 1.58-.07 7.92 7.92 0 0 0 1.23-.85 8 8 0 0 1 .68-1c.3-.35.59-.72.9-1.09.31-.37.62-.72.92-1 .27-.275.523-.566.76-.87.205-.09.394-.21.56-.36.14-.15.29-.3.46-.46a2 2 0 0 1 .31-.27 2.55 2.55 0 0 0 .37-.32 5.71 5.71 0 0 0 .68-.6c.187-.213.397-.433.63-.66.19-.23.37-.42.53-.58a6.17 6.17 0 0 1 .58-.49c.26-.19.51-.37.76-.53.25-.16.49-.34.75-.54a9.84 9.84 0 0 0 1-1 4.6 4.6 0 0 1 1.1-.87c.09.07.12.24.09.53-.03.29-.08.63-.14 1-.06.37-.15.79-.25 1.19-.1.4-.16.72-.19.95a14.31 14.31 0 0 0-.32 2c0 .65-.07 1.33-.07 2a.65.65 0 0 1 .12.48 1.18 1.18 0 0 0 .08.54.76.76 0 0 0 .26.24c.229.151.449.315.66.49a.58.58 0 0 0 .48 0 .48.48 0 0 1 .49 0 .47.47 0 0 1 .27-.08.72.72 0 0 0 .26 0 5.08 5.08 0 0 1 .95-.51 9.25 9.25 0 0 0 1-.51l1.36-1c.432-.31.886-.588 1.36-.83l.49-.29.48-.29a3.87 3.87 0 0 0 .37-.28A11.06 11.06 0 0 1 145 34a5.48 5.48 0 0 0 .29 1.8c.18.53.566.966 1.07 1.21l.73.54c.238.185.521.302.82.34l.88.1a7.12 7.12 0 0 0 2.4-.47 3.68 3.68 0 0 0 2-1.57c-.067.06-.067.02 0-.12a3.05 3.05 0 0 1 .25-.54c.11-.21.25-.44.41-.7a3.72 3.72 0 0 1 .53-.68 3.69 3.69 0 0 1 .9-1.73c.57-.72 1.13-1.51 1.68-2.35.38-.61.78-1.29 1.19-2a8.11 8.11 0 0 1 1.32-1.83c-.07.38-.13.9-.2 1.55s-.09 1.13-.09 1.46a3.63 3.63 0 0 0 .26 1.62c.18.31.4.71.66 1.19.15.273.281.557.39.85a3.7 3.7 0 0 0 .39.8c.252.45.536.881.85 1.29a3.8 3.8 0 0 0 .68.7c.182.15.384.276.6.37l.68.26A.44.44 0 0 0 164 36a.47.47 0 0 1 .32-.1h.19a6.16 6.16 0 0 0 1.67-1.46 7.22 7.22 0 0 1 .83-.83c0 .12 0 .24.07.37.091.386.205.767.34 1.14.088.27.202.531.34.78a2.1 2.1 0 0 0 .54.53 5.3 5.3 0 0 1 .63.54 5.24 5.24 0 0 0 1.16 1 6.52 6.52 0 0 0 1.46.58 3 3 0 0 0 .61.1 1.89 1.89 0 0 0 .51-.1 4 4 0 0 1 .48-.07c.16 0 .34 0 .54-.08a11 11 0 0 1 1.89-1 16.25 16.25 0 0 0 1.94-1 6.37 6.37 0 0 0 1-.58c.3-.22.59-.45.85-.68l.31-.19.32-.2a2 2 0 0 0 .39-.38.34.34 0 0 1 .43-.1 11.18 11.18 0 0 0 1.46-1.07 4.07 4.07 0 0 1 .51-.51c.21-.18.38-.33.51-.46.36-.388.693-.8 1-1.23a6 6 0 0 1 1.09-1 3.22 3.22 0 0 0 1.12-.83 4.73 4.73 0 0 1 1-.87.72.72 0 0 0 .07-1 1 1 0 0 0-.75-.46 1.5 1.5 0 0 0-1 .39c-.459.371-.89.776-1.29 1.21a8.17 8.17 0 0 1-1.09 1.27 9.63 9.63 0 0 1-1.29 1.06 13.12 13.12 0 0 1-2.28 1.8 12.83 12.83 0 0 1-2.72 1.31 3.7 3.7 0 0 1-.9.39 9.22 9.22 0 0 1-1 .24c-.2.032-.395.09-.58.17a3 3 0 0 1-.54.17 6.16 6.16 0 0 1-1.43 0 12.49 12.49 0 0 1-1.38-.22 2.15 2.15 0 0 1-.25-1.22 2.4 2.4 0 0 0-.19-1.21 4 4 0 0 1 .65-.17 4.65 4.65 0 0 0 .71-.17c.238-.11.466-.24.68-.39a2.63 2.63 0 0 1 .63-.34c.35-.16.7-.3 1-.41a3.78 3.78 0 0 0 1-.51A1.35 1.35 0 0 0 176 30l.43-.27a2.36 2.36 0 0 0 1-.39c.29-.19.59-.37.88-.53.29-.16.63-.58 1-1a4.81 4.81 0 0 0 .31-.51 7.2 7.2 0 0 1 .51-.75 2.2 2.2 0 0 0 .24-.56c.07-.21.13-.41.2-.61.213-.78.357-1.576.43-2.38a1.57 1.57 0 0 0 0-.61c0-.213-.03-.563-.09-1.05a1.52 1.52 0 0 0-.15-.41 5.6 5.6 0 0 1-.29-.8 1 1 0 0 0-.29-.27 1.5 1.5 0 0 1-.44-.55 1.13 1.13 0 0 0-.94-.25 1.7 1.7 0 0 1-1-.14 4.16 4.16 0 0 0-2.11.65 11.77 11.77 0 0 1-1.87 1 8.7 8.7 0 0 1-1.21 1.09 3.48 3.48 0 0 0-1 1.19 1.19 1.19 0 0 0-.37.32 4.27 4.27 0 0 0-.26.41 1.64 1.64 0 0 0-.49.41c-.23.24-.47.52-.73.83l-.7.82a2.36 2.36 0 0 1-.41.41 1.82 1.82 0 0 1-.15.47c-.1.24-.22.5-.36.8l-.42.8a3.3 3.3 0 0 1-.24.41 4.92 4.92 0 0 1-.07.68c-.05.32-.11.67-.2 1 0 .13 0 .25-.08.37a1.93 1.93 0 0 1-.67.34 5.85 5.85 0 0 0-.51.43c-.21.2-.44.39-.68.59a6.87 6.87 0 0 1-.73.51 1.33 1.33 0 0 1-.55.22.62.62 0 0 1-.25 0 1.4 1.4 0 0 0-.48 0 2.18 2.18 0 0 0-.46-.61 1 1 0 0 1-.37-.7.78.78 0 0 1 .1-.25c-.07-.74-.11-1.52-.15-2.35-.04-.83-.05-1.66-.05-2.5v-.92-1.12a1.17 1.17 0 0 0-.09-.39 1.22 1.22 0 0 1 .29-.73l.87-2.08c.2-.33.4-.64.61-1a4.49 4.49 0 0 0 .51-1 22.42 22.42 0 0 1 1.92-2.81 19.21 19.21 0 0 0 2-3.06c.36-.907.74-1.797 1.14-2.67.41-.87.84-1.73 1.29-2.57l1.65-3.45c.099-.51.15-1.03.15-1.55a5.36 5.36 0 0 1 0-.59 2 2 0 0 0 0-.77 1.93 1.93 0 0 0-.44-.76 2.24 2.24 0 0 0-1.07-.55 3.36 3.36 0 0 0-.75 1 8 8 0 0 1-1 1.34 10.37 10.37 0 0 1-1.48 1.72 11 11 0 0 0-1.63 2c-.06.09-.28.47-.65 1.14-.37.67-.79 1.47-1.26 2.42s-.94 2-1.41 3.14a17.12 17.12 0 0 0-1 3.2 7 7 0 0 0-.53 1.53 11.87 11.87 0 0 1-.49 1.63 2.26 2.26 0 0 1-.21-.49 1.29 1.29 0 0 0-.27-.46A1.53 1.53 0 0 0 160 18a2.35 2.35 0 0 0-.9-.14 2.86 2.86 0 0 0-1 .19 7.58 7.58 0 0 0-1 .47l-.92.5a2.33 2.33 0 0 1-.78.3 11.31 11.31 0 0 1-2 1.79c-.83.62-1.7 1.31-2.6 2.09a26.23 26.23 0 0 0-2.6 2.57 10.62 10.62 0 0 0-1.94 3.23c0 .08 0 .17-.08.26-.25.15-.56.34-.94.61-.38.27-1 .52-1.6.78-.245.25-.52.47-.82.65a3.85 3.85 0 0 1-1 .42.69.69 0 0 1-.32 0 .69.69 0 0 0-.32 0 .14.14 0 0 0-.12.05s-.2.07-.55.1a3 3 0 0 1 0-1 6.89 6.89 0 0 1 .14-1.05c0-.16.07-.3.1-.43a2.55 2.55 0 0 1 .15-.44v-.12-.42c0-.26.19-.68.38-1.26s.38-1.19.56-1.82c.18-.63.33-1.21.44-1.75a2.2 2.2 0 0 0 .07-1 2.27 2.27 0 0 0-1.16-1.31 1.17 1.17 0 0 0-.61 0l-.61.17a6 6 0 0 1-.63.17 6 6 0 0 0-.63.22 3 3 0 0 0-.9.59 4.06 4.06 0 0 1-.85.63 4.06 4.06 0 0 0-.65.48l-.56.49a11.2 11.2 0 0 0-2 2.13 2.28 2.28 0 0 0-.17.3l-.17.29a2 2 0 0 1-.8.8 2.36 2.36 0 0 0-.85.75 6.68 6.68 0 0 0-1.36 1.21 5.61 5.61 0 0 0-.58.78 2 2 0 0 1-.64.63c.1-.26.18-.47.25-.63.053-.15.135-.29.24-.41a2.91 2.91 0 0 0 .29-.41c.1-.17.21-.38.34-.64.26-.423.497-.86.71-1.31.21-.45.41-.9.6-1.36l.2-.48c.06-.16.13-.32.19-.49.26-.45.55-.92.87-1.4a4.69 4.69 0 0 0 .68-1.56 1.78 1.78 0 0 0 .68-.8 1 1 0 0 0 0-.9 1.82 1.82 0 0 0-.39-.53 5.35 5.35 0 0 0-.93-.68.34.34 0 0 0-.34-.17 2.69 2.69 0 0 0-.41.1 2.56 2.56 0 0 0-.43.17.51.51 0 0 1-.42 0 .91.91 0 0 0-.63.43 4.9 4.9 0 0 1-.53.73 2 2 0 0 0-.37.61 4.9 4.9 0 0 1-.26.56c-.1.16-.19.32-.27.48-.08.16-.17.33-.27.49a2.86 2.86 0 0 0-.31.46c-.05.08-.1.18-.15.28a6.26 6.26 0 0 0-1.31.37 2.29 2.29 0 0 1-1.53.15 1.76 1.76 0 0 0-.95 0 4 4 0 0 1-.8.19 1.14 1.14 0 0 1-.43-.07 2.55 2.55 0 0 0-.44-.12 2.07 2.07 0 0 0-.61 0 1 1 0 0 1-.51 0 3.45 3.45 0 0 1-.46-.12l-.46-.17a.8.8 0 0 0-.19-.39 1.58 1.58 0 0 0-.3-.24 1.14 1.14 0 0 1-.31-.54 1.4 1.4 0 0 0-.27-.53.58.58 0 0 0-.24-.15.57.57 0 0 1-.24-.14 6.69 6.69 0 0 0-1.07-1 2.6 2.6 0 0 0-.54-.51 1.21 1.21 0 0 0-.77-.22 1.66 1.66 0 0 0-.73.1c-.32.09-.44.27-.34.53a1.19 1.19 0 0 1-.49.1h-.58l-.85.17a3.53 3.53 0 0 0-.75.26l-1 .44c-.27.13-.57.29-.9.49l-.29.19a1.09 1.09 0 0 0-.24.24 7.64 7.64 0 0 1-.87.78 9.63 9.63 0 0 0-.83.59zm64.28 2.43c.26-.26.52-.54.78-.83a5.25 5.25 0 0 0 .68-1 5.38 5.38 0 0 0 .77-.73c.23-.26.46-.53.68-.82a2.62 2.62 0 0 0 .61-.27c.23-.124.49-.182.75-.17a1.5 1.5 0 0 0 .17.46c.085.16.142.332.17.51.024.35-.06.699-.24 1a3.34 3.34 0 0 0-.39 1l-.53.73a3.5 3.5 0 0 1-.59.63l-1.26 1.26a3.91 3.91 0 0 1-.75.42 5 5 0 0 0-.8.41l-.92.44a1.75 1.75 0 0 1-1.07.14.83.83 0 0 1-.05-.63c.06-.19.15-.37.27-.53a4.3 4.3 0 0 1 .38-.49 2.74 2.74 0 0 0 .37-.49c.19-.16.37-.31.53-.46a2 2 0 0 0 .44-.58zm-22.58 3.06a3 3 0 0 1 .47-1.56c.29-.56.624-1.095 1-1.6a4.46 4.46 0 0 1 1-1 3.15 3.15 0 0 0 .92-1.07l1-.92c.29-.26.63-.58 1-.95a3.28 3.28 0 0 1 1-.7l1.22-.78.24-.12a.74.74 0 0 1 .34-.07.88.88 0 0 1 .19.58 1 1 0 0 1-.09.44c-.07.13-.13.27-.2.43l-1.26 2a12.22 12.22 0 0 0-1.49 1.98c-.45.7-.85 1.35-1.21 2a6.85 6.85 0 0 1-.61 1.21c-.296.486-.63.948-1 1.38-.37.47-.76.93-1.16 1.36a6.89 6.89 0 0 1-1.19 1.05h-.61c-.27 0-.41-.23-.41-.65a3.38 3.38 0 0 1 .29-1.41c.23-.517.418-1.052.56-1.6zm-40.73-.81a2.93 2.93 0 0 1 .29-.8 3.87 3.87 0 0 1 .25-.75c.09-.21.21-.44.34-.7a2.53 2.53 0 0 1 .26-.63l.32-.54A5.4 5.4 0 0 1 113 23.9l1-.61a1.76 1.76 0 0 1 1.29-.17l.53.1a.84.84 0 0 1 .49.24c.07.04.13.1.17.17.167.206.354.393.56.56.23.343.401.722.51 1.12.103.398.24.786.41 1.16-.03.26-.03.52 0 .78a2.32 2.32 0 0 1-.29 1.11.24.24 0 0 0 0 .15s-.09.18-.31.44c-.07.13-.13.27-.2.43a1.55 1.55 0 0 1-.24.44c-.26.45-.54.9-.85 1.34-.31.44-.59.85-.85 1.23a5.06 5.06 0 0 0-1 .68 2.15 2.15 0 0 1-1.11.54 1 1 0 0 0-.3 0 1.26 1.26 0 0 1-.72-.25l-.88-.24a1 1 0 0 1-.63-.44 2.74 2.74 0 0 1-.22-.43l-.22-.54a.92.92 0 0 1-.19-.34c-.07-.16-.11-.29-.15-.39.006-.31.05-.62.13-.92.074-.33.13-.664.17-1 .03-.13.06-.31.09-.53zM199.86 32.18l.2.51c.055.139.095.283.12.43.014.132.037.262.07.39 0 .23.06.43.1.61.03.174.077.345.14.51.16.55.31 1.07.44 1.58.127.494.34.96.63 1.38a.57.57 0 0 1 .24 0c.143.056.276.137.39.24.231.109.477.183.73.22.278.048.564.024.83-.07a1 1 0 0 0 .55-.42 1.67 1.67 0 0 1 .46-.46 4.53 4.53 0 0 0 1-.58 4.78 4.78 0 0 1 1-.58c.19-.26.38-.5.58-.73l.58-.68.44-.34a4.6 4.6 0 0 0 .43-.39 5.27 5.27 0 0 1 .47-.41l.46-.37a8.13 8.13 0 0 0 .92-.85l.1-.08v.06c0 .122-.017.243-.05.36a.36.36 0 0 0 .05.32.65.65 0 0 0 0 .51c.068.211.115.43.14.65.07.3.12.56.17.78.054.249.128.493.22.73a5.6 5.6 0 0 0 .95 1.36 2.45 2.45 0 0 0 1.38.73c.25.123.51.22.78.29.302.08.594.194.87.34.298.055.602.055.9 0a1.13 1.13 0 0 0 .66-.36h.24a2 2 0 0 0 .29-.24c.74-.62 1.48-1.21 2.21-1.77s1.41-1.16 2.06-1.78a2.51 2.51 0 0 0 .88-.63 3 3 0 0 1 .72-.63c.13.55.26 1.07.39 1.55.118.463.332.896.63 1.27.194.125.36.289.49.48.313.073.621.17.92.29.34.135.711.17 1.07.1a1 1 0 0 0 .46-.12l.41-.22a3.51 3.51 0 0 0 .52-.33 1 1 0 0 0-.35.48 3 3 0 0 1-.22.58c.054.099.097.203.13.31a2.3 2.3 0 0 1 .09.47 3.4 3.4 0 0 0 .08.46.65.65 0 0 0 .09.26 1.7 1.7 0 0 0 1.09-.36 3.23 3.23 0 0 0 .76-.85 6.42 6.42 0 0 1 .51-.78c.27-.38.58-.8.92-1.26.34-.46.65-.87.92-1.26s.45-.63.51-.73l.56-.75c.27-.37.57-.77.9-1.19.33-.42.64-.82.94-1.19l.12-.14a.37.37 0 0 1 .25-.1c.09 0 .22-.14.39-.43a1.78 1.78 0 0 1 .36-.37c.14-.1.26-.22.36-.36a.12.12 0 0 0 .05-.1c.065-.14.15-.272.25-.39a1.86 1.86 0 0 0 .25-.51l.26-.31.89-1.17c.33-.42.63-.81.93-1.16.3-.35.5-.6.63-.73.163.241.24.53.22.82-.024.295 0 .592.07.88.057.117.12.23.19.34a.88.88 0 0 1 .15.39 2.28 2.28 0 0 1 0 .87c-.054.295-.012.6.12.87.13.456.31.895.54 1.31.216.406.348.852.39 1.31a2.47 2.47 0 0 1-.05.44c0 .16-.07.31-.1.44a4.45 4.45 0 0 1-.68 1.36 1.17 1.17 0 0 1-.39.09.88.88 0 0 0-.39.15 4.23 4.23 0 0 0-.51-.44 3.74 3.74 0 0 1-.51-.48 2.6 2.6 0 0 1-.34-.66 1.12 1.12 0 0 0-.43-.56.41.41 0 0 0 0-.31 1.52 1.52 0 0 1-.1-.32 5.43 5.43 0 0 1 .27-.58.63.63 0 0 0 .07-.53l-.29-.25a.85.85 0 0 0-.32 0 .44.44 0 0 0-.31.09 1.38 1.38 0 0 0-.42.56 1.19 1.19 0 0 1-.36.51 1.3 1.3 0 0 0-.61 1.24c.05.5.08 1 .08 1.38.01.096.01.194 0 .29.007.192.066.379.17.54a2.5 2.5 0 0 1 .24 1c.007.338.057.675.15 1 .06.253.159.496.29.72.176.356.307.732.39 1.12.072.067.153.124.24.17a.23.23 0 0 1 .15.22 3.2 3.2 0 0 1 1 .31c.312.144.661.19 1 .13a1.09 1.09 0 0 0 .39-.08 2.21 2.21 0 0 1 .43-.12c.199-.06.411-.06.61 0a1 1 0 0 0 .65 0c.35-.15.63-.43.78-.78a5.89 5.89 0 0 1 .44-.87 2.74 2.74 0 0 0 .29-.44 4 4 0 0 0 .19-.48 5.48 5.48 0 0 1 .49-1.12c.26-1 .53-2 .82-3a8.31 8.31 0 0 0 .3-3.09 3.06 3.06 0 0 1-.17-.48 1.67 1.67 0 0 1-.08-.49c-.353-.84-.687-1.77-1-2.79a13.23 13.23 0 0 1-.56-3.08 5.79 5.79 0 0 1-.17-.63 1.33 1.33 0 0 1 0-.59 1.09 1.09 0 0 1-.32-.92c0-.32.1-.66.17-1 .07-.34.13-.56.19-.8s.13-.51.2-.8c.07-.29.06-.32.1-.49a.8.8 0 0 0 0-.38.72.72 0 0 0-.27-.22 2.39 2.39 0 0 0-.49-.2 1.73 1.73 0 0 0-.56 0 .71.71 0 0 0-.48.21 1.42 1.42 0 0 1-.46.34 2.67 2.67 0 0 0-.46.29 2.93 2.93 0 0 1-.85.81 2.32 2.32 0 0 0-.85 1 .51.51 0 0 0 .14.51.54.54 0 0 1 .1.56 1.08 1.08 0 0 1-.15.22 2 2 0 0 1-.11.24l-.36.63-.42.68a14.3 14.3 0 0 1-.85 1.17l-1.1 1.52c-.39.53-.74 1.05-1.07 1.55a6.44 6.44 0 0 0-.63 1.19l-.6.78c-.28.36-.56.74-.85 1.14-.29.4-.59.79-.88 1.14l-.15.19a4.88 4.88 0 0 1-.65.39l-.2.2-.19.19a4.13 4.13 0 0 0-.56.39 2.37 2.37 0 0 1-.61.34 4.15 4.15 0 0 1-1.11.9 4.91 4.91 0 0 1-1.56.46 1 1 0 0 1-.34-.63 1.91 1.91 0 0 0-.24-.73c.07-.36.13-.76.2-1.21a9.48 9.48 0 0 0 .09-1.22c0-.35.07-.7.1-1a10.2 10.2 0 0 1 .15-1.05 3.39 3.39 0 0 0 0-.72 1.8 1.8 0 0 1 .07-.68 2 2 0 0 1 .12-.39l.17-.34a1.23 1.23 0 0 1 .3-.63 1.23 1.23 0 0 0 .09-.58l.05-.39c0-.33-.24-.57-.73-.73a.56.56 0 0 0-.24.07.62.62 0 0 1-.29.07 3.7 3.7 0 0 1-.92.08 3.94 3.94 0 0 0-.78 0 5.29 5.29 0 0 0-.8-1c-.31-.29-.62-.58-1-.87L222 20.6a1.35 1.35 0 0 0-1.31.34c-.16.13-.32.26-.49.38a2.48 2.48 0 0 1-.58.35 12 12 0 0 1-2.18 1.55 6.91 6.91 0 0 0-2 1.7c-.2.16-.38.31-.54.46a2.12 2.12 0 0 0-.43.56.69.69 0 0 0-.37.29 2.34 2.34 0 0 1-.26.34c-.2.19-.4.38-.61.56a3.19 3.19 0 0 0-.56.6l-.18.16-.14.09c-.37.26-.75.51-1.14.77a1.81 1.81 0 0 1-.21.25 1.27 1.27 0 0 0-.2.24 1.42 1.42 0 0 0-.55.41 1.52 1.52 0 0 1-.51.41c-.26.17-.55.34-.88.54a3.44 3.44 0 0 1-1 .9 5.8 5.8 0 0 0-1.31 1.09.64.64 0 0 1-.22.14l-.26.15a1.44 1.44 0 0 0-.27.22 1.18 1.18 0 0 1-.36.22l-.44.43a2.15 2.15 0 0 1-.49.39.21.21 0 0 1-.14 0s-.16 0-.39.17a.51.51 0 0 1-.32-.15 1.36 1.36 0 0 1-.26-.29 1.15 1.15 0 0 1-.17-.56 2.21 2.21 0 0 0-.12-.56 1.54 1.54 0 0 0 .14-.82 2.29 2.29 0 0 1 0-.83c.06-.22.13-.44.19-.65a3.52 3.52 0 0 0 .15-.66c.16-.78.32-1.54.46-2.31s.3-1.46.46-2.11a4.74 4.74 0 0 0 1.12-1.21c.3-.438.664-.83 1.08-1.16a27 27 0 0 1 1.77-2.43c.633-.78 1.223-1.59 1.77-2.43.45-.68.93-1.33 1.43-2 .5-.67 1-1.28 1.48-2a7.2 7.2 0 0 1 .37-.88 3.56 3.56 0 0 0 .31-1A.38.38 0 0 0 214 12a.46.46 0 0 1 .17-.32 4 4 0 0 1 .39-1.07c.2-.371.3-.788.29-1.21.07-.26.15-.54.25-.85.1-.31.17-.56.24-.75a1.45 1.45 0 0 0 0-.46 1.45 1.45 0 0 1 0-.46c.16-.91.3-1.83.43-2.77a14 14 0 0 0 .1-2.91 3.92 3.92 0 0 0-.22-.61c-.08-.18-.17-.35-.26-.51a2.64 2.64 0 0 0-1-.1 1 1 0 0 0-.55.34 6.37 6.37 0 0 0-.46.54c-.39.38-.77.78-1.12 1.19a10 10 0 0 0-1 1.28l-1.31 1.85c-.42.58-.81 1.16-1.17 1.74a1 1 0 0 0-.29.34l-.19.39-.59.73a3.4 3.4 0 0 0-.36.78 3.15 3.15 0 0 1-.36.77.94.94 0 0 1-.27.32.4.4 0 0 0-.17.36l-.29.47a2.12 2.12 0 0 0-.25.5 2 2 0 0 0-.29.54l-.19.58c-.26.62-.5 1.23-.73 1.85-.23.62-.47 1.26-.73 1.94a4.24 4.24 0 0 0-.31.87c-.08.33-.17.65-.27 1a4.23 4.23 0 0 1-.32.9c-.14.31-.26.59-.36.85a7 7 0 0 0-.24.87 2.13 2.13 0 0 1-.34.78 6.83 6.83 0 0 1-.32.88 4.6 4.6 0 0 0-.27.92c-.38.87-.76 1.79-1.14 2.77a17.82 17.82 0 0 0-.85 3.05c-.06.364-.1.731-.12 1.1a5.57 5.57 0 0 0 .08 1.14c.067.194.15.38.25.56zm16.78-4.42l.51-.46a21.81 21.81 0 0 1 2-1.82 13.29 13.29 0 0 1 2.41-1.48c.152.031.308.031.46 0a.88.88 0 0 1 .47.07 6.63 6.63 0 0 1 .21 2.21 18.31 18.31 0 0 0 0 2.45 17.86 17.86 0 0 1-2.64 3.27 38.87 38.87 0 0 1-3.21 2.74l-.55.15a.67.67 0 0 1-.61-.1 1 1 0 0 1-.37-.75 9.44 9.44 0 0 1-.07-1 4.29 4.29 0 0 0-.14-1.06 2.09 2.09 0 0 1-.05-.49V31a4.33 4.33 0 0 0 0-.53 1.08 1.08 0 0 1 .08-.49 2.48 2.48 0 0 1 .19-.26 1.8 1.8 0 0 0 .19-.32c.1-.19.21-.4.32-.63a3.2 3.2 0 0 1 .36-.58 2.93 2.93 0 0 1 .44-.43zm-8.06-13a49.13 49.13 0 0 1 2.74-5.19 1 1 0 0 1 .07-.59c.08-.13.19-.32.32-.58a5.76 5.76 0 0 1 .31-.78.85.85 0 0 1 .61-.43h.05a1.81 1.81 0 0 1-.2 1 1.31 1.31 0 0 0 0 1 12.51 12.51 0 0 1-1.27 3.22 26 26 0 0 0-1.5 3.09 13.53 13.53 0 0 0-1.77 2.33 14 14 0 0 1-1.82 2.33l2.46-5.39v-.01z"/>
    </g>
</svg>
