<svg xmlns="http://www.w3.org/2000/svg" width="150" height="148" viewBox="0 0 150 148">
    <g fill="#000" fill-rule="nonzero">
        <path d="M147.193 132.354h-15.218l-3.695-35.097 4.09 6.133 1.012 5.072a8.346 8.346 0 0 0 4.219 5.715 8.335 8.335 0 0 0 7.09.412 8.39 8.39 0 0 0 4.713-4.793 8.391 8.391 0 0 0-.337-6.713l-2.136-4.274c-.007-.017-.022-.027-.032-.042-.005-.013-.005-.025-.01-.038L131.92 71.286a2.51 2.51 0 0 0-1.262-1.122l-6.761-2.705c5.074-4.121 8.328-10.403 8.328-17.433 0-3.76-.99-7.462-2.812-10.775l-1.287-12.878c4.016-1.702 6.593-5.042 6.593-8.78 0-5.371-5.331-9.764-11.982-9.971A14.953 14.953 0 0 0 109.77.13a14.953 14.953 0 0 0-12.965 7.492c-6.651.207-11.983 4.6-11.983 9.971 0 3.738 2.577 7.078 6.594 8.78L90.13 39.25c-1.821 3.313-2.812 7.015-2.812 10.775 0 7.03 3.253 13.312 8.33 17.431l-6.76 2.704c-.4.16-.752.422-1.021.759l-8.42 10.525-10.174-8.138-2.717-4.528c-.461-.77-1.05-1.424-1.686-2.02v-6.754c0-3.248-2.093-5.993-4.99-7.025V42.54h2.495c4.126 0 7.484-3.358 7.484-7.484V20.088c0-4.126-3.358-7.484-7.484-7.484h-9.98c-4.126 0-7.484 3.358-7.484 7.484v14.969c0 4.126 3.358 7.484 7.485 7.484h2.495V52.98c-2.897 1.032-4.99 3.777-4.99 7.025v9.99c-.624 1.484-.903 3.103-.701 4.76a9.333 9.333 0 0 0 4.483 6.897l4.72 2.832L74.99 98.996a7.452 7.452 0 0 0 9.72.115l6.972-5.813-4.113 39.056H43.953l2.927-5.853c4.67-1.803 8.006-6.311 8.006-11.61v-5.449c2.896-1.033 4.99-3.777 4.99-7.025 0-4.127-3.359-7.485-7.485-7.485H7.484C3.358 94.932 0 98.29 0 102.417c0 3.248 2.093 5.992 4.99 7.025v5.449c0 5.299 3.335 9.807 8.005 11.61l2.927 5.853H2.495A2.496 2.496 0 0 0 0 134.85v9.98a2.496 2.496 0 0 0 2.495 2.494h144.698a2.496 2.496 0 0 0 2.495-2.495v-9.979a2.496 2.496 0 0 0-2.495-2.495zM54.886 37.552H52.39a2.499 2.499 0 0 1-2.495-2.495V20.088a2.499 2.499 0 0 1 2.495-2.495h2.495v19.959zm89.718 67.759c.426.853.476 1.816.137 2.709a3.344 3.344 0 0 1-1.901 1.933 3.369 3.369 0 0 1-2.86-.167 3.372 3.372 0 0 1-1.703-2.305l-.644-3.22 5.73-1.433 1.24 2.483zM127.97 74.462l12.993 23.82-5.144 1.286-8.772-13.158-3.623-13.766 4.546 1.818zm-5.476 15.48l4.465 42.412H92.585l4.463-42.411h25.447zM98.04 84.954l3.677-13.983c.1.037.202.065.302.1.501.184 1.005.361 1.522.51.197.058.396.103.594.153.476.125.953.245 1.44.337.244.047.49.075.735.112.452.07.9.145 1.36.19.322.03.646.032.968.05.379.02.75.057 1.132.057.382 0 .754-.037 1.133-.057.324-.018.646-.02.968-.05.459-.043.908-.118 1.36-.19.244-.037.491-.065.736-.112.486-.092.963-.215 1.44-.337.196-.052.396-.095.593-.152.516-.15 1.023-.324 1.522-.512.1-.037.202-.062.302-.1l3.68 13.984H98.04zm-8.228-67.36c0-2.704 3.428-4.99 7.484-4.99.145 0 .282.018.422.033l.402.038c1.05.062 2.058-.524 2.482-1.505a9.971 9.971 0 0 1 9.168-6.05 9.977 9.977 0 0 1 9.171 6.05 2.517 2.517 0 0 0 2.483 1.505l.401-.038c.137-.015.275-.032.42-.032 4.056 0 7.484 2.285 7.484 4.99 0 1.993-2.016 3.899-4.903 4.637a2.494 2.494 0 0 0-1.866 2.665l1.517 15.15H95.064l1.515-15.148a2.494 2.494 0 0 0-1.866-2.664c-2.884-.741-4.9-2.647-4.9-4.64zm2.495 32.433c0-1.692.252-3.373.736-4.99h33.452c.487 1.617.739 3.298.739 4.99 0 6.925-4.064 12.905-9.922 15.727a17.37 17.37 0 0 1-1.731.721l-.083.03a17.33 17.33 0 0 1-11.46 0l-.083-.03a17.62 17.62 0 0 1-1.731-.721c-5.853-2.822-9.917-8.802-9.917-15.727zM59.875 17.593h2.495a2.499 2.499 0 0 1 2.495 2.495v14.969a2.499 2.499 0 0 1-2.495 2.495h-2.495V17.593zM57.38 57.51a2.499 2.499 0 0 1 2.495 2.495v4.336c-.015-.003-.032-.003-.047-.005-.06-.008-.112-.035-.172-.042-.137-.018-.272.007-.407-.005a9.382 9.382 0 0 0-1.297-.015c-.217.012-.432.012-.644.04a9.245 9.245 0 0 0-1.512.334 10.76 10.76 0 0 0-.623.21c-.095.034-.193.057-.285.094v-4.947h-.002a2.499 2.499 0 0 1 2.494-2.495zm-1.13 19.864a4.357 4.357 0 0 1-2.1-3.231c-.11-.88.072-1.741.461-2.507.01-.02.028-.033.038-.053.107-.204.214-.379.324-.541.135-.187.267-.377.432-.541.349-.352.755-.62 1.182-.826.035-.018.07-.04.105-.058.427-.192.88-.311 1.345-.359.035-.002.067-.007.102-.01.451-.037.908.003 1.357.105.047.01.095.02.14.032.466.125.92.317 1.337.602.012.007.027.012.04.02.501.349.938.795 1.265 1.34l1.943 3.24-4.73 4.73-3.24-1.943zm25.26 17.903a2.486 2.486 0 0 1-3.24-.038L63.522 82.336l4.019-4.02 10.73 8.585a2.492 2.492 0 0 0 3.505-.389l9.568-11.96 4.767-1.906-3.525 13.4-11.077 9.23zM7.484 104.91a2.499 2.499 0 0 1-2.494-2.494 2.499 2.499 0 0 1 2.494-2.495h44.907a2.499 2.499 0 0 1 2.495 2.495 2.499 2.499 0 0 1-2.495 2.494H7.484zm2.495 9.98v-4.99h39.917v4.99c0 4.126-3.358 7.484-7.484 7.484H17.464c-4.127 0-7.485-3.358-7.485-7.484zm30.89 12.474l-2.494 4.99h-5.943v-4.99h8.438zm-13.426 0v4.99H21.5l-2.495-4.99h8.438zm117.256 14.968H4.989v-4.99H144.7v4.99z"/>
        <path d="M117.256 99.922h-14.97a2.496 2.496 0 0 0-2.494 2.495v7.484c0 5.504 4.476 9.98 9.98 9.98 5.503 0 9.979-4.476 9.979-9.98v-7.484a2.496 2.496 0 0 0-2.495-2.495zm-2.495 9.979a4.995 4.995 0 0 1-4.99 4.99 4.995 4.995 0 0 1-4.99-4.99v-4.99h9.98v4.99zM27.443 74.974h4.99v12.474h-4.99zM39.917 79.963h4.99v9.979h-4.99zM14.969 79.963h4.99v9.979h-4.99zM27.443 64.995h4.99v4.99h-4.99zM14.969 69.984h4.99v4.99h-4.99zM39.917 69.984h4.99v4.99h-4.99z"/>
    </g>
</svg>
