<svg xmlns="http://www.w3.org/2000/svg" width="150" height="150" viewBox="0 0 150 150">
    <g fill="#000" fill-rule="nonzero">
        <path d="M147.385 69.945h-17.486V64.95c0-1.499-1-2.498-2.498-2.498v-4.996c1.498 0 2.498-.999 2.498-2.498 0-9.742-7.745-17.486-17.487-17.486-9.742 0-17.486 7.744-17.486 17.486 0 1.499.999 2.498 2.498 2.498v4.996c-1.499 0-2.498 1-2.498 2.498v4.996H65.199V54.957c0-7.245-3.497-13.99-9.492-18.236-1-.5-2.249-.5-2.998 0-5.995 4.247-14.24 4.247-20.234 0-1-.5-2.249-.5-2.998 0-5.995 4.247-9.492 10.992-9.492 18.236v14.988H2.498c-1.499 0-2.498 1-2.498 2.498v14.989c0 1.498 1 2.497 2.498 2.497v52.46c0 4.246 3.247 7.493 7.494 7.493H139.89c4.247 0 7.495-3.247 7.495-7.494V89.93c1.498 0 2.497-1 2.497-2.498V72.443c.001-1.498-.998-2.498-2.497-2.498zm-34.973-27.478c5.995 0 10.992 4.247 12.24 9.992h-24.48c1.249-5.746 6.245-9.992 12.24-9.992zm-9.992 14.988h19.984v4.996H102.42v-4.996zm-2.498 9.992h24.98v2.498h-24.98v-2.498zM42.467 45.964l4.247 4.496-4.247 7.245-4.247-7.245 4.247-4.496zM24.98 54.957c0-4.996 2.249-9.742 5.996-13.24a21.865 21.865 0 0 0 6.192 2.552l-3.944 3.944c-1 .749-1 1.998-.5 2.997l7.494 12.49c.5.75 1.25 1.25 2.248 1.25 1 0 1.749-.5 2.249-1.25l7.494-12.49c.5-.999.25-2.248-.5-2.998l-3.944-3.943a21.865 21.865 0 0 0 6.192-2.551c3.747 3.497 5.995 8.243 5.995 13.24v14.988H24.98V54.957zM4.996 74.941h139.891v9.993H4.997V74.94zm137.393 49.961H127.4c-1.499 0-2.498 1-2.498 2.498 0 1.5 1 2.498 2.498 2.498h14.989v4.996H127.4c-1.499 0-2.498 1-2.498 2.498 0 1.5 1 2.498 2.498 2.498h14.989v2.498c0 1.499-1 2.498-2.498 2.498H9.992c-1.499 0-2.498-1-2.498-2.498v-2.498h14.989c1.499 0 2.498-.999 2.498-2.498s-1-2.498-2.498-2.498H7.494v-4.996h14.988c1.5 0 2.498-.999 2.498-2.498s-.999-2.498-2.498-2.498H7.494V89.93h134.895v34.972zM42.467 34.973c9.742 0 17.486-7.744 17.486-17.487C59.953 7.744 52.21 0 42.467 0S24.98 7.744 24.98 17.486c0 9.743 7.744 17.487 17.487 17.487zm0-29.977c6.995 0 12.49 5.496 12.49 12.49 0 6.995-5.496 12.49-12.49 12.49s-12.49-5.495-12.49-12.49c0-6.994 5.495-12.49 12.49-12.49z"/>
        <path d="M72.443 139.89a22.389 22.389 0 0 0 22.483-22.482 22.389 22.389 0 0 0-22.483-22.482 22.389 22.389 0 0 0-22.482 22.482 22.389 22.389 0 0 0 22.482 22.483zm0-39.968c9.743 0 17.487 7.744 17.487 17.486 0 9.743-7.744 17.487-17.487 17.487-9.742 0-17.486-7.744-17.486-17.487 0-9.742 7.744-17.486 17.486-17.486z"/>
    </g>
</svg>
