<svg xmlns="http://www.w3.org/2000/svg" width="150" height="150" viewBox="0 0 150 150">
    <g fill="#000" fill-rule="nonzero">
        <path d="M84.897 95.098c0 13.783 11.173 24.956 24.955 24.956 13.782 0 24.955-11.173 24.955-24.956 0-13.782-11.173-24.955-24.955-24.955-13.776.015-24.94 11.18-24.955 24.955zm24.955-19.964c11.026 0 19.964 8.938 19.964 19.964 0 11.026-8.938 19.964-19.964 19.964-11.026 0-19.964-8.938-19.964-19.964.012-11.02 8.943-19.952 19.964-19.964zM95.592 145.01h28.522V150H95.592zM84.897 135.026h49.91v4.992h-49.91zM29.995 135.026h4.991v4.992h-4.991zM15.022 140.018h4.99v4.991h-4.99z"/>
        <path d="M30.244 120.984a189.004 189.004 0 0 0 24.01-73.867l23.209 23.07a2.491 2.491 0 0 0 2.15.694 2.491 2.491 0 0 0 1.83-1.347 24.362 24.362 0 0 0-4.572-28.157l-2.041-2.042h17.553a2.494 2.494 0 0 0 2.369-3.286 24.365 24.365 0 0 0-23.145-16.678h-3.244L80.826 6.836a2.495 2.495 0 0 0-.653-3.993A24.37 24.37 0 0 0 52 7.413l-2.383 2.383c-.777.782-1.499 1.616-2.163 2.496a23.978 23.978 0 0 0-2.145-2.496l-2.383-2.383a24.36 24.36 0 0 0-28.154-4.57 2.495 2.495 0 0 0-.653 3.993L26.596 19.37H23.32A24.364 24.364 0 0 0 .175 36.05a2.495 2.495 0 0 0 2.37 3.286H20.08l-2.04 2.042a24.364 24.364 0 0 0-4.574 28.157 2.495 2.495 0 0 0 3.993.654l21.613-21.485a135.258 135.258 0 0 1-26.092 65.952 93.114 93.114 0 0 0-10.186-2.075l-1.56-.158-.5 4.969 1.456.142c2.495.357 4.975.862 7.442 1.432-.5.627-.999 1.263-1.515 1.88l3.827 3.202a140.5 140.5 0 0 0 32.648-80.834l2.872-2.854 2.15 2.139a182.461 182.461 0 0 1-31.645 88.59l4.087 2.861c1.962-2.8 3.834-5.707 5.648-8.67A88.514 88.514 0 0 1 57.9 148.938l3.86-3.162a93.213 93.213 0 0 0-16.572-15.74H149.78v-4.99H37.794c-2.446-1.478-4.971-2.816-7.55-4.061zm48.05-57.013L51.925 37.756a19.25 19.25 0 0 1 19.051 4.766l2.383 2.384a19.376 19.376 0 0 1 4.933 19.065zm10.281-29.626H67.912A24.338 24.338 0 0 0 52.454 32.5a19.353 19.353 0 0 1 15.776-8.137h3.368a19.376 19.376 0 0 1 16.977 9.982zm-35.437-21.02l2.384-2.383a19.39 19.39 0 0 1 19.075-4.935L59.804 20.888a24.34 24.34 0 0 0-11.781 9.247 18.89 18.89 0 0 1 5.123-16.81h-.008zm-13.747-2.383l2.383 2.383a18.94 18.94 0 0 1 2.87 3.78 23.743 23.743 0 0 0-1.907 8.296 24.343 24.343 0 0 0-7.611-4.513L20.33 6.008a19.381 19.381 0 0 1 19.068 4.934h-.007zm-16.08 13.42h3.37a19.358 19.358 0 0 1 15.791 8.135 24.348 24.348 0 0 0-15.45 1.848H6.353a19.379 19.379 0 0 1 16.968-9.982h-.008zm-6.677 39.609a19.376 19.376 0 0 1 4.934-19.065l2.383-2.384a19.074 19.074 0 0 1 13.53-5.57c1.872.001 3.734.268 5.531.794L16.634 63.97z"/>
    </g>
</svg>
