<?xml version="1.0" encoding="UTF-8"?>
<svg width="20px" height="20px" viewBox="0 0 20 20" version="1.1" xmlns="http://www.w3.org/2000/svg" xmlns:xlink="http://www.w3.org/1999/xlink">
    <!-- Generator: sketchtool 53 (72520) - https://sketchapp.com -->
    <title>9554565E-3B9C-45D5-84F7-84F0E275D59D</title>
    <desc>Created with sketchtool.</desc>
    <g id="Page-1" stroke="none" stroke-width="1" fill="none" fill-rule="evenodd">
        <g id="Cotizar" transform="translate(-320.000000, -705.000000)" fill="#000000">
            <g id="icon/calendar" transform="translate(320.000000, 705.000000)">
                <g id="calendar">
                    <path d="M17.65625,1.5625 C18.9485938,1.5625 20,2.61390625 20,3.90625 L20,17.65625 C20,18.9485938 18.9485938,20 17.65625,20 L2.34375,20 C1.05140625,20 0,18.9485938 0,17.65625 L0,3.90625 C0,2.61390625 1.05140625,1.5625 2.34375,1.5625 L3.28125,1.5625 L3.28125,0 L4.84375,0 L4.84375,1.5625 L15.15625,1.5625 L15.15625,0 L16.71875,0 L16.71875,1.5625 L17.65625,1.5625 Z M18.4375,17.65625 L18.4375,7.34375 L1.5625,7.34375 L1.5625,17.65625 C1.5625,18.0870313 1.91296875,18.4375 2.34375,18.4375 L17.65625,18.4375 C18.0870313,18.4375 18.4375,18.0870313 18.4375,17.65625 Z M18.4375,5.78125 L18.4375,3.90625 C18.4375,3.47546875 18.0870313,3.125 17.65625,3.125 L16.71875,3.125 L16.71875,4.6875 L15.15625,4.6875 L15.15625,3.125 L4.84375,3.125 L4.84375,4.6875 L3.28125,4.6875 L3.28125,3.125 L2.34375,3.125 C1.91296875,3.125 1.5625,3.47546875 1.5625,3.90625 L1.5625,5.78125 L18.4375,5.78125 Z M2.96875,8.984375 L4.53125,8.984375 L4.53125,10.546875 L2.96875,10.546875 L2.96875,8.984375 Z M6.09375,8.984375 L7.65625,8.984375 L7.65625,10.546875 L6.09375,10.546875 L6.09375,8.984375 Z M9.21875,8.984375 L10.78125,8.984375 L10.78125,10.546875 L9.21875,10.546875 L9.21875,8.984375 Z M12.34375,8.984375 L13.90625,8.984375 L13.90625,10.546875 L12.34375,10.546875 L12.34375,8.984375 Z M15.46875,8.984375 L17.03125,8.984375 L17.03125,10.546875 L15.46875,10.546875 L15.46875,8.984375 Z M2.96875,12.109375 L4.53125,12.109375 L4.53125,13.671875 L2.96875,13.671875 L2.96875,12.109375 Z M6.09375,12.109375 L7.65625,12.109375 L7.65625,13.671875 L6.09375,13.671875 L6.09375,12.109375 Z M9.21875,12.109375 L10.78125,12.109375 L10.78125,13.671875 L9.21875,13.671875 L9.21875,12.109375 Z M12.34375,12.109375 L13.90625,12.109375 L13.90625,13.671875 L12.34375,13.671875 L12.34375,12.109375 Z M2.96875,15.234375 L4.53125,15.234375 L4.53125,16.796875 L2.96875,16.796875 L2.96875,15.234375 Z M6.09375,15.234375 L7.65625,15.234375 L7.65625,16.796875 L6.09375,16.796875 L6.09375,15.234375 Z M9.21875,15.234375 L10.78125,15.234375 L10.78125,16.796875 L9.21875,16.796875 L9.21875,15.234375 Z M12.34375,15.234375 L13.90625,15.234375 L13.90625,16.796875 L12.34375,16.796875 L12.34375,15.234375 Z M15.46875,12.109375 L17.03125,12.109375 L17.03125,13.671875 L15.46875,13.671875 L15.46875,12.109375 Z" id="Combined-Shape" fill-rule="nonzero"></path>
                </g>
            </g>
        </g>
    </g>
</svg>