<?xml version="1.0" encoding="UTF-8"?>
<svg width="149px" height="149px" viewBox="0 0 149 149" version="1.1" xmlns="http://www.w3.org/2000/svg" xmlns:xlink="http://www.w3.org/1999/xlink">
    <!-- Generator: sketchtool 53 (72520) - https://sketchapp.com -->
    <title>3606340F-7DB6-4D4D-914C-1E4E927FC9B2</title>
    <desc>Created with sketchtool.</desc>
    <g id="-" stroke="none" stroke-width="1" fill="none" fill-rule="evenodd">
        <g id="icon/facebook" fill="#FFFFFF" fill-rule="nonzero">
            <g id="facebook-logo-button">
                <path d="M74.478,0 C33.411,0 0,33.411 0,74.478 C0,115.542 33.411,148.956 74.478,148.956 C115.542,148.956 148.956,115.542 148.956,74.478 C148.956,33.411 115.548,0 74.478,0 Z M93,77.1 L80.883,77.1 C80.883,96.459 80.883,120.288 80.883,120.288 L62.928,120.288 C62.928,120.288 62.928,96.69 62.928,77.1 L54.393,77.1 L54.393,61.836 L62.928,61.836 L62.928,51.963 C62.928,44.892 66.288,33.843 81.048,33.843 L94.353,33.894 L94.353,48.711 C94.353,48.711 86.268,48.711 84.696,48.711 C83.124,48.711 80.889,49.497 80.889,52.869 L80.889,61.839 L94.569,61.839 L93,77.1 Z" id="Shape"></path>
            </g>
        </g>
    </g>
</svg>