<?xml version="1.0" encoding="UTF-8"?>
<svg width="150px" height="150px" viewBox="0 0 150 150" version="1.1" xmlns="http://www.w3.org/2000/svg" xmlns:xlink="http://www.w3.org/1999/xlink">
    <!-- Generator: sketchtool 53 (72520) - https://sketchapp.com -->
    <title>67D28619-1331-4214-8707-24A937562B64</title>
    <desc>Created with sketchtool.</desc>
    <g id="-" stroke="none" stroke-width="1" fill="none" fill-rule="evenodd">
        <g id="icon/instagram" fill="#FFFFFF" fill-rule="nonzero">
            <g id="instagram">
                <path d="M89.3554688,75 C89.3554688,82.9284668 82.9284668,89.3554688 75,89.3554688 C67.0715332,89.3554688 60.6445312,82.9284668 60.6445312,75 C60.6445312,67.0715332 67.0715332,60.6445312 75,60.6445312 C82.9284668,60.6445312 89.3554688,67.0715332 89.3554688,75 Z" id="Path"></path>
                <path d="M108.572388,49.6009828 C107.882309,47.7310181 106.781387,46.0384368 105.350876,44.6491242 C103.961563,43.2186126 102.270126,42.1176911 100.399017,41.4276123 C98.8815308,40.8382415 96.6018677,40.1367187 92.4030305,39.9456023 C87.8608705,39.7384644 86.4990234,39.6938323 75,39.6938323 C63.4998322,39.6938323 62.1379852,39.73732 57.5969695,39.944458 C53.3981323,40.1367187 51.1173249,40.8382415 49.6009828,41.4276123 C47.7298737,42.1176911 46.0372925,43.2186126 44.6491242,44.6491242 C43.2186126,46.0384368 42.1176911,47.7298737 41.426468,49.6009828 C40.8370972,51.1184692 40.1355744,53.3992767 39.944458,57.5981139 C39.73732,62.1391295 39.692688,63.5009766 39.692688,75.0011443 C39.692688,86.5001678 39.73732,87.8620148 39.944458,92.4041748 C40.1355744,96.603012 40.8370972,98.8826751 41.426468,100.400162 C42.1176911,102.271271 43.2174683,103.962708 44.6479799,105.35202 C46.0372925,106.782532 47.7287291,107.883454 49.5998382,108.573532 C51.1173249,109.164047 53.3981323,109.86557 57.5969695,110.056686 C62.1379852,110.263825 63.4986879,110.307312 74.9988557,110.307312 C86.5001678,110.307312 87.8620148,110.263825 92.4018861,110.056686 C96.6007233,109.86557 98.8815308,109.164047 100.399017,108.573532 C104.154968,107.12471 107.123566,104.156113 108.572388,100.400162 C109.161758,98.8826751 109.863281,96.603012 110.055542,92.4041748 C110.26268,87.8620148 110.306168,86.5001678 110.306168,75.0011443 C110.306168,63.5009766 110.26268,62.1391295 110.055542,57.5981139 C109.864426,53.3992767 109.162903,51.1184692 108.572388,49.6009828 L108.572388,49.6009828 Z M75,97.114563 C62.7857209,97.114563 52.8842927,87.2142791 52.8842927,75 C52.8842927,62.7857209 62.7857209,52.885437 75,52.885437 C87.2131348,52.885437 97.114563,62.7857209 97.114563,75 C97.114563,87.2142791 87.2131348,97.114563 75,97.114563 Z M97.9888916,57.1792603 C95.134735,57.1792603 92.8207397,54.865265 92.8207397,52.0111084 C92.8207397,49.1569518 95.134735,46.8429565 97.9888916,46.8429565 C100.843048,46.8429565 103.157043,49.1569518 103.157043,52.0111084 C103.155899,54.865265 100.843048,57.1792603 97.9888916,57.1792603 Z" id="Shape"></path>
                <path d="M75,0 C33.5849763,0 0,33.5849763 0,75 C0,116.415024 33.5849763,150 75,150 C116.415024,150 150,116.415024 150,75 C150,33.5849763 116.415024,0 75,0 Z M117.806625,92.7555085 C117.598343,97.3400115 116.869354,100.469971 115.805054,103.209686 C113.567734,108.994675 108.994675,113.567734 103.209686,115.805054 C100.471115,116.869354 97.3400115,117.597199 92.7566528,117.806625 C88.1641389,118.016052 86.6970062,118.066406 75.0011443,118.066406 C63.3041382,118.066406 61.8381501,118.016052 57.2444915,117.806625 C52.6611328,117.597199 49.5300293,116.869354 46.7914582,115.805054 C43.9167023,114.723587 41.3143157,113.028717 39.1628265,110.837174 C36.9724274,108.686829 35.2775572,106.083298 34.1960906,103.209686 C33.1317902,100.471115 32.4028014,97.3400115 32.194519,92.7566528 C31.9828034,88.1629945 31.9335938,86.6958618 31.9335938,75 C31.9335938,63.3041382 31.9828034,61.8370055 32.1933747,57.2444915 C32.401657,52.6599885 33.1295013,49.5300293 34.193802,46.7903139 C35.2752686,43.9167023 36.9712828,41.3131714 39.1628265,39.1628265 C41.3131714,36.9712828 43.9167023,35.2764129 46.7903139,34.1949463 C49.5300293,33.1306459 52.6599885,32.4028014 57.2444915,32.1933747 C61.8370055,31.9839478 63.3041382,31.9335938 75,31.9335938 C86.6958618,31.9335938 88.1629945,31.9839478 92.7555085,32.194519 C97.3400115,32.4028014 100.469971,33.1306459 103.209686,34.193802 C106.083298,35.2752686 108.686829,36.9712828 110.838318,39.1628265 C113.028717,41.3143157 114.724731,43.9167023 115.805054,46.7903139 C116.870499,49.5300293 117.598343,52.6599885 117.80777,57.2444915 C118.017197,61.8370055 118.066406,63.3041382 118.066406,75 C118.066406,86.6958618 118.017197,88.1629945 117.806625,92.7555085 L117.806625,92.7555085 Z" id="Shape"></path>
            </g>
        </g>
    </g>
</svg>