<svg xmlns="http://www.w3.org/2000/svg" width="246" height="139" viewBox="0 0 246 139">
    <path fill="#FFF" fill-rule="nonzero" d="M1.05 97.44c-.38-1.13-.66-1.9-.85-2.31a2.54 2.54 0 0 1-.2-1.41 4.68 4.68 0 0 1 1.1-2.43 9.14 9.14 0 0 0 1.38-2.04c.45-1.12.89-2.1 1.3-2.93a17.63 17.63 0 0 1 1.41-2.37 1.91 1.91 0 0 1 .4-.79 7.9 7.9 0 0 0 .5-.68 7.79 7.79 0 0 1 .45-1l.46-.85a11 11 0 0 0 .66-1.17c.172-.43.38-.844.62-1.24a7.41 7.41 0 0 1 .56-1.13c.23-.37.45-.75.68-1.13l.22-.67a1.13 1.13 0 0 1 .45-.57 1.57 1.57 0 0 1 .23-1 1.78 1.78 0 0 0 .23-1.07c.365-.446.7-.918 1-1.41a11.45 11.45 0 0 1 1-1.41c.82-1.35 1.46-2.39 1.91-3.1a19.47 19.47 0 0 0 1.24-2.31 1.89 1.89 0 0 1 .23-1c.15-.26.3-.55.45-.85a2.58 2.58 0 0 0 .34-.79 1.08 1.08 0 0 1 .45-.67c.53-1.51.97-2.7 1.35-3.61.38-.91.76-1.77 1.13-2.6a3.64 3.64 0 0 1 .62-1.07 2.25 2.25 0 0 0 .4-.51 25.25 25.25 0 0 1 1.13-2.54 7.54 7.54 0 0 0 .67-1.74 16.6 16.6 0 0 1 1.24-2.26 7.59 7.59 0 0 0 1-2.6c.292-.206.51-.5.62-.84.113-.34.33-.638.62-.85a11 11 0 0 1 .56-1.35c.23-.45.45-.9.68-1.36a5.13 5.13 0 0 0 .56-.9c.15-.29.3-.63.46-1A26.19 26.19 0 0 1 30 35.11a21.27 21.27 0 0 0 1.61-2.67 16.55 16.55 0 0 1 1-2.14 3 3 0 0 0 .39-1c-1 .31-2 .7-3.06 1.03a7.51 7.51 0 0 1-3.6.39 2.85 2.85 0 0 0-1.64 0 1.72 1.72 0 0 1-.85.23 5.33 5.33 0 0 1-1 .11 1.88 1.88 0 0 0-.84.22c-1.28.44-2.16.77-2.65 1a1.59 1.59 0 0 1-1.53-.11c.08-.6.15-1.24.23-1.92a3 3 0 0 1 .68-1.69 31.74 31.74 0 0 1 5.92-3.9c2.14-1.08 4.38-2.16 6.71-3.21l2.26-.62a11.35 11.35 0 0 0 1.92-.73 40.68 40.68 0 0 1 1.91-3.61 15.85 15.85 0 0 1 2.37-3c.73-.45 1.08-.67 1-.56-.08.11.07.11.45.11.251.107.466.284.62.51.148.271.278.552.39.84.215.276.387.583.51.91a.89.89 0 0 0 .73.56 1 1 0 0 0 .74-.06 6.36 6.36 0 0 1 .84-.28 7.28 7.28 0 0 0 1.75-.34 2.24 2.24 0 0 1 1.19-.11 4.38 4.38 0 0 1 1.29-.28 4.52 4.52 0 0 0 1.3-.28 7.29 7.29 0 0 0 1.41-.34 7.34 7.34 0 0 1 1.52-.34 20.11 20.11 0 0 1 6.21.56l1 .51a8.79 8.79 0 0 0 1.07.51c.524.27 1.069.498 1.63.68.492.15.94.422 1.3.79.692.674 1.3 1.43 1.81 2.25.298.08.57.235.79.45.203.213.428.404.67.57.45.83.91 1.59 1.36 2.31.473.775.78 1.64.9 2.54a12.47 12.47 0 0 1-.17 3.86c-.26 1.32-.51 2.61-.73 3.89-.08.38-.16.69-.23 1.07-.07.38-.15.7-.22 1a1.49 1.49 0 0 0-.06.73c.04.281.061.566.06.85a12.34 12.34 0 0 1-.51 2.6c-.27.82-.51 1.65-.74 2.48a88.175 88.175 0 0 1-1.86 6.2 9.54 9.54 0 0 1-3.32 4.74A8.71 8.71 0 0 1 61.28 54l-1.44 1.47A9.71 9.71 0 0 1 56 58.29a59.88 59.88 0 0 1-6.84 4.42l-2.71 1.81a18.21 18.21 0 0 1-2.93 1.58 9.75 9.75 0 0 1-1.75 1.18l-2 1.07a236.388 236.388 0 0 0-4.8 2.37 27.51 27.51 0 0 1-4.79 1.92 30.67 30.67 0 0 1-3.83.62 9.22 9.22 0 0 1-3.39-.28 9.33 9.33 0 0 1-1-.4 2.78 2.78 0 0 0-.84-.28c-.38.15-.68.62-.91 1.41a17.82 17.82 0 0 1-.56 1.75 25.84 25.84 0 0 1-1.58 3.1c-.6 1.02-1.17 2.05-1.69 3.11-.45.9-.9 1.82-1.36 2.82-.447.967-.897 1.907-1.35 2.82a5.93 5.93 0 0 0-.79 2 5.93 5.93 0 0 1-.79 2 13.48 13.48 0 0 1-1 1.69 4.89 4.89 0 0 0-.75 1.9 5.83 5.83 0 0 0 0 1.8 3.46 3.46 0 0 1 0 1.69 2.19 2.19 0 0 1-.45.85.75.75 0 0 0 0 1 6.58 6.58 0 0 1-3.61.67 6.2 6.2 0 0 1-2.71-1 1.38 1.38 0 0 1-1-.11 7.89 7.89 0 0 1-.85-.57.71.71 0 0 1-.5-.79 1.88 1.88 0 0 0-.17-1zm25.66-35.08c-.11.45-.25.9-.42 1.49a6.06 6.06 0 0 0 1.29-.45 3 3 0 0 1 1.64-.23 3.16 3.16 0 0 1 2.25-.56 8.13 8.13 0 0 0 2.37-.11 3.87 3.87 0 0 1 1.19-.17c.126.039.258.056.39.05a4.34 4.34 0 0 0 .9-.11 3 3 0 0 0 .79-.23 11.06 11.06 0 0 0 2.6-1.24c.78-.5 1.612-.916 2.48-1.24a6.75 6.75 0 0 1 1.24-1c.47-.31.94-.63 1.47-1 .37-.38.75-.76 1.13-1.13a3 3 0 0 1 1.35-.79 4.92 4.92 0 0 1 .68-1 .18.18 0 0 0 .11-.17 7.47 7.47 0 0 0 1.86-1.86c.52-.72.94-1.63 1.52-2.31.58-.68 1.06-1.38 1.58-2.09a13.34 13.34 0 0 0 1.36-2.31c.45-.64.87-1.15 1.24-1.64s.75-1.03 1.13-1.63a.78.78 0 0 0 .22-.57 1.23 1.23 0 0 1 .23-.68 9 9 0 0 1 .9-1.8A3.77 3.77 0 0 1 59 38a7.94 7.94 0 0 1 .52-.76 7.94 7.94 0 0 0 .45-.79 4.79 4.79 0 0 1 .51-1c.19-.268.36-.548.51-.84a1 1 0 0 0 .28-.57 1.85 1.85 0 0 1 .28-.68 3.17 3.17 0 0 1 .28-.62c.106-.16.2-.326.28-.5a3.28 3.28 0 0 0 .12-1.92 8.17 8.17 0 0 1-.23-1.69 18.72 18.72 0 0 1-.57-2.7 2.57 2.57 0 0 0-.68-1.58 1 1 0 0 0-.56-.28 1 1 0 0 1-.57-.28 3.79 3.79 0 0 0-1.52-.4 1.91 1.91 0 0 1-1-.17 3.33 3.33 0 0 1-1.86.17 9.78 9.78 0 0 0-2.31-.06 3.5 3.5 0 0 0-1.36.29 1.58 1.58 0 0 1-1.24.05 5.35 5.35 0 0 1-.79.34 2.36 2.36 0 0 1-.79.11 4.84 4.84 0 0 1-1 .12 4 4 0 0 0-.9.11 11 11 0 0 0-2.77.79c-.9.386-1.822.72-2.76 1a5 5 0 0 1-.23 1.57 4.71 4.71 0 0 0-.22 1.47 32.19 32.19 0 0 1-1.58 3.72 22.4 22.4 0 0 0-1.47 3.73 45.85 45.85 0 0 0-2.25 4.68c-.68 1.62-1.43 3.21-2.26 4.79a28.12 28.12 0 0 1-1.58 2.94 8.15 8.15 0 0 0-1.13 3.38 13 13 0 0 0-.84 2.37 13.5 13.5 0 0 1-.74 2.14c-.15.36-.3.71-.45 1-.15.29-.3.63-.45 1a2.85 2.85 0 0 0-.34.73 8.17 8.17 0 0 1-.34 1 7.42 7.42 0 0 0-.73 1.7zm104.18-21.1c-.16.68-.29 1.37-.35 2.09a13.66 13.66 0 0 0-.17 2.08 1.21 1.21 0 0 0 .28.79c.173.186.275.426.29.68a5.19 5.19 0 0 1-.85 1.58.69.69 0 0 0-.28.57 1.7 1.7 0 0 0-.85.67 1 1 0 0 1-1 .45 1.63 1.63 0 0 1-.5.51.92.92 0 0 0-.4.62 5.1 5.1 0 0 1-4.06-.11 3.31 3.31 0 0 0-1.63-1.47 4.87 4.87 0 0 1-.11-5.07c.15-.38.32-.78.51-1.19a2.89 2.89 0 0 1 .5-.84 9.54 9.54 0 0 1 1.81-1.13 8.58 8.58 0 0 0 1-.57 5 5 0 0 1 1.18-.56 1.35 1.35 0 0 1 .62-.11c.297-.01.588-.09.85-.23.267-.063.53-.14.79-.23a2.24 2.24 0 0 1 .67-.11l1.13.34c.143.199.223.436.23.68a.66.66 0 0 0 .34.56zm22.05 59a2.26 2.26 0 0 0-1.41 0 6.24 6.24 0 0 0-1 .28 2.61 2.61 0 0 1-.9.17 3.82 3.82 0 0 1-2.42-.28 7.54 7.54 0 0 0-2.32-.74.54.54 0 0 0-.33-.5 2.3 2.3 0 0 1-.57-.4 10.93 10.93 0 0 0-.9-2.59 6.72 6.72 0 0 1-.68-1.69 9.49 9.49 0 0 1-.34-2.43 5.87 5.87 0 0 0-.56-2.42 2.73 2.73 0 0 1-.4-1.25c.04-.221.06-.445.06-.67 0-.98-.06-2.05-.17-3.22a3 3 0 0 1 1.32-3.07 2.74 2.74 0 0 0 .85-1.19 3.13 3.13 0 0 1 1-1.3 1 1 0 0 1 .73-.22 1.82 1.82 0 0 1 .73.11l.68.57a1.43 1.43 0 0 1-.17 1.24c-.26.52-.47.97-.62 1.35.055.25.131.494.23.73a1 1 0 0 1-.12.74c.47.305.822.76 1 1.29a5.33 5.33 0 0 0 .79 1.53 6.49 6.49 0 0 0 1.18 1.12c.421.303.819.637 1.19 1a1.84 1.84 0 0 1 .9-.34 2.52 2.52 0 0 0 .9-.22 10.52 10.52 0 0 0 1.58-3.16c.08-.28.15-.62.23-1a5.54 5.54 0 0 0 .11-1 7.66 7.66 0 0 0-.9-3 14.9 14.9 0 0 1-1.24-3 3.35 3.35 0 0 1-.29-2 5.07 5.07 0 0 0 0-2 2.69 2.69 0 0 0-.34-.9 6.94 6.94 0 0 1-.45-.79 6.87 6.87 0 0 1-.17-2 2.93 2.93 0 0 0-.51-1.92c-.3.3-.78.88-1.46 1.7-.68.82-1.4 1.7-2.15 2.7l-2.07 2.74a17.93 17.93 0 0 1-1.41 1.69l-.15.2c.071.153.125.314.16.48a5.62 5.62 0 0 1-1.53 2 11.94 11.94 0 0 0-1.8 1.77c-.55.35-.99.65-1.35.93-.52.64-1.04 1.3-1.58 2-.75.98-1.46 1.89-2.09 2.76-.63.87-1.1 1.52-1.29 1.75-.19.23-.55.76-1.19 1.69-.64.93-1.35 1.87-2.14 2.93s-1.5 2.04-2.14 2.94a18.52 18.52 0 0 0-1.19 1.8 7.3 7.3 0 0 1-1.75 2 4 4 0 0 1-2.54.84 1.48 1.48 0 0 1-.22-.62 8.55 8.55 0 0 1-.17-1.07 4.62 4.62 0 0 0-.23-1.07 4.93 4.93 0 0 0-.28-.73 6.48 6.48 0 0 0 .51-1.36 2.24 2.24 0 0 1 1-1.24 1.56 1.56 0 0 1 .06-.15c-.86.54-1.67 1.08-2.43 1.62a2.61 2.61 0 0 0-.79.62 5 5 0 0 1-.79.73 6.79 6.79 0 0 1-1.75.9c-.79.3-1.48.57-2.09.79a6.8 6.8 0 0 1-1.24.68 6.38 6.38 0 0 1-3.83-.79l-2.26-1.24a3.67 3.67 0 0 1-1.35-1.47 2.62 2.62 0 0 1-1.52-2.08c-.19-1-.4-2-.62-3-.08-.38-.15-.81-.23-1.3a5.53 5.53 0 0 1 0-1.52c.15-.83.26-1.71.34-2.65a7.47 7.47 0 0 1 .46-2.11 1.46 1.46 0 0 1-.35.24 24.93 24.93 0 0 1-2.65 2.54 20.2 20.2 0 0 0-2.54 2.54l-.9.68a3 3 0 0 0-.79.9 9.09 9.09 0 0 0-1.64 1.35l-1.41 1.58a9.07 9.07 0 0 0-1.46 1 9.63 9.63 0 0 1-1.69 1.07c-.35.15-.66.32-1 .51a2.17 2.17 0 0 1-1.07.28 4.49 4.49 0 0 1-2.49-.22 13.81 13.81 0 0 0-2.14-.68 4.05 4.05 0 0 0-1.13-1.13 7.55 7.55 0 0 1-1.46-2.93 99.58 99.58 0 0 1-.91-3.61 7.92 7.92 0 0 0-1.69 1.47 5.82 5.82 0 0 1-2 1.46 62 62 0 0 1-4.81 4.11 187.955 187.955 0 0 0-5.14 4.12 4.74 4.74 0 0 1-.67.56.56.56 0 0 1-.57.11 2.39 2.39 0 0 1-1.45.91 5.71 5.71 0 0 1-2.09-.06 10.47 10.47 0 0 0-2-.79 8.77 8.77 0 0 1-1.8-.67 5.77 5.77 0 0 1-3.22-1.69 13.39 13.39 0 0 1-2.2-3.16 12.5 12.5 0 0 1-.5-1.69c-.12-.53-.25-1.13-.4-1.81a6.74 6.74 0 0 0-.34-1.52 1.63 1.63 0 0 1 0-1.19.85.85 0 0 1-.11-.73 2.91 2.91 0 0 0 .11-.85 12.16 12.16 0 0 1 .28-3.38A15.88 15.88 0 0 1 53.36 79c.242-.42.545-.8.9-1.13.14-.212.255-.44.34-.68.067-.209.18-.4.33-.56.19-.26.42-.49.68-.68a6.91 6.91 0 0 0 .79-.67 7.59 7.59 0 0 1 1.3-1.41c.49-.42.96-.85 1.41-1.3a5 5 0 0 0 .62-.79c.202-.313.5-.551.85-.68a5 5 0 0 1 1-1.3l1.24-1.07a16.34 16.34 0 0 1 4.74-4 28.25 28.25 0 0 0 5.08-3.6 5.87 5.87 0 0 0 1.35-.8l1.13-.9a3.18 3.18 0 0 1 3-.79c1.06.3 2.03.57 2.94.79.75.65 1.48 1.33 2.2 2a12.23 12.23 0 0 1 1.86 2.26 10.28 10.28 0 0 1 1.8-.06 8.06 8.06 0 0 0 2.15-.17c.234 0 .465-.058.67-.17.176-.095.37-.15.57-.16 1.12.37 1.69.94 1.69 1.69l-.12.9a2.62 2.62 0 0 1-.22 1.35 3 3 0 0 0-.68 1.47l-.39.79a3.69 3.69 0 0 0-.28.9 3.94 3.94 0 0 0-.17 1.58 9.28 9.28 0 0 1-.06 1.69c-.15.83-.27 1.64-.34 2.43-.07.79-.15 1.6-.22 2.42a20.22 20.22 0 0 1-.23 2.82c-.153 1.06-.303 2-.45 2.82a4.49 4.49 0 0 1 .56 1.7 2.19 2.19 0 0 0 .79 1.46 10.9 10.9 0 0 0 3.61-1.07 9.88 9.88 0 0 0 2.6-2.09 5.92 5.92 0 0 0 1.41-.79c.41-.327.842-.627 1.29-.9l.46-.45.45-.45a15.13 15.13 0 0 0 1.52-.9 4.23 4.23 0 0 1 .73-.45 11.43 11.43 0 0 0 2.94-2.6 6.69 6.69 0 0 0 1.34-1.31 7.53 7.53 0 0 1 .51-.68 4.9 4.9 0 0 0 .51-.79l.67-1.69a17.55 17.55 0 0 1 1-1.58 6.7 6.7 0 0 0 .9-1.92 5 5 0 0 1 .62-1.24l.85-1.24a9.63 9.63 0 0 0 .61-1.32c.15-.52.34-.99.56-1.52a14 14 0 0 1 .85-1.81c.34-.6.69-1.2 1.07-1.8.23-.472.493-.927.79-1.36a1.94 1.94 0 0 1 1.36-.56 1.88 1.88 0 0 1 1 .06c.372.11.771.09 1.13-.06a6.12 6.12 0 0 1 2-.68.89.89 0 0 0 .79-.33 2.49 2.49 0 0 1 1.8.78 10.9 10.9 0 0 0 1.36 1.36 22.11 22.11 0 0 1-1.53 5c-.56 1.16-1.18 2.39-1.86 3.66-.37.58-.75 1.25-1.12 2l-1 2a18.62 18.62 0 0 1-1.18 2.2 10.64 10.64 0 0 0-1.08 2.19c-.147.369-.313.73-.5 1.08a8.79 8.79 0 0 0-.51 1.07 5.48 5.48 0 0 1-.62 1.41c-.27.41-.52.73-.74 1.18-.22.45-.45.9-.67 1.36a8.21 8.21 0 0 0-.57 1.46c-.37.91-.59 1.45-.67 1.64-.08.19-.15.36-.23.51a6.52 6.52 0 0 1-.68 2 .7.7 0 0 0 .34 1.13l.57.22a5.16 5.16 0 0 1 2.48-.34 3.79 3.79 0 0 0 2.37-.45 7.93 7.93 0 0 0 .79-.68.78.78 0 0 1 .79-.22 23 23 0 0 0 3-1.36 10.45 10.45 0 0 1 2.71-1 3.75 3.75 0 0 0 .85-.45 5 5 0 0 0 .73-.57 9.62 9.62 0 0 0 2.59-1.12l.07-.06c.6-.86.99-1.56 1.29-1.86.3-.3.81-.86 1.46-1.69.65-.83 1.3-1.73 2-2.66.7-.93 1.36-1.82 2-2.65l1.43-1.76a13 13 0 0 1 1.33-2.76c.76-1.17 1.59-2.36 2.49-3.61.9-1.25 1.76-2.43 2.65-3.56.89-1.13 1.58-2.14 2-2.71.42-.57.74-1.1 1-1.57s.55-.94.85-1.47c.16-.161.31-.331.45-.51a2.65 2.65 0 0 0 .34-.51 1.21 1.21 0 0 0-.23-1.29 1.27 1.27 0 0 1-.34-1.19 5.52 5.52 0 0 1 2-2.42 6.73 6.73 0 0 0 2-1.86 5.09 5.09 0 0 1 1.07-.68 3.53 3.53 0 0 0 1.07-.79 1.77 1.77 0 0 1 1.13-.51 3.76 3.76 0 0 1 1.3.11c.393.11.772.265 1.13.46.249.106.463.28.62.5a2 2 0 0 1 0 .91c-.08.37-.15.75-.23 1.12-.15.68-.3 1.31-.45 1.87-.15.56-.3 1.03-.45 1.86-.15.83-.28 1.61-.4 2.37a2.59 2.59 0 0 0 .74 2.14 3.31 3.31 0 0 0 .05 1.35c.12.53.25 1.02.4 1.47a31.18 31.18 0 0 0 1.3 7.16 63.1 63.1 0 0 0 2.31 6.49 4 4 0 0 0 .17 1.13c.11.37.24.75.39 1.12.227 2.41 0 4.843-.67 7.17-.68 2.367-1.32 4.68-1.92 6.94a11.62 11.62 0 0 0-1.13 2.59 8.83 8.83 0 0 1-.45 1.13 5.76 5.76 0 0 1-.68 1 13.24 13.24 0 0 0-1 2 3.54 3.54 0 0 1-1.81 1.81 2.62 2.62 0 0 1-1.52 0zM73.23 85.09a41.11 41.11 0 0 0 6.19-7.51 40.16 40.16 0 0 1-.05-5.69 15.27 15.27 0 0 0-.51-5.13 1.94 1.94 0 0 0-1.07-.17 3 3 0 0 1-1.07-.06 29.16 29.16 0 0 0-5.53 3.44 54.83 54.83 0 0 0-5 4.51c-.273.266-.56.516-.86.75a7.44 7.44 0 0 0-1.13 1.11 7.55 7.55 0 0 0-.84 1.36c-.27.52-.51 1.01-.74 1.46a4.36 4.36 0 0 1-.45.74c-.15.19-.3.39-.45.62a2.33 2.33 0 0 0-.17 1.13c.042.412.062.826.06 1.24V84c0 .383.038.764.11 1.14a9.26 9.26 0 0 1 .34 2.48c.011.736.068 1.47.17 2.2a2.3 2.3 0 0 0 .85 1.75c.407.295.93.38 1.41.23.48-.15.92-.26 1.29-.34a94.43 94.43 0 0 0 7.45-6.37zm130.98 9.75l-1 .52a2.17 2.17 0 0 1-1.07.28 4.47 4.47 0 0 1-2.48-.22 14.26 14.26 0 0 0-2.15-.68 4 4 0 0 0-1.12-1.13 7.57 7.57 0 0 1-1.47-2.93c-.3-1.13-.6-2.33-.9-3.61a7.47 7.47 0 0 0-1.69 1.47 5.86 5.86 0 0 1-2 1.46 62 62 0 0 1-4.76 4.18 198.51 198.51 0 0 0-5.13 4.12 4.79 4.79 0 0 1-.68.56.54.54 0 0 1-.56.11 2.44 2.44 0 0 1-1.53.85 5.66 5.66 0 0 1-2.08-.06 10.72 10.72 0 0 0-2-.79 8.64 8.64 0 0 1-1.81-.67 5.71 5.71 0 0 1-3.21-1.69 12.83 12.83 0 0 1-2.2-3.16 11.31 11.31 0 0 1-.51-1.69c-.11-.53-.24-1.13-.4-1.81a6.78 6.78 0 0 0-.33-1.52 1.63 1.63 0 0 1 0-1.19.86.86 0 0 1-.12-.73 2.91 2.91 0 0 0 .12-.85 11.79 11.79 0 0 1 .28-3.38 15.88 15.88 0 0 1 1.07-3.27c.242-.42.545-.8.9-1.13a2.7 2.7 0 0 0 .34-.68c.07-.21.187-.4.34-.56a2.91 2.91 0 0 1 .68-.68 7.9 7.9 0 0 0 .79-.67c.366-.525.8-1 1.29-1.41.49-.42.96-.85 1.41-1.3a4.51 4.51 0 0 0 .62-.79c.202-.313.5-.551.85-.68a5.47 5.47 0 0 1 1-1.3c.38-.33.79-.69 1.25-1.07a16.16 16.16 0 0 1 4.73-4 28.25 28.25 0 0 0 5.08-3.6 5.67 5.67 0 0 0 1.35-.8c.38-.29.75-.6 1.13-.9a3.2 3.2 0 0 1 3.05-.79c1.05.3 2.03.57 2.93.79.75.65 1.48 1.33 2.2 2a12.23 12.23 0 0 1 1.86 2.26 10.4 10.4 0 0 1 1.81-.06 8 8 0 0 0 2.14-.17c.237 0 .47-.059.68-.17a1.3 1.3 0 0 1 .56-.16c1.13.37 1.69.94 1.69 1.69l-.11.9a2.67 2.67 0 0 1-.23 1.35 2.93 2.93 0 0 0-.67 1.47c-.15.3-.29.56-.4.79a3.69 3.69 0 0 0-.28.9 4.13 4.13 0 0 0-.17 1.58 7.78 7.78 0 0 1-.06 1.69c-.15.83-.25 1.64-.33 2.43-.08.79-.16 1.6-.23 2.42a20.22 20.22 0 0 1-.23 2.82c-.147 1.06-.297 2-.45 2.82a4.69 4.69 0 0 1 .48 1.67 2.15 2.15 0 0 0 .79 1.46 11.06 11.06 0 0 0 3.61-1.07 10 10 0 0 0 2.59-2.09 5.53 5.53 0 0 0 1.41-.79 13 13 0 0 1 1.3-.9l.45-.45.45-.45a13 13 0 0 0 1.52-.9h.05c.12-.13.23-.26.35-.41.65-.83 1.29-1.73 2-2.66.71-.93 1.36-1.82 2-2.65l1.45-1.76a13.66 13.66 0 0 1 1.42-2.8c.75-1.17 1.58-2.36 2.48-3.61.9-1.25 1.76-2.43 2.65-3.56.89-1.13 1.55-2.03 2-2.71l1-1.57.83-1.44c.16-.161.31-.331.45-.51a2.26 2.26 0 0 0 .34-.51c.186-.436.1-.94-.22-1.29a1.22 1.22 0 0 1-.43-1.18 5.58 5.58 0 0 1 2-2.42 6.76 6.76 0 0 0 2-1.86 4.85 4.85 0 0 1 1.07-.68 3.65 3.65 0 0 0 1.07-.79 1.77 1.77 0 0 1 1.13-.51 3.68 3.68 0 0 1 1.29.11 5.24 5.24 0 0 1 1.13.46c.25.104.466.277.62.5a1.73 1.73 0 0 1 0 .91c-.07.37-.15.75-.22 1.12-.15.68-.29 1.31-.45 1.87-.16.56-.31 1.03-.46 1.86-.15.83-.28 1.61-.39 2.37a2.58 2.58 0 0 0 .73 2.14 3.52 3.52 0 0 0 .06 1.35 13 13 0 0 0 .39 1.47 31.73 31.73 0 0 0 1.3 7.16 68.22 68.22 0 0 0 2.31 6.49 4 4 0 0 0 .17 1.13c.12.37.25.75.4 1.12a19.39 19.39 0 0 1-.68 7.17c-.68 2.367-1.32 4.68-1.92 6.94a11.17 11.17 0 0 0-1.12 2.59 10.42 10.42 0 0 1-.46 1.13 5.65 5.65 0 0 1-.67 1 12.41 12.41 0 0 0-1 2 3.52 3.52 0 0 1-1.8 1.81 2.66 2.66 0 0 1-1.53 0 2.26 2.26 0 0 0-1.41 0 6.4 6.4 0 0 0-1 .28 2.61 2.61 0 0 1-.9.17 3.87 3.87 0 0 1-2.43-.28 7.56 7.56 0 0 0-2.31-.74.53.53 0 0 0-.34-.5 2.23 2.23 0 0 1-.56-.4 11.31 11.31 0 0 0-.91-2.59 6.7 6.7 0 0 1-.67-1.69 9.07 9.07 0 0 1-.34-2.43 5.74 5.74 0 0 0-.57-2.42 2.56 2.56 0 0 1-.39-1.25c.04-.221.06-.445.06-.67 0-.98-.06-2.05-.17-3.22a3 3 0 0 1 1.39-2.84 2.8 2.8 0 0 0 .84-1.19 3.22 3.22 0 0 1 1-1.3 1 1 0 0 1 .73-.22 1.88 1.88 0 0 1 .74.11l.67.57a1.42 1.42 0 0 1-.16 1.24c-.23.44-.437.89-.62 1.35.056.248.13.492.22.73a1 1 0 0 1-.11.74c.468.307.82.76 1 1.29.194.466.45.903.76 1.3a6.53 6.53 0 0 0 1.19 1.12c.416.306.81.64 1.18 1a1.91 1.91 0 0 1 .9-.34 2.61 2.61 0 0 0 .91-.22 10.76 10.76 0 0 0 1.58-3.16c.07-.28.15-.62.22-1a4.78 4.78 0 0 0 .11-1 7.35 7.35 0 0 0-.9-3 14.9 14.9 0 0 1-1.24-3 3.35 3.35 0 0 1-.28-2 5.24 5.24 0 0 0-.06-2 2.49 2.49 0 0 0-.34-.9 6.94 6.94 0 0 1-.45-.79 6.87 6.87 0 0 1-.17-2 3 3 0 0 0-.5-1.92c-.31.3-.79.88-1.47 1.7-.68.82-1.39 1.7-2.14 2.7l-2.06 2.7-.59.75a5.14 5.14 0 0 1-.59 1.17 4.19 4.19 0 0 0-.57.9.35.35 0 0 1-.11.23 4.52 4.52 0 0 1-.85.84c-.317.245-.6.53-.84.85-.38.67-.68 1-.91 1a.77.77 0 0 0-.56.23l-.13.07-.26.32c-.72.87-1.44 1.79-2.2 2.77-.76.98-1.45 1.9-2.09 2.76l-1.3 1.75c-.18.23-.54.76-1.18 1.69-.64.93-1.36 1.87-2.15 2.93-.79 1.06-1.5 2.04-2.14 2.94a17.74 17.74 0 0 0-1.18 1.8 7.65 7.65 0 0 1-1.75 2 4 4 0 0 1-2.54.84 1.45 1.45 0 0 1-.23-.62c-.07-.34-.17-.69-.17-1.07a4.62 4.62 0 0 0-.22-1.07 6.42 6.42 0 0 0-.28-.73 7 7 0 0 0 .5-1.36 2 2 0 0 1 .52-.86 7.39 7.39 0 0 1-.91.52zm-17.11-9.75a41.11 41.11 0 0 0 6.24-7.51 41.71 41.71 0 0 1-.05-5.69 15.27 15.27 0 0 0-.51-5.13 1.94 1.94 0 0 0-1.07-.17 3 3 0 0 1-1.07-.06 29.48 29.48 0 0 0-5.53 3.44 54.83 54.83 0 0 0-5 4.51c-.273.266-.56.516-.86.75a7.36 7.36 0 0 0-1.12 1.11 7 7 0 0 0-.85 1.36c-.26.52-.51 1.01-.73 1.46a4.36 4.36 0 0 1-.45.74 6.24 6.24 0 0 0-.46.62 2.33 2.33 0 0 0-.16 1.13V84.01a6.1 6.1 0 0 0 .11 1.13 9.26 9.26 0 0 1 .34 2.48c.011.736.068 1.47.17 2.2.02.678.33 1.315.85 1.75.407.295.93.38 1.41.23.49-.15.92-.26 1.3-.34a94.26 94.26 0 0 0 7.44-6.37zm-10.69 38.14a.63.63 0 0 1-.45-.11c-.42.1-.81.23-1.17.23l-1.25.16-.47 1c-.16.34-.32.67-.47 1a48.366 48.366 0 0 0-2.14 4.17 68.33 68.33 0 0 0-1.78 4.33l-.15.66a2.36 2.36 0 0 1-.24.59 3.47 3.47 0 0 1-.23.82 2 2 0 0 0-.12.37 3.16 3.16 0 0 1-.12.37 1 1 0 0 1-.33.47 1 1 0 0 0-.33.43c-.16-.13-.28-.14-.37 0a2.08 2.08 0 0 0-.22.41.53.53 0 0 1-.61-.19 1.12 1.12 0 0 1-.17-.59.4.4 0 0 0-.37-.17.55.55 0 0 1-.42-.18 18 18 0 0 0-.56-1.75c-.19-.47-.38-.91-.59-1.33a5.71 5.71 0 0 0-.16-.57c-.05-.17-.1-.34-.15-.53a3.39 3.39 0 0 0-.18-.39c-.06-.13-.12-.26-.17-.39a.36.36 0 0 1-.08-.23.46.46 0 0 0-.08-.24 8.19 8.19 0 0 0-.47-.86l-.51-.82a2.59 2.59 0 0 1-.39-.59.87.87 0 0 0-.27-.35 2.08 2.08 0 0 1-.24-.57.25.25 0 0 0-.08-.17l-.39-.47a.87.87 0 0 0-.27-.24 2.08 2.08 0 0 0-.43-.19 2.44 2.44 0 0 1-.43-.2l-.41-.17a3.12 3.12 0 0 0-.49-.18 9.24 9.24 0 0 0-.59 1.49 4.65 4.65 0 0 1-.7 1.41c-.16.36-.34.72-.53 1.07a10.8 10.8 0 0 0-.53 1.08 1.83 1.83 0 0 0-.28.6 3 3 0 0 1-.23.65c-.08.16-.17.31-.27.47l-.32.47a4.42 4.42 0 0 1-1.08 1.16 9.21 9.21 0 0 0-1.2 1.14 2.55 2.55 0 0 1-.72.45.72.72 0 0 1-.61-.1c-.08-.09-.15-.09-.21 0l-.18.21a.57.57 0 0 1-.37-.09l-.25-.26a1.8 1.8 0 0 1 .25-.62 5.6 5.6 0 0 0 .33-.59.39.39 0 0 0 .24-.31.53.53 0 0 1 .19-.36 5.55 5.55 0 0 1 .3-1c.119-.3.284-.58.49-.83.05-.13.15-.26.15-.41a4.18 4.18 0 0 1 .2-.45c.08-.13.177-.248.29-.35a1 1 0 0 0 .26-.35 7.82 7.82 0 0 1 .54-1.35c.19-.33.37-.66.55-1a12 12 0 0 1 .63-1.55c.23-.46.48-.97.74-1.46-.13-.05-.19-.18-.19-.37a.46.46 0 0 0-.2-.42 1.68 1.68 0 0 0-.59-1.25.89.89 0 0 0 .2-.51 1 1 0 0 1 .21-.15 2.75 2.75 0 0 1 .34-.16l.27-.14c.1-.041.204-.072.31-.09l.61-.06c.205-.02.41-.053.61-.1a4.63 4.63 0 0 0 .43-.9 2.23 2.23 0 0 1 .47-.82.86.86 0 0 1 .11-.24.22.22 0 0 0 0-.23 5 5 0 0 0 .55-.86 6.37 6.37 0 0 1 .55-.9 7.19 7.19 0 0 1 .64-1.16 7.92 7.92 0 0 0 .69-1.19 4 4 0 0 0 .61-1.14l.45-1.29a.93.93 0 0 0 .07-.33.67.67 0 0 1 .08-.29 1.89 1.89 0 0 1 .24-.43c.1-.16.17-.28.27-.47.1-.19.2-.35.27-.51a2.52 2.52 0 0 0 .2-.55c-.08-.16-.2-.19-.37-.1l-.57.3a6.782 6.782 0 0 0-1.09.66 15.27 15.27 0 0 0-3 2 1.46 1.46 0 0 0-.39.12 1.91 1.91 0 0 1-.47.11 2 2 0 0 1-.29-.23l-.06-.12a1.14 1.14 0 0 1 .39-.23c.18-.08.27-.19.27-.32a1.39 1.39 0 0 1 .42-1.15l.88-.8c.38-.24.72-.43 1-.57a4.25 4.25 0 0 0 .82-.53 9 9 0 0 0 1-.45l1-.49a1.33 1.33 0 0 0 .37-.23l.37-.32 1-.62 1.08-.63c.21-.05.33-.12.33-.12a.21.21 0 0 1 .1-.07c.23-.08.43-.16.57-.22.14-.06.28-.14.41-.21a4.11 4.11 0 0 0 .6-.28c.201-.1.426-.142.65-.12a.86.86 0 0 1 .59.28c.22.18.2.36 0 .55.214.234.325.543.31.86a8 8 0 0 0 .08 1.09 1.45 1.45 0 0 0 0 .37 1 1 0 0 1 0 .34 1.66 1.66 0 0 1-.14.37.65.65 0 0 0-.1.33 1.53 1.53 0 0 0-.23.41 1.42 1.42 0 0 1-.24.41 1.06 1.06 0 0 1-.27.55 1.43 1.43 0 0 0-.31.43 3.1 3.1 0 0 0-.55.51c-.11 0-.18.05-.18.14a.3.3 0 0 1-.1.21 2.4 2.4 0 0 0-1.31.88c-.32.43-.67.94-1 1.43a4.93 4.93 0 0 0-1.1.94 1.63 1.63 0 0 0-.25.45 2.57 2.57 0 0 1-.26.49c-.21.34-.43.72-.66 1.15l-.67 1.2a2.8 2.8 0 0 1-.19.43 1.7 1.7 0 0 0-.2.47c-.13.26-.23.45-.31.58a1.87 1.87 0 0 0-.2.51A9.89 9.89 0 0 0 162 122l1.41-.18a4.76 4.76 0 0 0 1.9-.22 7 7 0 0 1 1.82-.33.48.48 0 0 1 .27-.06.55.55 0 0 0 .28 0l1.74-.06c.59-.01 1.19.06 1.82.06a.61.61 0 0 0 .25-.23 2.58 2.58 0 0 0 .18-.32 1.25 1.25 0 0 1 .21-.35 1.48 1.48 0 0 0 .22-.31c.052-.155.13-.3.23-.43a.87.87 0 0 0 .2-.31c.16-.32.29-.51.29-.57a2.83 2.83 0 0 0 .14-.26l1.13-1.91a1.3 1.3 0 0 0 .14-.26l.14-.29c.05-.111.083-.23.1-.35a.53.53 0 0 1 .21-.36c.11-.26.22-.54.37-.82.15-.28.28-.6.41-.86.13-.26.26-.51.4-.76l.39-.76c.05-.14.1-.26.15-.38a3.17 3.17 0 0 0 .16-.37 4.52 4.52 0 0 0 .51-.86l.31-.47c.11-.16.21-.32.32-.51a5.39 5.39 0 0 1 .43-.9l.15-.29.12-.22a.31.31 0 0 0 0-.25.39.39 0 0 1 0-.26l.19-.25.2-.25.2-.22c.07-.07.18-.08.31 0a1.1 1.1 0 0 1 .25-.19 2.11 2.11 0 0 1 .3-.16.43.43 0 0 1 .27.14.72.72 0 0 0 .23.17c.06.137.101.282.12.43a.3.3 0 0 1-.15.35c.208.114.373.293.47.51.084.256.135.521.15.79v.56a2 2 0 0 0 .06.57 1.9 1.9 0 0 1-.26.41 1.35 1.35 0 0 0-.28.53 7 7 0 0 1-.84 1.53c-.347.44-.68.92-1 1.44a2.93 2.93 0 0 0-.68 1c-.17.38-.33.78-.49 1.2-.51.86-1.03 1.74-1.51 2.62-.48.88-.94 1.78-1.39 2.7l1.12.23c.345.079.68.196 1 .35.13.21.29.33.29.34v.13a1 1 0 0 1-.08.75c-.1.09-.26.1-.47 0zm-7.51 3v.01l.93-1.98a3 3 0 0 1-.57-.11l-.57-.16a.51.51 0 0 0-.25 0 .42.42 0 0 1-.25 0 1.33 1.33 0 0 1-.55-.12 8.86 8.86 0 0 0-1.63.08 5.32 5.32 0 0 1-1.42 0c-.71.11-1.42.19-2.14.26a19.84 19.84 0 0 0-2.09.29l-.45.1-.41.13a3.11 3.11 0 0 0-.12.3 2.8 2.8 0 0 1-.12.33 7.64 7.64 0 0 0 1.26 1.14c.3.41.65.8 1 1.17.35.37.71.73 1.08 1.1a1 1 0 0 1 .43.58 1.4 1.4 0 0 1 .37.47 4 4 0 0 0 .33.55.57.57 0 0 1 .51.31 2 2 0 0 0 .32.51c.217.35.458.683.72 1 .257.303.472.64.64 1a.52.52 0 0 1 .16.18.44.44 0 0 0 .16.18c.26-.86.49-1.62.68-2.27.2-.656.444-1.297.73-1.92a1.3 1.3 0 0 1 .21-.55.87.87 0 0 0 .14-.58c.29-.68.59-1.35.9-2zm31.83 3.26c.04.13.09.26.14.33a6.54 6.54 0 0 1-.24 2.48c-.23.83-.45 1.63-.66 2.41a3.7 3.7 0 0 0-.39.9c-.06.16-.11.29-.16.39a1.89 1.89 0 0 1-.23.35 4.28 4.28 0 0 0-.36.71 1.17 1.17 0 0 1-.62.62.8.8 0 0 1-.53 0 .82.82 0 0 0-.49 0 2.47 2.47 0 0 0-.35.1.91.91 0 0 1-.32.06 1.35 1.35 0 0 1-.84-.1 2.51 2.51 0 0 0-.8-.25.19.19 0 0 0-.12-.18.91.91 0 0 1-.19-.13 4.27 4.27 0 0 0-.31-.9 2.15 2.15 0 0 1-.24-.59 3.15 3.15 0 0 1-.12-.84 2 2 0 0 0-.19-.84.9.9 0 0 1-.14-.43 1.94 1.94 0 0 0 0-.24c0-.34-.02-.71-.06-1.11a1 1 0 0 1 .49-1 .93.93 0 0 0 .29-.41 1.12 1.12 0 0 1 .34-.45.3.3 0 0 1 .25-.08.59.59 0 0 1 .26 0l.23.19a.5.5 0 0 1-.06.43c-.09.19-.21.34-.21.47a2.3 2.3 0 0 0 .07.26.29.29 0 0 1 0 .25.93.93 0 0 1 .35.45c.06.19.15.37.27.53.119.148.257.279.41.39.146.106.283.223.41.35a.76.76 0 0 1 .32-.11 1 1 0 0 0 .31-.08 3.78 3.78 0 0 0 .55-1.1c.02-.1.08-.22.08-.35a2.54 2.54 0 0 0-.31-1.41 5.27 5.27 0 0 1-.43-1 1.2 1.2 0 0 1-.1-.71c.05-.23.05-.47 0-.7a.86.86 0 0 0-.11-.32 1.75 1.75 0 0 1-.16-.27 2.61 2.61 0 0 1-.06-.71 1 1 0 0 0-.18-.66c-.1.1-.26.31-.5.59-.24.28-.49.6-.75.94l-.72.94a7.5 7.5 0 0 1-.49.58 2.9 2.9 0 0 1-.43.49 2.9 2.9 0 0 0-.43.49l-.53.65c-.25.35-.5.67-.76 1l-.73 1-.45.61-.41.59-.74 1-.74 1a5.85 5.85 0 0 0-.42.63 2.28 2.28 0 0 1-.6.68c-.249.2-.56.306-.88.3a.56.56 0 0 1-.08-.22 2.2 2.2 0 0 1-.06-.37 1.43 1.43 0 0 0-.08-.37 1.58 1.58 0 0 0-.1-.26 2.07 2.07 0 0 0 .18-.47.81.81 0 0 1 .33-.43 4.65 4.65 0 0 1 .47-.88c.26-.4.54-.83.86-1.27.32-.44.6-.86.88-1.25s.47-.67.57-.82c.18-.187.35-.384.51-.59.24-.29.47-.59.7-.92l.69-.92c.22-.29.38-.49.49-.62a4.55 4.55 0 0 1 .45-.87c-.47.07-.96.14-1.47.24a2.23 2.23 0 0 1-.53.31l-.29.12a2.3 2.3 0 0 0-.82-.16c-.29 0-.58-.04-.86-.12a1.26 1.26 0 0 1-.45.08 1.42 1.42 0 0 0-.45.08 1.51 1.51 0 0 0-.16.71 1.94 1.94 0 0 1-.12.7l-.23.47a2.58 2.58 0 0 0-.06.37 1.36 1.36 0 0 1-.1.37c-.05.08-.11.17-.17.28a.6.6 0 0 0-.1.35 1.94 1.94 0 0 0-.39.72 1.45 1.45 0 0 1-.43.69 1.34 1.34 0 0 1-.38.62 3.71 3.71 0 0 0-.48.55l-.77 1a2.82 2.82 0 0 1-.88.74 1 1 0 0 1-.47.43 2 2 0 0 0-.31.39c-.24.13-.5.29-.78.47a3 3 0 0 1-.9.4 2.44 2.44 0 0 1-1.29 0 5.08 5.08 0 0 1-1.18-.55.77.77 0 0 1-.57-.14 1.26 1.26 0 0 0-.52-.25 6.62 6.62 0 0 0-.94-.71 1.85 1.85 0 0 1-.75-.86c-.05-.28-.11-.57-.17-.86a19.347 19.347 0 0 1-.18-.78 2 2 0 0 1 0-.74 3 3 0 0 0 0-.79v-.72a1.65 1.65 0 0 1 .18-.73 4.47 4.47 0 0 0 .31-.84c.05-.22.08-.43.16-.56.08-.13.15-.28.23-.43a2.52 2.52 0 0 1 .28-.44 6.29 6.29 0 0 1 .54-.7l.63-.66c.132-.18.276-.35.43-.51.21-.212.433-.41.67-.59a7.79 7.79 0 0 0 .7-.63.73.73 0 0 1 .2-.19l.23-.16a6.61 6.61 0 0 1 .72-.39l.77-.35c.189-.1.39-.175.6-.22l.69-.13h.47a1.09 1.09 0 0 0 .39-.08c-.08-.21.01-.35.27-.43.188-.073.39-.1.59-.08a1 1 0 0 1 .63.18c.16.118.305.256.43.41a5 5 0 0 1 .86.82.45.45 0 0 0 .19.11.56.56 0 0 1 .2.12c.097.128.169.274.21.43a.93.93 0 0 0 .26.43c.084.058.16.125.23.2a.61.61 0 0 1 .16.31l.37.14.37.1a.81.81 0 0 0 .41 0c.162-.03.328-.03.49 0a1.9 1.9 0 0 1 .36.09 1 1 0 0 0 .35.06 3.11 3.11 0 0 0 .64-.15 1.4 1.4 0 0 1 .77 0 1.9 1.9 0 0 0 1.23-.12 4.8 4.8 0 0 1 1.31-.35h.06c.16-.2.32-.42.47-.62.3-.39.53-.7.68-.94l.34-.55.29-.5.15-.18a.56.56 0 0 0 .12-.18.42.42 0 0 0-.08-.45.43.43 0 0 1-.11-.41c.14-.34.376-.632.68-.84a2.29 2.29 0 0 0 .69-.64c.11-.098.235-.18.37-.24a1.19 1.19 0 0 0 .37-.27.55.55 0 0 1 .39-.18 1.33 1.33 0 0 1 .45 0c.136.037.267.09.39.16a.53.53 0 0 1 .22.17.85.85 0 0 1 0 .32c-.08.13-.03.16-.08.39s-.11.44-.16.64-.09.36-.15.65c-.06.29-.14.56-.14.82a.87.87 0 0 0 .25.74 1.28 1.28 0 0 0 0 .47c.04.19.14.35.14.51.052.845.203 1.68.45 2.49.25.82.52 1.57.8 2.25 0 .132.02.264.06.39zm-15.4-.82a3.32 3.32 0 0 1-.02-.69 6.1 6.1 0 0 1-.33-.94 2.85 2.85 0 0 0-.41-.9 2.87 2.87 0 0 1-.45-.45.38.38 0 0 0-.14-.14.66.66 0 0 0-.39-.19l-.43-.08a1.42 1.42 0 0 0-1 .14l-.8.49a4.2 4.2 0 0 0-1.09 1l-.26.43c-.09.16-.16.332-.21.51-.11.21-.2.4-.28.57-.087.195-.15.4-.19.61a2.48 2.48 0 0 0-.24.64 4.12 4.12 0 0 1-.08.45 6.32 6.32 0 0 1-.13.82 3.23 3.23 0 0 0-.1.75c.03.08.06.18.12.31a1 1 0 0 0 .15.28c.06.13.11.27.18.43a1.6 1.6 0 0 0 .18.35.87.87 0 0 0 .5.35l.71.2c.29.19.48.19.59.19h.23a1.65 1.65 0 0 0 .9-.43c.235-.216.497-.4.78-.55l.69-1c.25-.36.47-.71.68-1.08a1.33 1.33 0 0 0 .2-.35 2.29 2.29 0 0 1 .16-.35c.18-.21.25-.36.25-.36a.12.12 0 0 1 0-.11 1.83 1.83 0 0 0 .23-.9zm59.21-1.57c.211.04.41.13.58.26a.49.49 0 0 1 .13.32 4.36 4.36 0 0 0-.37.56.4.4 0 0 1-.25.22 7.51 7.51 0 0 1-1.16 1.39 9.12 9.12 0 0 0-1.19 1.35 4.1 4.1 0 0 0-.35.39 6.56 6.56 0 0 1-.36.39 6.41 6.41 0 0 0-.78.69 6.78 6.78 0 0 1-.74.68l-.37.29c-.12.1-.25.21-.38.34a3 3 0 0 1-.35.31l-.35.27-.47.55c-.16.19-.31.38-.47.59a3.76 3.76 0 0 0-.78.47 3.82 3.82 0 0 1-.82.47 1.32 1.32 0 0 0-.38.37.75.75 0 0 1-.45.33 1.22 1.22 0 0 1-.66.06 2.46 2.46 0 0 1-.59-.17 1.1 1.1 0 0 0-.31-.2.54.54 0 0 0-.2 0 3.48 3.48 0 0 1-.5-1.11c-.11-.41-.23-.83-.36-1.28a1.76 1.76 0 0 1-.11-.41 4.56 4.56 0 0 1-.08-.49 1.7 1.7 0 0 1-.06-.31 1.46 1.46 0 0 0-.1-.35c-.05-.13-.1-.27-.16-.41a2.46 2.46 0 0 1-.11-.45v-.39c-.29.31-.598.603-.92.88a6.61 6.61 0 0 0-.88.88 3.55 3.55 0 0 0-.31.23 1.05 1.05 0 0 0-.28.31 4.2 4.2 0 0 0-.57.47l-.48.55a3.11 3.11 0 0 0-.51.33 3.7 3.7 0 0 1-.59.38l-.33.17a.71.71 0 0 1-.37.1 1.57 1.57 0 0 1-.87-.08 4.79 4.79 0 0 0-.74-.23 1.21 1.21 0 0 0-.39-.39 2.88 2.88 0 0 1-.51-1c-.1-.39-.21-.81-.31-1.25a2.75 2.75 0 0 0-.59.5 2 2 0 0 1-.7.51 20.94 20.94 0 0 1-1.67 1.43c-.58.43-1.18.93-1.78 1.43a2.05 2.05 0 0 1-.23.2.23.23 0 0 1-.2 0 .87.87 0 0 1-.53.29 2 2 0 0 1-.72 0 3.52 3.52 0 0 0-.7-.27 4.06 4.06 0 0 1-.63-.24 2 2 0 0 1-1.11-.59 4.55 4.55 0 0 1-.77-1.09 3.16 3.16 0 0 1-.17-.59c-.04-.18-.14-.39-.14-.63a2.87 2.87 0 0 0-.12-.52.69.69 0 0 1 0-.13l-.25.22c-.11.11-.2.22-.3.34a2.06 2.06 0 0 1-.33.33c-.18.13-.36.25-.53.35a2.11 2.11 0 0 0-.45.39 2.15 2.15 0 0 0-.84.63 2.67 2.67 0 0 1-.76.66c-.28.16-.6.36-1 .59a6.5 6.5 0 0 1-1 .51 1 1 0 0 0-.21.08l-.22.08-.6-.39a1.63 1.63 0 0 1-.49-.55 3.64 3.64 0 0 0-.57-.39 2 2 0 0 1-.41-.32c-.26-.44-.56-.88-.88-1.33a5.11 5.11 0 0 1-.76-1.49.75.75 0 0 1-.1-.33c-.06-.11-.01-.16-.06-.37-.05-.21-.16-.39-.16-.55a1.5 1.5 0 0 1 0-.58 1.92 1.92 0 0 1 .08-.51c.05-.18.16-.38.16-.59a8.23 8.23 0 0 1 .37-1 5.2 5.2 0 0 0 .33-1c.08-.29.17-.56.24-.79.07-.23.17-.49.27-.78a1.36 1.36 0 0 0 .1-.37.31.31 0 0 1 .21-.26 6.64 6.64 0 0 1 .51-1.5c.24-.49.43-.84.71-1.39.28-.55.55-1.12.8-1.69.25-.57.51-1.13.8-1.68a1.36 1.36 0 0 1 .31-.78 1.75 1.75 0 0 1 .32-.84 3 3 0 0 0 .39-.84 2.06 2.06 0 0 0-1 0l-.92.17c-.496.03-.994.03-1.49 0a4 4 0 0 1-.52-.09 2.18 2.18 0 0 0-.49-.06 1 1 0 0 1-.53-.06.4.4 0 0 0-.37 0c-.34-.29-.59-.48-.75-.59l-.45-.29a3 3 0 0 1-.39-.31 1.39 1.39 0 0 1-.29-.53.23.23 0 0 1 .12-.2 1 1 0 0 0 .19-.16 2.29 2.29 0 0 1 .71 0 1.06 1.06 0 0 0 .62-.14 2.78 2.78 0 0 0 1.16-.08 3.38 3.38 0 0 1 1.11-.12 1 1 0 0 1 .24 0 .59.59 0 0 0 .23 0 .61.61 0 0 0 .33 0l.34-.08c.166-.02.334-.02.5 0 .182.03.368.03.55 0a5.14 5.14 0 0 1 1.23.1 2.46 2.46 0 0 0 1.28-.06c.127-.36.277-.73.45-1.11a9 9 0 0 0 .41-1.12 5 5 0 0 0 .55-1.09l.37-.63a3.36 3.36 0 0 1 .33-.47 5.3 5.3 0 0 0 .41-1.08c.09-.35.22-.73.37-1.15a9.6 9.6 0 0 0 1-1.33.48.48 0 0 0 .45-.16c.12-.17.29-.15.53 0a.3.3 0 0 0 .1.22.26.26 0 0 1 0 .29c.11.11.213.228.31.35.079.111.143.232.19.36.056.24.039.49-.05.72a.88.88 0 0 0 .05.76.54.54 0 0 1 0 .37.57.57 0 0 0 0 .34c.058.138.132.269.22.39a1 1 0 0 1 .08.8c-.04.12-.09.24-.14.37-.11.39-.19.66-.24.82-.05.16.04.3-.15.51-.19.21-.28.35-.28.41a.34.34 0 0 1 0 .18c-.07.16-.16.35-.25.57a5.57 5.57 0 0 1-.25.53c.33.05.62.11.86.11l.64.06c.203.02.407.02.61 0a5.54 5.54 0 0 0 .78-.1l1.55-.21c.45-.07.96-.18 1.5-.18a2 2 0 0 1 .49 0c.163.014.327.014.49 0h1l.92-.08.27-.07a.33.33 0 0 1 .24 0h.7a.77.77 0 0 1 .63.25 1 1 0 0 1 .08.43.36.36 0 0 0-.08.12c-.03.34-.04.51-.14.51s-.1.02-.1.08l-.52.13a.56.56 0 0 0-.34.26c-.389.133-.8.19-1.21.17a1.88 1.88 0 0 0-1.15.17 3.91 3.91 0 0 0-.57.3.84.84 0 0 1-.73 0h-.9l-1 .08-1.55.14c-.43.08-.84.08-1.23.08l-1.2.06H214a1.22 1.22 0 0 0-.61.38 1.18 1.18 0 0 1-.41.63 4.93 4.93 0 0 1-.51 1 1.55 1.55 0 0 0-.28.61c-.363.47-.697.96-1 1.47a9.6 9.6 0 0 1-1 1.43 2 2 0 0 1-.3.76 2.17 2.17 0 0 0-.29.88 4.08 4.08 0 0 0-.63 1.29c-.13.49-.3.97-.5 1.49-.06.21-.11.4-.18.6-.07.2-.14.4-.22.61a3.85 3.85 0 0 1-.37.73 8 8 0 0 0-.41.72.29.29 0 0 0-.08.21.43.43 0 0 1 0 .22 3.75 3.75 0 0 1-.23.49c-.08.14-.14.28-.2.41-.05.131-.08.27-.09.41a1.89 1.89 0 0 1-.1.41c-.08.08-.05.16-.08.22s-.08.13-.08.21c-.085.24-.085.5 0 .74a3 3 0 0 1 .2.4c.05.15.15.29.15.41.06.116.1.241.12.37l.37.15a.81.81 0 0 0 .38.08.59.59 0 0 0 .5-.21 1.19 1.19 0 0 1 .47-.3 2 2 0 0 1 .53-.07.84.84 0 0 0 .45-.12 2.39 2.39 0 0 0 .39-.39.92.92 0 0 1 .43-.28c.42-.1.67-.19.67-.25a1 1 0 0 1 .27-.29c.18-.13.35-.26.49-.38a5.85 5.85 0 0 1 .53-.37l.45-.23.33-.28a3.09 3.09 0 0 0 .67-.43h.08a4.84 4.84 0 0 1 .23-.61 1.53 1.53 0 0 1 .31-.39.68.68 0 0 0 .12-.24.52.52 0 0 1 .12-.19 1 1 0 0 1 .23-.24 2.3 2.3 0 0 0 .28-.23 2.34 2.34 0 0 1 .45-.49c.17-.15.33-.29.49-.45a1.21 1.21 0 0 0 .21-.28.59.59 0 0 1 .3-.23 1.8 1.8 0 0 1 .35-.45l.43-.37a5.48 5.48 0 0 1 1.64-1.37 9.93 9.93 0 0 0 1.76-1.25 2 2 0 0 0 .47-.28l.39-.31a1.08 1.08 0 0 1 1.06-.27l1 .27.76.7c.246.238.464.503.65.79a2.49 2.49 0 0 1 .62 0 3.29 3.29 0 0 0 .75-.06.53.53 0 0 0 .23-.06.45.45 0 0 1 .2-.06c.39.13.58.33.58.59v.31a.93.93 0 0 1-.07.47 1 1 0 0 0-.24.51l-.14.27a1 1 0 0 0-.09.32 1.17 1.17 0 0 0-.06.54 3.75 3.75 0 0 1 0 .59c-.05.29-.09.56-.12.84-.03.28-.08.56-.08.84a6 6 0 0 1-.08 1c-.05.39-.15.71-.15 1 .103.182.168.382.19.59a.75.75 0 0 0 .28.5 3.19 3.19 0 0 0 2.15-1.09 2.45 2.45 0 0 0 .49-.27 3.43 3.43 0 0 1 .45-.32l.15-.15.16-.16.53-.31a1 1 0 0 1 .25-.16 4.51 4.51 0 0 0 .88-.74c.142-.708.34-1.403.59-2.08.3-.78.61-1.52.92-2.23a2.93 2.93 0 0 1 .22-.74 7.24 7.24 0 0 0 .25-.71 1.65 1.65 0 0 0 .27-.62c.06-.24.12-.51.2-.71.08-.2.18-.43.29-.68a3.21 3.21 0 0 0 .26-.73c.08-.26.15-.52.21-.78a3.39 3.39 0 0 1 .26-.7c.21-.57.39-1.09.58-1.57.19-.48.38-.99.59-1.48.05-.16.1-.32.16-.47a1.37 1.37 0 0 1 .23-.43 1.63 1.63 0 0 1 .2-.42c.08-.11.15-.24.23-.37a.33.33 0 0 1 .14-.29.76.76 0 0 0 .22-.25 3 3 0 0 0 .29-.63 2.53 2.53 0 0 1 .29-.63l.47-.58c.05-.11.16-.21.16-.32a.83.83 0 0 1 .23-.27c.29-.47.6-.94.94-1.41l1.06-1.49a7.74 7.74 0 0 1 .78-1c.287-.353.587-.687.9-1 .1-.13.23-.28.37-.43a.86.86 0 0 1 .45-.28c.266-.02.534.007.79.08.07.13.15.27.21.41.07.16.13.323.18.49.05.784.022 1.571-.08 2.35-.11.76-.22 1.5-.35 2.23a.94.94 0 0 0 0 .37 1.56 1.56 0 0 1 0 .37c-.06.16-.12.36-.2.61-.08.25-.14.48-.19.69a1.94 1.94 0 0 1-.24 1 2.8 2.8 0 0 0-.31.86.34.34 0 0 0-.14.26.3.3 0 0 1-.14.25 2.81 2.81 0 0 1-.25.79 3.83 3.83 0 0 0-.29.7c-.39.58-.8 1.07-1.2 1.58-.4.51-.72.87-1.15 1.59-.43.72-.92 1.37-1.43 2a23.26 23.26 0 0 0-1.43 2 4.69 4.69 0 0 0-.86 1 3.78 3.78 0 0 1-.9 1c-.13.52-.25 1.09-.37 1.7-.12.61-.24 1.23-.37 1.86a4.54 4.54 0 0 1-.12.53l-.16.53a2.06 2.06 0 0 0 0 .66c.03.23-.008.462-.11.67.052.145.085.296.1.45a1 1 0 0 0 .13.45c.065.084.139.161.22.23a.39.39 0 0 0 .25.12.93.93 0 0 1 .31-.14h.12a2.12 2.12 0 0 0 .39-.31l.36-.35a1 1 0 0 0 .29-.18l.21-.18a.9.9 0 0 1 .22-.11.94.94 0 0 0 .18-.12 4.71 4.71 0 0 1 1-.88 2.75 2.75 0 0 0 .82-.72l.71-.43c.159-.084.298-.2.41-.34a1.25 1.25 0 0 1 .45-.33 1.08 1.08 0 0 1 .16-.2 1 1 0 0 0 .15-.19l.92-.63 1-.62a.72.72 0 0 1 .25-.32c.11-.064.21-.14.3-.23a1 1 0 0 0 .19-.26.42.42 0 0 1 .28-.17.39.39 0 0 1 .17-.28.75.75 0 0 0 .26-.27zm-5.42-8.49L237.1 123a10.76 10.76 0 0 0 1.49-1.85 12.17 12.17 0 0 1 1.43-1.88 21.14 21.14 0 0 1 1.21-2.48 9.86 9.86 0 0 0 1-2.6 1 1 0 0 1 0-.84 1.58 1.58 0 0 0 .16-.85.7.7 0 0 0-.49.36 4 4 0 0 0-.26.62c-.1.21-.19.37-.25.47a.68.68 0 0 0-.06.47 38.73 38.73 0 0 0-2.21 4.19zm-17.83 13.87a14.7 14.7 0 0 0 2.2-2.6 13.14 13.14 0 0 1 0-2 5.16 5.16 0 0 0-.18-1.78.72.72 0 0 0-.37-.06.88.88 0 0 1-.37 0 9.74 9.74 0 0 0-1.92 1.2 17.41 17.41 0 0 0-1.64 1.47c-.13.13-.27.25-.41.37a2.23 2.23 0 0 0-.38.37 2.92 2.92 0 0 0-.29.47c-.09.18-.18.35-.25.51a2.22 2.22 0 0 1-.16.25l-.16.22a.89.89 0 0 0-.06.39c.01.143.01.287 0 .43v.39c-.01.13-.01.26 0 .39.079.28.12.57.12.86a6 6 0 0 0 .06.77.83.83 0 0 0 .29.6.54.54 0 0 0 .49.08l.45-.12a29.34 29.34 0 0 0 2.58-2.21zm-81.09-11.93a.44.44 0 0 1 .42.46 2.09 2.09 0 0 1-.36 1.13 4.74 4.74 0 0 1-1 .39 8 8 0 0 0-1.37.53c-.24.147-.36.267-.36.36 0 .093-.12.233-.36.42-2.907.1-5.997.23-9.27.39-3.273.16-6.547.267-9.82.32-4.367.047-8.67-.037-12.91-.25a104.72 104.72 0 0 0-12.54.11l-3.45.24-3.28.25c-1.95.1-3.28.18-4 .25-.733.067-1.523.127-2.37.18-3.36.06-6.84.11-10.36 0-3.52-.11-7.08-.07-10.72 0-3.64.07-7.22.07-10.73.07a396.77 396.77 0 0 0-10.54 0c-2.43.05-4.85.11-7.27.11-2.427.013-4.73.047-6.91.1h-4.91c-1.52 0-3 .05-4.45.14-1.82-.087-3.76-.157-5.82-.21a13.18 13.18 0 0 1-4.72-.78c-.61-.33-1.22-.68-1.82-1.06-.24-.19-.54-.41-.91-.67-.37-.26-.48-.49-.37-.68.98-.42 1.49-.72 1.55-.88a.94.94 0 0 1 .45-.46 3.47 3.47 0 0 1 1.37-.71c.87-.13 1.75-.2 2.63-.21h3.09a33.73 33.73 0 0 1 3.91.07l3.95.31c1.36.11 2.81.14 4.36.11 1.55-.03 3.09-.11 4.55-.11 2.42-.09 4.85-.2 7.27-.32s5.03-.22 7.81-.32c1.34-.14 2.69-.14 4.09-.14s2.77-.05 4.1-.14c1.33-.09 2.72-.21 4.18-.21l4.18-.14h2l2.54.11c2.067.047 4.34.047 6.82 0 2.48-.047 4.69-.047 6.63 0 2.06 0 4.12-.023 6.18-.07 2.06-.047 4.183-.07 6.37-.07h11.9c4.06.06 8.03 0 11.91 0h6.18c1.09 0 2.15 0 3.18.07 1.03.07 2.09.07 3.18.07 1.46 0 2.91-.05 4.36-.14 1.515-.1 3.035-.1 4.55 0a28 28 0 0 0 3.09.35 6 6 0 0 1 1.09.07c.258.054.505.153.73.29.284.154.586.272.9.35l1.1.32zM81.11 32.73l-.2-.62a1.53 1.53 0 0 1 0-.61 1.9 1.9 0 0 1 .19-.53c.1-.2.2-.39.29-.59A7 7 0 0 0 82 29a7 7 0 0 1 .58-1.36 1.21 1.21 0 0 0 .17-.25 1 1 0 0 1 .17-.24c.09-.19.18-.38.26-.58.08-.2.16-.37.22-.54.26-.55.52-1.04.8-1.62.28-.58.58-1.06.9-1.58l.9-1.53c.241-.42.534-.81.87-1.16a6.19 6.19 0 0 1 .73-1.48 6.56 6.56 0 0 0 .72-1.48 3.85 3.85 0 0 0 .51-.92c.15-.34.3-.68.47-1 .214-.57.471-1.12.77-1.65l.2-.3a1.05 1.05 0 0 0 .14-.34c.1-.29.21-.58.34-.87.13-.29.26-.57.39-.83.26-.54.51-1.04.75-1.48.253-.433.503-.893.75-1.38-.87.29-1.69.61-2.47.95a15.37 15.37 0 0 0-2.23 1.19 2.63 2.63 0 0 0-.59.56 2.54 2.54 0 0 1-.58.55 3.34 3.34 0 0 1-2 .73 1.1 1.1 0 0 1-.53-.48 5.92 5.92 0 0 1 .94-1.63l1.15-1.33c.38-.23.7-.46 1-.69a16 16 0 0 0 .87-.72l.87-.78c.28-.25.593-.462.93-.63l1.34-.68c.41-.21.807-.444 1.19-.7a10.91 10.91 0 0 1 2-1.21l2.11-1c.32-.17.66-.31 1-.44a5.45 5.45 0 0 1 1-.29 9.47 9.47 0 0 1 1.11-.24 6.83 6.83 0 0 0 1.12-.3 6.51 6.51 0 0 0 1.48-.34 4 4 0 0 1 1.53-.19.69.69 0 0 1 .29.05l.29.1a3.16 3.16 0 0 1 .9.09l.51.2c.302.117.596.254.88.41l.82.46c.138.085.269.182.39.29.104.107.218.204.34.29.18.109.35.233.51.37l.17.3a2 2 0 0 0 .46.36.41.41 0 0 1 .17.46c.13.32.26.66.39 1a3.3 3.3 0 0 1 .19 1.1 1.59 1.59 0 0 1-.07.48c-.05.16-.11.33-.17.49a2.49 2.49 0 0 0-.12.63 1.38 1.38 0 0 1-.17.53c-.07.46-.14.91-.22 1.34-.08.43-.16.9-.22 1.38a2.89 2.89 0 0 0 0 .53c.017.18.017.36 0 .54-.06.41-.174.81-.34 1.19a2.76 2.76 0 0 0-.24 1.09 8.7 8.7 0 0 1-.63 1.63c-.23.4-.47.82-.73 1.24a7.43 7.43 0 0 0-.83 1.53c-.22.56-.47 1.12-.72 1.67a.78.78 0 0 0-.13.34.66.66 0 0 1-.12.34 2.59 2.59 0 0 0-.48.73 2.47 2.47 0 0 1-.15.43c-.1.23-.19.49-.31.76s-.22.54-.32.8a5.72 5.72 0 0 0-.29.53 4 4 0 0 1-.36.58l-.47.64c-.51.81-1.05 1.57-1.6 2.28A26.63 26.63 0 0 1 99.71 30a25.55 25.55 0 0 1-2.52 2.34c-.89.68-1.78 1.39-2.65 2.13-.35.26-.68.53-1 .81a11.92 11.92 0 0 1-1.07.8 3.48 3.48 0 0 1-.51.34 2 2 0 0 0-.51.38 7.17 7.17 0 0 1-1.94 1.27 3.93 3.93 0 0 0-.73.22.69.69 0 0 1-.24.07 2 2 0 0 1-.58.1 3.9 3.9 0 0 0-.59 0 1 1 0 0 0-.29.05 1.11 1.11 0 0 1-.34 0 4.2 4.2 0 0 1-.8-.19c-.27-.1-.54-.18-.8-.25l-.34-.09a2.31 2.31 0 0 0-.34-.1l-.63-.34a5.82 5.82 0 0 1-.58-.34c-.49-.13-.78-.31-.88-.53a2.25 2.25 0 0 0-.38-.63c-.2-.66-.36-1.18-.47-1.66-.11-.48-.25-1.03-.41-1.65zm3.4 2.6a.5.5 0 0 1-.1.33 3.18 3.18 0 0 0 1.24-.39 2.75 2.75 0 0 1 1.14-.39 3.13 3.13 0 0 0 .85-.61 1.6 1.6 0 0 1 1-.41 9.39 9.39 0 0 0 1.38-1 4.25 4.25 0 0 1 1.53-.9c.5-.42.99-.82 1.5-1.19.53-.38.99-.851 1.36-1.39a3 3 0 0 0 .68-.43c.2-.23.38-.46.56-.68a7.88 7.88 0 0 0 .51-.73 4.54 4.54 0 0 0 .83-.87 2.88 2.88 0 0 1 .87-.83 2.28 2.28 0 0 1 .53-.8 5.47 5.47 0 0 0 .64-.71c.253-.319.487-.653.7-1a6.41 6.41 0 0 1 .7-1c.44-.84.93-1.65 1.44-2.42a13.49 13.49 0 0 0 1.28-2.58A8.1 8.1 0 0 0 104 16a9.81 9.81 0 0 0 .49-1.41c.24-.243.4-.554.46-.89a.77.77 0 0 1 .61-.66 2.56 2.56 0 0 0 .41-1.36c.02-.52.06-1.02.12-1.5a1.08 1.08 0 0 0 0-.44 1.74 1.74 0 0 1 0-.39c.03-.26.12-.52.12-.8a1.47 1.47 0 0 0 0-.7 2.58 2.58 0 0 1-.27-.51.71.71 0 0 0-.07-.22 1.59 1.59 0 0 1-.1-.54c-.06-.25-.12-.44-.12-.55a1.23 1.23 0 0 0-.17-.42 3 3 0 0 1-.36-.63 1.55 1.55 0 0 0-.37-.53 6.21 6.21 0 0 0-.7-.05h-.7a4.49 4.49 0 0 0-1.29.27c-.41.14-.82.3-1.24.46a6.11 6.11 0 0 0-.82.34l-.78.39a11.27 11.27 0 0 0-1.55 1.02 2.1 2.1 0 0 1-.13.26 1.69 1.69 0 0 0-.12.27 3.72 3.72 0 0 0-.8 1.19 9.52 9.52 0 0 1-.61 1.24c-.25.42-.49.83-.7 1.24l-.65 1.23a9.08 9.08 0 0 1-.51.95 5.48 5.48 0 0 0-.47.9 8.36 8.36 0 0 0-.82 1.6c-.1.23-.22.451-.36.66a1.94 1.94 0 0 0-.32.7 6.54 6.54 0 0 1-.32.65 3.35 3.35 0 0 0-.26.66 1.52 1.52 0 0 0-.12.53 1.78 1.78 0 0 1-.13.54c-.09.29-.2.58-.31.87a9.2 9.2 0 0 0-.32 1 4.16 4.16 0 0 1-.51.68 3.9 3.9 0 0 0-.46.63 3.19 3.19 0 0 1-.36.76 1.79 1.79 0 0 0-.27.46 7.11 7.11 0 0 0-.44.82c-.13.29-.27.59-.43.88l-.22.29a1.66 1.66 0 0 0-.22.34 3.22 3.22 0 0 0-.24.61c-.07.21-.15.44-.25.7a4.62 4.62 0 0 1-.31.63 3 3 0 0 0-.27.58c-.13.23-.25.45-.34.68-.09.23-.18.44-.24.63a5 5 0 0 0-.24.68 5.54 5.54 0 0 1-.25.68c-.15.29-.277.59-.38.9-.07.21-.14.42-.2.61s-.14.39-.22.6a1.78 1.78 0 0 0-.12.61.6.6 0 0 0-.24.34 1.84 1.84 0 0 0 0 .41v.44zm24.71-11.48a9.63 9.63 0 0 1 .83-.59c.31-.237.6-.498.87-.78a1.09 1.09 0 0 1 .24-.24l.29-.19c.33-.2.63-.36.9-.49l1-.44a3.53 3.53 0 0 1 .75-.26l.85-.17h.58a1.19 1.19 0 0 0 .49-.1c-.1-.26.02-.44.34-.53a1.66 1.66 0 0 1 .73-.1 1.21 1.21 0 0 1 .77.22 2.6 2.6 0 0 1 .54.51 6.69 6.69 0 0 1 1.07 1 .57.57 0 0 0 .24.14.58.58 0 0 1 .24.15 1.4 1.4 0 0 1 .27.53c.051.205.159.392.31.54.11.067.21.148.3.24a.8.8 0 0 1 .19.39l.46.17c.15.05.304.09.46.12a1 1 0 0 0 .51 0c.202-.03.408-.03.61 0 .15.027.297.067.44.12.138.05.283.075.43.07a4 4 0 0 0 .8-.19c.31-.087.64-.087.95 0a2.29 2.29 0 0 0 1.53-.15 6.26 6.26 0 0 1 1.31-.37c.05-.1.1-.2.15-.28a2.86 2.86 0 0 1 .31-.46c.1-.16.19-.33.27-.49.08-.16.17-.32.27-.48a4.9 4.9 0 0 0 .26-.56 2 2 0 0 1 .37-.61 4.9 4.9 0 0 0 .53-.73.91.91 0 0 1 .63-.43.51.51 0 0 0 .42 0 2.56 2.56 0 0 1 .43-.17 2.69 2.69 0 0 1 .41-.1.34.34 0 0 1 .34.17c.334.193.645.42.93.68.161.152.293.331.39.53a1 1 0 0 1 0 .9 1.78 1.78 0 0 1-.68.8 4.69 4.69 0 0 1-.68 1.56c-.32.48-.61.95-.87 1.4-.06.17-.13.33-.19.49l-.2.48c-.19.46-.39.91-.6 1.36-.213.45-.45.887-.71 1.31-.13.26-.24.47-.34.64a2.91 2.91 0 0 1-.29.41 1.27 1.27 0 0 0-.24.41c-.07.16-.15.37-.25.63a2 2 0 0 0 .64-.63 5.61 5.61 0 0 1 .58-.78 6.68 6.68 0 0 1 1.36-1.21 2.36 2.36 0 0 1 .85-.75 2 2 0 0 0 .8-.8l.17-.29a2.28 2.28 0 0 1 .17-.3 11.2 11.2 0 0 1 2-2.13l.56-.49c.2-.181.418-.342.65-.48a4.06 4.06 0 0 0 .85-.63 3 3 0 0 1 .9-.59 6 6 0 0 1 .63-.22 6 6 0 0 0 .63-.17l.61-.17c.2-.054.41-.054.61 0a2.27 2.27 0 0 1 1.16 1.31 2.2 2.2 0 0 1-.07 1c-.11.54-.26 1.12-.44 1.75-.18.63-.37 1.24-.56 1.82-.19.58-.38 1-.38 1.26v.54a2.55 2.55 0 0 0-.15.44c-.03.13-.1.27-.1.43a6.89 6.89 0 0 0-.14 1.05 3 3 0 0 0 0 1c.35-.03.55-.1.55-.1a.14.14 0 0 1 .12-.05.69.69 0 0 1 .32 0 .69.69 0 0 0 .32 0 3.85 3.85 0 0 0 1-.42c.3-.18.575-.4.82-.65.6-.26 1.22-.51 1.6-.78.38-.27.69-.46.94-.61.08-.09.08-.18.08-.26a10.62 10.62 0 0 1 1.94-3.23 26.23 26.23 0 0 1 2.6-2.57c.9-.78 1.77-1.47 2.6-2.09a11.31 11.31 0 0 0 2-1.79 2.33 2.33 0 0 0 .78-.3l.92-.5a7.58 7.58 0 0 1 1-.47 2.86 2.86 0 0 1 1-.19 2.35 2.35 0 0 1 .9.14c.187.102.35.241.48.41.121.133.213.29.27.46.05.171.12.336.21.49.202-.53.366-1.076.49-1.63a7 7 0 0 1 .53-1.53 17.12 17.12 0 0 1 1-3.2c.47-1.14.94-2.19 1.41-3.14.47-.95.89-1.75 1.26-2.42.37-.67.59-1.05.65-1.14a11 11 0 0 1 1.63-2 10.37 10.37 0 0 0 1.48-1.72 8 8 0 0 0 1-1.34 3.36 3.36 0 0 1 .75-1c.4.082.77.273 1.07.55.203.216.354.476.44.76a2 2 0 0 1 0 .77 5.36 5.36 0 0 0 0 .59c0 .52-.051 1.04-.15 1.55l-1.65 3.45c-.45.84-.88 1.7-1.29 2.57-.4.873-.78 1.763-1.14 2.67a19.21 19.21 0 0 1-2 3.06 22.42 22.42 0 0 0-1.92 2.81 4.49 4.49 0 0 1-.51 1c-.21.36-.41.67-.61 1l-.87 2.08a1.22 1.22 0 0 0-.29.73c.052.124.083.256.09.39v2.04c0 .84.01 1.67.05 2.5.04.83.08 1.61.15 2.35a.78.78 0 0 0-.1.25 1 1 0 0 0 .37.7c.188.175.344.381.46.61a1.4 1.4 0 0 1 .48 0 .62.62 0 0 0 .25 0 1.33 1.33 0 0 0 .55-.22 6.87 6.87 0 0 0 .73-.51c.24-.2.47-.39.68-.59a5.85 5.85 0 0 1 .51-.43 1.93 1.93 0 0 0 .67-.34c.08-.12.08-.24.08-.37.09-.33.15-.68.2-1a4.92 4.92 0 0 0 .07-.68 3.3 3.3 0 0 0 .24-.41l.42-.8c.14-.3.26-.56.36-.8a1.82 1.82 0 0 0 .15-.47c.153-.12.29-.257.41-.41l.7-.82c.26-.31.5-.59.73-.83a1.64 1.64 0 0 1 .49-.41 4.27 4.27 0 0 1 .26-.41c.1-.131.226-.24.37-.32a3.48 3.48 0 0 1 1-1.19 8.7 8.7 0 0 0 1.21-1.09 11.77 11.77 0 0 0 1.87-1 4.16 4.16 0 0 1 2.11-.65 1.7 1.7 0 0 0 1 .14c.335-.063.68.03.94.25.1.216.252.404.44.55a1 1 0 0 1 .29.27 5.6 5.6 0 0 0 .29.8c.07.129.12.267.15.41.06.487.09.837.09 1.05.04.201.04.409 0 .61a13.68 13.68 0 0 1-.43 2.38c-.07.2-.13.4-.2.61a2.2 2.2 0 0 1-.24.56 7.2 7.2 0 0 0-.51.75 4.81 4.81 0 0 1-.31.51c-.37.42-.71.84-1 1-.29.16-.59.34-.88.53a2.36 2.36 0 0 1-1 .39L176 30a1.35 1.35 0 0 1-.44.21 3.78 3.78 0 0 1-1 .51c-.3.11-.65.25-1 .41a2.63 2.63 0 0 0-.63.34 4.35 4.35 0 0 1-.68.39 4.65 4.65 0 0 1-.71.17 4 4 0 0 0-.65.17 2.4 2.4 0 0 1 .19 1.21 2.15 2.15 0 0 0 .25 1.22c.456.099.916.172 1.38.22a6.16 6.16 0 0 0 1.43 0 3 3 0 0 0 .54-.17c.185-.08.38-.138.58-.17a9.22 9.22 0 0 0 1-.24 3.7 3.7 0 0 0 .9-.39 12.83 12.83 0 0 0 2.72-1.31 13.12 13.12 0 0 0 2.28-1.8 9.63 9.63 0 0 0 1.29-1.06 8.17 8.17 0 0 0 1.09-1.27c.4-.434.831-.839 1.29-1.21a1.5 1.5 0 0 1 1-.39 1 1 0 0 1 .75.46.72.72 0 0 1-.07 1 4.73 4.73 0 0 0-1 .87 3.22 3.22 0 0 1-1.12.83 6 6 0 0 0-1.09 1c-.307.43-.64.842-1 1.23-.13.13-.3.28-.51.46a4.07 4.07 0 0 0-.51.51 11.18 11.18 0 0 1-1.46 1.07.34.34 0 0 0-.43.1 2 2 0 0 1-.39.38l-.32.2-.31.19c-.26.23-.55.46-.85.68a6.37 6.37 0 0 1-1 .58 16.25 16.25 0 0 1-1.94 1 11 11 0 0 0-1.89 1c-.2.08-.38.08-.54.08a4 4 0 0 0-.48.07 1.89 1.89 0 0 1-.51.1 3 3 0 0 1-.61-.1 6.52 6.52 0 0 1-1.46-.58 5.24 5.24 0 0 1-1.16-1 5.3 5.3 0 0 0-.63-.54 2.1 2.1 0 0 1-.54-.53 4.48 4.48 0 0 1-.34-.78 10.28 10.28 0 0 1-.34-1.14c-.07-.13-.07-.25-.07-.37a7.22 7.22 0 0 0-.83.83 6.16 6.16 0 0 1-1.67 1.46h-.19a.47.47 0 0 0-.32.1.44.44 0 0 1-.31.09l-.68-.26a2.51 2.51 0 0 1-.6-.37 3.8 3.8 0 0 1-.68-.7 10.68 10.68 0 0 1-.85-1.29 3.7 3.7 0 0 1-.39-.8 6.31 6.31 0 0 0-.39-.85c-.26-.48-.48-.88-.66-1.19a3.63 3.63 0 0 1-.26-1.62c0-.33.02-.81.09-1.46.07-.65.13-1.17.2-1.55a8.11 8.11 0 0 0-1.32 1.83c-.41.71-.81 1.39-1.19 2-.55.84-1.11 1.63-1.68 2.35a3.69 3.69 0 0 0-.9 1.73 3.72 3.72 0 0 0-.53.68c-.16.26-.3.49-.41.7a3.05 3.05 0 0 0-.25.54c-.067.14-.067.18 0 .12a3.68 3.68 0 0 1-2 1.57 7.12 7.12 0 0 1-2.4.47l-.88-.1a1.68 1.68 0 0 1-.82-.34l-.73-.54a2.09 2.09 0 0 1-1.07-1.21A5.48 5.48 0 0 1 145 34c.282-.71.49-1.447.62-2.2a3.87 3.87 0 0 1-.37.28l-.48.29-.49.29c-.474.242-.928.52-1.36.83l-1.36 1a9.25 9.25 0 0 1-1 .51 5.08 5.08 0 0 0-.95.51.72.72 0 0 1-.26 0 .47.47 0 0 0-.27.08.48.48 0 0 0-.49 0 .58.58 0 0 1-.48 0 7.69 7.69 0 0 0-.66-.49.76.76 0 0 1-.26-.24 1.18 1.18 0 0 1-.08-.54.65.65 0 0 0-.12-.48c0-.67.07-1.35.07-2 .06-.673.166-1.342.32-2 .03-.23.09-.55.19-.95.1-.4.19-.82.25-1.19s.11-.71.14-1c.03-.29 0-.46-.09-.53a4.6 4.6 0 0 0-1.1.87 9.84 9.84 0 0 1-1 1c-.26.2-.5.38-.75.54-.25.16-.5.34-.76.53a6.17 6.17 0 0 0-.58.49c-.16.16-.34.35-.53.58-.233.227-.443.447-.63.66a5.71 5.71 0 0 1-.68.6 2.55 2.55 0 0 1-.37.32 2 2 0 0 0-.31.27c-.17.16-.32.31-.46.46a2.08 2.08 0 0 1-.56.36c-.237.304-.49.595-.76.87-.3.28-.61.63-.92 1-.31.37-.6.74-.9 1.09a8 8 0 0 0-.68 1 7.92 7.92 0 0 1-1.23.85 1.94 1.94 0 0 1-1.58.07 2.2 2.2 0 0 1-.63-.48.93.93 0 0 0-.34-.29c.03-.34.1-.68.1-1a3 3 0 0 1 .41-1.22c.05-.08.1-.17.17-.27.166-.31.271-.65.31-1a3.45 3.45 0 0 1 .32-1 3.07 3.07 0 0 0 .36-.8 2 2 0 0 1 .22-.56 2.4 2.4 0 0 1 .27-.46c.109-.141.2-.296.27-.46a2.3 2.3 0 0 1 .33-.56 2 2 0 0 0 .34-.56c.1-.35.21-.7.34-1.06.13-.36.37-.84.44-1.07.07-.23.13-.45.2-.66.062-.202.139-.4.23-.59h-.06c-.67.08-1.32.19-2 .32a2.79 2.79 0 0 1-.66.38l-.36.15a2.68 2.68 0 0 0-1-.19 4 4 0 0 1-1.07-.15c-.18.066-.369.1-.56.1a1.86 1.86 0 0 0-.55.09 1.93 1.93 0 0 0-.2.88 2.65 2.65 0 0 1-.14.87l-.3.58c-.07.17-.07.32-.07.47a2.24 2.24 0 0 1-.12.46c-.07.09-.14.21-.22.34a.8.8 0 0 0-.12.43 2.32 2.32 0 0 0-.49.9 1.65 1.65 0 0 1-.53.85 1.73 1.73 0 0 1-.46.78 5.14 5.14 0 0 0-.61.68c-.35.48-.67.9-.94 1.26a3.6 3.6 0 0 1-1.1.92 1.3 1.3 0 0 1-.58.54 2.27 2.27 0 0 0-.39.48c-.32.16-.64.36-1 .58a3.77 3.77 0 0 1-1.11.49 3 3 0 0 1-1.61-.05 6 6 0 0 1-1.45-.68.92.92 0 0 1-.71-.17 1.64 1.64 0 0 0-.69-.27 7.78 7.78 0 0 0-1.17-.88 2.23 2.23 0 0 1-.92-1.07c-.06-.35-.14-.67-.22-1.06-.08-.39-.15-.71-.22-1a2.63 2.63 0 0 1 0-.93 3.5 3.5 0 0 0 0-1v-.9c0-.31.075-.616.22-.89a6.48 6.48 0 0 0 .41-1.05 5.7 5.7 0 0 1 .19-.7c.1-.16.19-.34.29-.54a3.2 3.2 0 0 1 .34-.53 7.37 7.37 0 0 1 .68-.87c.26-.3.52-.57.78-.83a5.42 5.42 0 0 1 .53-.63zm64.28 2.43a2 2 0 0 1-.44.58c-.16.15-.34.3-.53.46a2.74 2.74 0 0 1-.37.49 4.3 4.3 0 0 0-.38.49c-.12.16-.21.34-.27.53a.83.83 0 0 0 .05.63 1.75 1.75 0 0 0 1.07-.14l.92-.44a5 5 0 0 1 .8-.41 3.91 3.91 0 0 0 .75-.42l1.26-1.26a3.5 3.5 0 0 0 .59-.63l.53-.73a3.34 3.34 0 0 1 .39-1c.18-.301.264-.65.24-1a1.61 1.61 0 0 0-.17-.51 1.5 1.5 0 0 1-.17-.46 1.44 1.44 0 0 0-.75.17 2.62 2.62 0 0 1-.61.27c-.22.29-.45.56-.68.82a5.38 5.38 0 0 1-.77.73 5.25 5.25 0 0 1-.68 1c-.26.29-.52.57-.78.83zm-22.58 3.06a10.31 10.31 0 0 1-.56 1.6 3.38 3.38 0 0 0-.29 1.41c0 .42.14.65.41.65h.61a6.89 6.89 0 0 0 1.19-1.05c.4-.43.79-.89 1.16-1.36.37-.432.704-.894 1-1.38a6.85 6.85 0 0 0 .61-1.21c.36-.65.76-1.3 1.21-2a12.22 12.22 0 0 1 1.49-1.98l1.26-2c.07-.16.13-.3.2-.43a1 1 0 0 0 .09-.44.88.88 0 0 0-.19-.58.74.74 0 0 0-.34.07l-.24.12-1.22.78a3.28 3.28 0 0 0-1 .7c-.37.37-.71.69-1 .95l-1 .92a3.15 3.15 0 0 1-.92 1.07 4.46 4.46 0 0 0-1 1 11.67 11.67 0 0 0-1 1.6 3 3 0 0 0-.47 1.56zm-40.73-.81c-.03.22-.06.4-.09.53a9.86 9.86 0 0 1-.17 1c-.08.3-.124.61-.13.92.04.1.08.23.15.39a.92.92 0 0 0 .19.34l.22.54c.06.15.134.293.22.43a1 1 0 0 0 .63.44l.88.24c.208.156.46.243.72.25a1 1 0 0 1 .3 0 2.15 2.15 0 0 0 1.11-.54 5.06 5.06 0 0 1 1-.68c.26-.38.54-.79.85-1.23.31-.44.59-.89.85-1.34a1.55 1.55 0 0 0 .24-.44c.07-.16.13-.3.2-.43.22-.26.31-.44.31-.44a.24.24 0 0 1 0-.15 2.32 2.32 0 0 0 .29-1.11 3.39 3.39 0 0 1 0-.78 7.17 7.17 0 0 1-.41-1.16 3.83 3.83 0 0 0-.51-1.12 3.78 3.78 0 0 1-.56-.56.46.46 0 0 0-.17-.17.84.84 0 0 0-.49-.24l-.53-.1a1.76 1.76 0 0 0-1.29.17l-1 .61a5.4 5.4 0 0 0-1.35 1.21l-.32.54a2.53 2.53 0 0 0-.26.63c-.13.26-.25.49-.34.7a3.87 3.87 0 0 0-.25.75 2.93 2.93 0 0 0-.29.8zm89.67 3.65a3.53 3.53 0 0 1-.25-.56 5.57 5.57 0 0 1-.08-1.14c.02-.369.06-.736.12-1.1.192-1.04.477-2.06.85-3.05.38-.98.76-1.9 1.14-2.77a4.6 4.6 0 0 1 .27-.92 6.83 6.83 0 0 0 .32-.88c.165-.234.28-.5.34-.78a7 7 0 0 1 .24-.87c.1-.26.22-.54.36-.85a4.23 4.23 0 0 0 .32-.9c.1-.35.19-.67.27-1 .071-.3.175-.592.31-.87.26-.68.5-1.32.73-1.94.23-.62.47-1.23.73-1.85l.19-.58a2 2 0 0 1 .29-.54 2.12 2.12 0 0 1 .25-.5l.29-.47a.4.4 0 0 1 .17-.36.94.94 0 0 0 .27-.32 3.15 3.15 0 0 0 .36-.77 3.4 3.4 0 0 1 .36-.78l.59-.73.19-.39a1 1 0 0 1 .29-.34c.36-.58.75-1.16 1.17-1.74l1.31-1.85a10 10 0 0 1 1-1.28c.35-.41.73-.81 1.12-1.19a6.37 6.37 0 0 1 .46-.54 1 1 0 0 1 .55-.34 2.64 2.64 0 0 1 1 .1c.09.16.18.33.26.51.09.197.164.4.22.61a14 14 0 0 1-.1 2.91c-.13.94-.27 1.86-.43 2.77a1.45 1.45 0 0 0 0 .46 1.45 1.45 0 0 1 0 .46c-.07.19-.14.44-.24.75-.1.31-.18.59-.25.85.01.422-.09.839-.29 1.21a4 4 0 0 0-.39 1.07.46.46 0 0 0-.17.32.38.38 0 0 1-.16.26 3.56 3.56 0 0 1-.31 1 7.2 7.2 0 0 0-.37.88c-.48.72-.98 1.33-1.48 2-.5.67-.98 1.32-1.43 2-.547.84-1.137 1.65-1.77 2.43a27 27 0 0 0-1.77 2.43 5.35 5.35 0 0 0-1.08 1.16 4.74 4.74 0 0 1-1.12 1.21c-.16.65-.32 1.34-.46 2.11-.14.77-.3 1.53-.46 2.31a3.52 3.52 0 0 1-.15.66c-.06.21-.13.43-.19.65a2.29 2.29 0 0 0 0 .83 1.54 1.54 0 0 1-.14.82c.064.18.104.369.12.56.007.198.066.391.17.56.072.109.16.206.26.29a.51.51 0 0 0 .32.15c.23-.17.39-.17.39-.17a.21.21 0 0 0 .14 0 2.15 2.15 0 0 0 .49-.39l.44-.43a1.18 1.18 0 0 0 .36-.22 1.44 1.44 0 0 1 .27-.22l.26-.15a.64.64 0 0 0 .22-.14 5.8 5.8 0 0 1 1.31-1.09 3.44 3.44 0 0 0 1-.9c.33-.2.62-.37.88-.54a1.52 1.52 0 0 0 .51-.41c.147-.18.336-.32.55-.41a1.27 1.27 0 0 1 .2-.24 1.81 1.81 0 0 0 .21-.25c.39-.26.77-.51 1.14-.77l.14-.09.18-.16a3.19 3.19 0 0 1 .56-.6c.21-.18.41-.37.61-.56a2.34 2.34 0 0 0 .26-.34.69.69 0 0 1 .37-.29 2.12 2.12 0 0 1 .43-.56c.16-.15.34-.3.54-.46a6.91 6.91 0 0 1 2-1.7 12 12 0 0 0 2.18-1.55 2.48 2.48 0 0 0 .58-.35c.17-.12.33-.25.49-.38a1.35 1.35 0 0 1 1.31-.34l1.21.31c.38.29.69.58 1 .87.306.3.575.635.8 1 .26-.026.52-.026.78 0a3.7 3.7 0 0 0 .92-.08c.1 0 .2-.023.29-.07a.56.56 0 0 1 .24-.07c.49.16.73.4.73.73l-.05.39a1.23 1.23 0 0 1-.09.58 1.23 1.23 0 0 0-.3.63l-.17.34a2 2 0 0 0-.12.39 1.8 1.8 0 0 0-.07.68c.026.24.026.48 0 .72a10.2 10.2 0 0 0-.15 1.05c-.03.3-.1.65-.1 1a9.48 9.48 0 0 1-.09 1.22c-.07.45-.13.85-.2 1.21.129.225.21.473.24.73a1 1 0 0 0 .34.63 4.91 4.91 0 0 0 1.56-.46 4.15 4.15 0 0 0 1.11-.9 2.37 2.37 0 0 0 .61-.34 4.13 4.13 0 0 1 .56-.39l.19-.19.2-.2a4.88 4.88 0 0 0 .65-.39l.15-.19c.29-.35.59-.74.88-1.14.29-.4.57-.78.85-1.14l.6-.78a6.44 6.44 0 0 1 .63-1.19c.33-.5.68-1.02 1.07-1.55l1.1-1.52a14.3 14.3 0 0 0 .85-1.17l.42-.68.36-.63a2 2 0 0 0 .11-.24c.059-.067.11-.14.15-.22a.54.54 0 0 0-.1-.56.51.51 0 0 1-.14-.51 2.32 2.32 0 0 1 .85-1 2.93 2.93 0 0 0 .85-.81 2.67 2.67 0 0 1 .46-.29 1.42 1.42 0 0 0 .46-.34.71.71 0 0 1 .48-.21c.185-.03.375-.03.56 0 .17.048.335.115.49.2.107.05.2.126.27.22a.8.8 0 0 1 0 .38c-.04.17-.03.2-.1.49s-.14.56-.2.8-.12.46-.19.8-.17.68-.17 1c-.044.34.075.68.32.92a1.33 1.33 0 0 0 0 .59c.045.213.102.423.17.63a13.23 13.23 0 0 0 .56 3.08c.313 1.02.647 1.95 1 2.79.002.166.03.332.08.49.043.164.1.325.17.48a8.31 8.31 0 0 1-.3 3.09c-.29 1-.56 2-.82 3a5.48 5.48 0 0 0-.49 1.12 4 4 0 0 1-.19.48 2.74 2.74 0 0 1-.29.44 5.89 5.89 0 0 0-.44.87c-.15.35-.43.63-.78.78a1 1 0 0 1-.65 0 1.06 1.06 0 0 0-.61 0 2.21 2.21 0 0 0-.43.12 1.09 1.09 0 0 1-.39.08 1.69 1.69 0 0 1-1-.13 3.2 3.2 0 0 0-1-.31.23.23 0 0 0-.15-.22 1.13 1.13 0 0 1-.24-.17 4.79 4.79 0 0 0-.39-1.12 2.65 2.65 0 0 1-.29-.72 3.92 3.92 0 0 1-.15-1 2.5 2.5 0 0 0-.24-1 1.07 1.07 0 0 1-.17-.54 1.36 1.36 0 0 0 0-.29c0-.38-.03-.88-.08-1.38a1.3 1.3 0 0 1 .61-1.24 1.19 1.19 0 0 0 .36-.51c.09-.22.234-.413.42-.56a.44.44 0 0 1 .31-.09.85.85 0 0 1 .32 0l.29.25a.63.63 0 0 1-.07.53 5.43 5.43 0 0 0-.27.58c.021.11.055.217.1.32.04.1.04.21 0 .31.2.135.35.332.43.56a2.6 2.6 0 0 0 .34.66c.155.176.325.336.51.48.181.133.352.28.51.44a.88.88 0 0 1 .39-.15 1.17 1.17 0 0 0 .39-.09 4.45 4.45 0 0 0 .68-1.36c.03-.13.1-.28.1-.44a2.47 2.47 0 0 0 .05-.44 3.47 3.47 0 0 0-.39-1.31 6.23 6.23 0 0 1-.54-1.31 1.41 1.41 0 0 1-.12-.87 2.28 2.28 0 0 0 0-.87.88.88 0 0 0-.15-.39 3.45 3.45 0 0 1-.19-.34 2.74 2.74 0 0 1-.07-.88 1.3 1.3 0 0 0-.22-.82c-.13.13-.33.38-.63.73s-.6.74-.93 1.16l-.89 1.17-.26.31a1.86 1.86 0 0 1-.25.51c-.1.118-.185.25-.25.39a.12.12 0 0 1-.05.1c-.1.14-.22.26-.36.36a1.78 1.78 0 0 0-.36.37c-.17.29-.3.43-.39.43a.37.37 0 0 0-.25.1l-.12.14c-.3.37-.61.77-.94 1.19-.33.42-.63.82-.9 1.19l-.56.75c-.06.1-.24.34-.51.73-.27.39-.58.8-.92 1.26-.34.46-.65.88-.92 1.26a6.42 6.42 0 0 0-.51.78 3.23 3.23 0 0 1-.76.85 1.7 1.7 0 0 1-1.09.36.65.65 0 0 1-.09-.26 3.4 3.4 0 0 1-.08-.46 2.3 2.3 0 0 0-.09-.47 1.69 1.69 0 0 0-.13-.31 3 3 0 0 0 .22-.58 1 1 0 0 1 .35-.48 3.51 3.51 0 0 1-.52.33l-.41.22a1 1 0 0 1-.46.12 1.91 1.91 0 0 1-1.07-.1 6.43 6.43 0 0 0-.92-.29 1.72 1.72 0 0 0-.49-.48 3.37 3.37 0 0 1-.63-1.27c-.13-.48-.26-1-.39-1.55a3 3 0 0 0-.72.63 2.51 2.51 0 0 1-.88.63c-.65.62-1.33 1.22-2.06 1.78s-1.47 1.15-2.21 1.77a2 2 0 0 1-.29.24h-.24a1.13 1.13 0 0 1-.66.36 2.49 2.49 0 0 1-.9 0 4.07 4.07 0 0 0-.87-.34 4.11 4.11 0 0 1-.78-.29 2.45 2.45 0 0 1-1.38-.73 5.6 5.6 0 0 1-.95-1.36 4.94 4.94 0 0 1-.22-.73c-.05-.22-.1-.48-.17-.78a3.34 3.34 0 0 0-.14-.65.65.65 0 0 1 0-.51.36.36 0 0 1-.05-.32 1.36 1.36 0 0 0 .05-.36v-.06l-.1.08a8.13 8.13 0 0 1-.92.85l-.46.37a5.27 5.27 0 0 0-.47.41 4.6 4.6 0 0 1-.43.39l-.44.34-.58.68c-.2.23-.39.47-.58.73a4.78 4.78 0 0 0-1 .58 4.53 4.53 0 0 1-1 .58 1.67 1.67 0 0 0-.46.46 1 1 0 0 1-.55.42 1.65 1.65 0 0 1-.83.07 2.62 2.62 0 0 1-.73-.22 1.27 1.27 0 0 0-.39-.24.57.57 0 0 0-.24 0 4.32 4.32 0 0 1-.63-1.38c-.13-.51-.28-1.03-.44-1.58a2.73 2.73 0 0 1-.14-.51c-.04-.18-.1-.38-.1-.61a2.66 2.66 0 0 1-.07-.39 2.18 2.18 0 0 0-.12-.43l-.2-.51zm16.78-4.42a2.93 2.93 0 0 0-.44.43 3.2 3.2 0 0 0-.36.58c-.11.23-.22.44-.32.63a1.8 1.8 0 0 1-.19.32 2.48 2.48 0 0 0-.19.26 1.08 1.08 0 0 0-.08.49c.01.177.01.353 0 .53v.49c-.003.165.014.33.05.49.09.346.138.702.14 1.06.006.334.029.668.07 1a1 1 0 0 0 .37.75.67.67 0 0 0 .61.1l.55-.15a38.87 38.87 0 0 0 3.21-2.74 17.86 17.86 0 0 0 2.64-3.27 18.31 18.31 0 0 1 0-2.45 6.63 6.63 0 0 0-.21-2.21.88.88 0 0 0-.47-.07 1.14 1.14 0 0 1-.46 0 13.29 13.29 0 0 0-2.41 1.48 21.81 21.81 0 0 0-2 1.82l-.51.46zm-8.06-13v.01l-2.46 5.39a14 14 0 0 0 1.82-2.33 13.53 13.53 0 0 1 1.77-2.33 26 26 0 0 1 1.5-3.09 12.51 12.51 0 0 0 1.27-3.22 1.31 1.31 0 0 1 0-1 1.81 1.81 0 0 0 .2-1h-.05a.85.85 0 0 0-.61.43 5.76 5.76 0 0 0-.31.78c-.13.26-.24.45-.32.58a1 1 0 0 0-.07.59 49.13 49.13 0 0 0-2.74 5.19z"/>
</svg>
