<?xml version="1.0" encoding="UTF-8"?>
<svg width="150px" height="150px" viewBox="0 0 150 150" version="1.1" xmlns="http://www.w3.org/2000/svg" xmlns:xlink="http://www.w3.org/1999/xlink">
    <!-- Generator: sketchtool 53 (72520) - https://sketchapp.com -->
    <title>EC4A8AAF-DA94-4A09-97AF-8D66B07FF0BB</title>
    <desc>Created with sketchtool.</desc>
    <g id="-" stroke="none" stroke-width="1" fill="none" fill-rule="evenodd">
        <g id="icon/tripadvisor" fill="#FFFFFF" fill-rule="nonzero">
            <g id="tripadvisor-logotype">
                <path d="M102.87398,70.5153061 C97.8367347,70.5153061 93.7346939,74.5683673 93.7178571,79.5719388 C93.6994898,84.5494898 97.8214286,88.6928571 102.808163,88.705102 C107.807143,88.7204082 111.913776,84.6122449 111.910714,79.6086735 C111.907653,74.5897959 107.854592,70.5153061 102.87398,70.5153061 Z M102.87398,84.2142857 C100.293367,84.2142857 98.2163265,82.1755102 98.222449,79.6484694 C98.2255102,77.0219388 100.239796,74.9969388 102.844898,74.9938776 C105.394898,74.9908163 107.484184,77.0785714 107.462755,79.6178571 C107.432143,82.1510204 105.379592,84.2142857 102.87398,84.2142857 Z" id="Shape"></path>
                <path d="M46.7020408,57.4193878 C34.6102041,57.3122449 24.0688776,67.4035714 24.2785714,80.2576531 C24.4760204,92.2454082 34.3561224,102.408673 46.9530612,102.298469 C59.269898,102.194388 69.1714286,92.1336735 69.1943878,79.9515306 C69.2127551,67.4433673 59.1918367,57.4193878 46.7020408,57.4193878 Z M47.0632653,93.5204082 C38.9617347,93.8908163 32.4244898,87.4331633 32.4382653,79.5918367 C32.4535714,71.6464286 39,65.5683673 46.405102,65.7030612 C54.0933673,65.6938776 60.3336735,71.9005102 60.3122449,79.5857143 C60.2923469,87.3642857 54.1607143,93.197449 47.0632653,93.5204082 Z" id="Shape"></path>
                <path d="M74.8086735,0 C33.4943878,0 0,33.4943878 0,74.8086735 C0,116.122959 33.4943878,149.617347 74.8086735,149.617347 C116.122959,149.617347 149.617347,116.122959 149.617347,74.8086735 C149.617347,33.4943878 116.122959,0 74.8086735,0 Z M117.812755,103.855102 C113.245408,106.757143 108.195918,108.133163 102.802041,108.162245 C100.536735,108.177551 98.2790816,107.872959 96.0673469,107.29898 C90.6765306,105.9 86.0494898,103.209184 82.2382653,99.1408163 C81.7331633,98.605102 81.2602041,98.0494898 80.727551,97.444898 C78.7132653,100.446429 76.7311224,103.402041 74.6984694,106.431122 C72.6780612,103.409694 70.7188776,100.483163 68.7704082,97.5734694 C68.6357143,97.6423469 68.597449,97.6515306 68.569898,97.6729592 C68.5255102,97.7112245 68.4857143,97.7586735 68.4535714,97.7984694 C63.8433673,103.241327 58.0438776,106.575 50.9831633,107.693878 C47.052551,108.315306 43.1632653,108.093367 39.3443878,107.038776 C33.9367347,105.552551 29.3387755,102.70102 25.6255102,98.4887755 C21.9964286,94.3744898 19.7387755,89.5928571 18.8938776,84.1576531 C17.925,79.0882653 19.1035714,74.1964286 19.3989796,73.0117347 C20.2545918,69.5647959 21.7423469,66.3964286 23.7872449,63.4836735 C23.9311224,63.2770408 23.9816327,62.9096939 23.9127551,62.6647959 C23.0785714,59.6066327 21.6443878,56.8239796 19.9607143,54.1591837 C19.5336735,53.4841837 19.022449,52.8581633 18.5494898,52.2076531 C18.5494898,52.1326531 18.5494898,52.0576531 18.5494898,51.9811224 C18.6428571,51.9933673 18.7377551,52.0117347 18.8311224,52.0117347 C24.4897959,52.0147959 30.1515306,52.0147959 35.8117347,52.0056122 C36.0596939,52.0056122 36.3321429,51.9045918 36.544898,51.769898 C40.5214286,49.2168367 44.7596939,47.1964286 49.2107143,45.6229592 C52.4219388,44.4903061 55.697449,43.6056122 59.0433673,42.9566327 C62.2806122,42.3321429 65.5331633,41.8897959 68.822449,41.6739796 C76.8397959,41.0556122 83.25,41.9035714 87.5127551,42.4989796 C90.655102,42.9413265 93.7331633,43.7341837 96.7744898,44.6663265 C102.084184,46.3010204 107.090816,48.5739796 111.802041,51.5188776 C112.128061,51.722449 112.567347,51.8510204 112.953061,51.8510204 C118.483163,51.8755102 124.014796,51.8663265 129.544898,51.872449 C129.990306,51.872449 130.435714,51.919898 130.878061,51.9443878 C130.878061,52.0515306 130.893367,52.097449 130.875,52.1234694 C130.617857,52.5183673 130.354592,52.9132653 130.097449,53.3096939 C128.222449,56.1857143 126.618367,59.1994898 125.669388,62.5255102 C125.568367,62.8806122 125.543878,63.1806122 125.785714,63.5326531 C130.712755,70.6056122 132.280102,78.3688776 130.222959,86.7397959 C128.415306,94.0790816 124.209184,99.8005102 117.812755,103.855102 Z" id="Shape"></path>
                <path d="M46.2795918,70.5153061 C41.3678571,70.5244898 37.2520408,74.6709184 37.2627551,79.6010204 C37.275,84.5908163 41.3877551,88.6943878 46.3897959,88.7066327 C51.3612245,88.7188776 55.480102,84.5785714 55.4693878,79.5765306 C55.4540816,74.5270408 51.3734694,70.5061224 46.2795918,70.5153061 Z M46.3943878,84.2617347 C43.7571429,84.2647959 41.7244898,82.2290816 41.7244898,79.5765306 C41.7244898,76.9729592 43.7540816,74.952551 46.3821429,74.9494898 C48.9673469,74.9464286 51.0489796,77.0127551 51.0612245,79.594898 C51.0688776,82.1540816 48.9704082,84.252551 46.3943878,84.2617347 Z" id="Shape"></path>
                <path d="M102.40102,57.505102 C90.1270408,57.7561224 80.5209184,67.6484694 80.4107143,79.8857143 C80.4107143,92.3158163 90.497449,102.471429 102.883163,102.42398 C115.316327,102.379592 125.355612,92.5102041 125.346429,79.9423469 C125.340306,66.9887755 114.831122,57.2510204 102.40102,57.505102 Z M103.411224,93.5234694 C95.3433673,93.8341837 88.8872449,87.4010204 88.8903061,79.6040816 C88.8933673,71.7153061 95.3984694,65.5683673 102.837245,65.7030612 C110.531633,65.6877551 116.764286,71.8852041 116.764286,79.5719388 C116.762755,87.2862245 110.637245,93.2479592 103.411224,93.5234694 Z" id="Shape"></path>
                <path d="M83.7734694,59.1413265 C88.744898,54.580102 94.6668367,52.1877551 101.384694,51.6795918 C93.4117347,48.1377551 85.0056122,46.630102 76.3515306,46.4632653 C66.5188776,46.2719388 56.952551,47.7214286 47.8163265,51.5540816 C54.647449,51.9688776 60.647449,54.3520408 65.7168367,58.9591837 C70.7755102,63.5632653 73.7403061,69.3 74.8163265,76.05 C75.9244898,69.3795918 78.8081633,63.6933673 83.7734694,59.1413265 Z" id="Path"></path>
            </g>
        </g>
    </g>
</svg>